<?xml version="1.0" encoding="UTF-8"?><svg id="Dypta" xmlns="http://www.w3.org/2000/svg" viewBox="0 0 64 64"><defs><style>.cls-1{fill:#ff5f00;}.cls-2{fill:#293a4c;}</style></defs><path class="cls-2" d="m25.5,60.5c-2.76,0-5-2.24-5-5s2.24-5,5-5,5,2.24,5,5-2.24,5-5,5Zm0-7c-1.1,0-2,.9-2,2s.9,2,2,2,2-.9,2-2-.9-2-2-2Z"/><path class="cls-2" d="m38.5,60.5c-2.76,0-5-2.24-5-5s2.24-5,5-5,5,2.24,5,5-2.24,5-5,5Zm0-7c-1.1,0-2,.9-2,2s.9,2,2,2,2-.9,2-2-.9-2-2-2Z"/><path class="cls-2" d="m25.5,53.5c-.83,0-1.5-.67-1.5-1.5v-5c0-.83.67-1.5,1.5-1.5s1.5.67,1.5,1.5v5c0,.83-.67,1.5-1.5,1.5Z"/><path class="cls-2" d="m38.5,53.5c-.83,0-1.5-.67-1.5-1.5v-5c0-.83.67-1.5,1.5-1.5s1.5.67,1.5,1.5v5c0,.83-.67,1.5-1.5,1.5Z"/><path class="cls-2" d="m21.36,40.5h-4.86c-7.17,0-13-5.83-13-13s5.83-13,13-13c.22,0,.44,0,.66.02,1.95-6.46,7.99-11.02,14.84-11.02s12.89,4.56,14.84,11.02c.22-.01.44-.02.66-.02,7.17,0,13,5.83,13,13,0,6.51-4.86,12.05-11.31,12.89-.82.11-1.57-.47-1.68-1.29-.11-.82.47-1.57,1.29-1.68,4.96-.64,8.69-4.9,8.69-9.91,0-5.51-4.49-10-10-10-.48,0-.99.04-1.56.13-.79.12-1.54-.39-1.7-1.18-1.2-5.77-6.35-9.96-12.24-9.96s-11.04,4.19-12.24,9.96c-.16.78-.9,1.3-1.7,1.18-.57-.09-1.08-.13-1.56-.13-5.51,0-10,4.49-10,10s4.49,10,10,10h4.86c.83,0,1.5.67,1.5,1.5s-.67,1.5-1.5,1.5Z"/><path class="cls-2" d="m12.5,51.5c-.83,0-1.5-.67-1.5-1.5v-11.72c0-.83.67-1.5,1.5-1.5s1.5.67,1.5,1.5v11.72c0,.83-.67,1.5-1.5,1.5Z"/><path class="cls-2" d="m12.5,58.5c-2.76,0-5-2.24-5-5s2.24-5,5-5,5,2.24,5,5-2.24,5-5,5Zm0-7c-1.1,0-2,.9-2,2s.9,2,2,2,2-.9,2-2-.9-2-2-2Z"/><path class="cls-2" d="m51.5,51.5c-.83,0-1.5-.67-1.5-1.5v-11.72c0-.83.67-1.5,1.5-1.5s1.5.67,1.5,1.5v11.72c0,.83-.67,1.5-1.5,1.5Z"/><path class="cls-2" d="m51.5,58.5c-2.76,0-5-2.24-5-5s2.24-5,5-5,5,2.24,5,5-2.24,5-5,5Zm0-7c-1.1,0-2,.9-2,2s.9,2,2,2,2-.9,2-2-.9-2-2-2Z"/><path class="cls-1" d="m45.18,35.71l-.17-.22c-.65-.83-1.01-1.86-1.01-2.91h0c0-1.05.36-2.09,1-2.91l.17-.22c.38-.48.43-1.15.12-1.68l-2.48-4.3c-.31-.53-.9-.83-1.51-.73l-.28.04c-1.05.15-2.12-.06-3.04-.58-.9-.52-1.61-1.34-2-2.3l-.11-.29c-.23-.57-.78-.94-1.39-.94h-4.97c-.61,0-1.17.37-1.39.94l-.11.29c-.39.97-1.1,1.78-2,2.3-.91.53-1.99.73-3.04.58l-.28-.04c-.61-.09-1.21.2-1.51.73l-2.48,4.3c-.31.53-.26,1.2.12,1.68l.11.14c.69.88,1.07,1.97,1.07,3.08,0,.99-.34,1.97-.95,2.75l-.23.29c-.38.48-.43,1.15-.12,1.68l2.48,4.3c.31.53.9.83,1.51.73l.29-.04c1.04-.15,2.11.06,3.02.58.91.52,1.62,1.34,2.01,2.31l.11.28c.23.57.78.94,1.39.94h4.97c.61,0,1.17-.37,1.39-.94l.11-.27c.39-.97,1.11-1.8,2.01-2.32.91-.52,1.98-.73,3.01-.58l.29.04c.62.09,1.21-.2,1.51-.73l2.48-4.3c.31-.53.26-1.2-.12-1.68Zm-6.39-6l-7.73,7.84c-.28.29-.67.45-1.07.45-.03,0-.06,0-.09,0-.43-.03-.83-.24-1.1-.58l-3.72-4.84c-.51-.66-.38-1.6.27-2.1.66-.51,1.6-.38,2.1.27l2.67,3.47,6.52-6.61c.58-.59,1.53-.6,2.12-.02.59.58.6,1.53.02,2.12Z"/></svg>