<?xml version="1.0" encoding="UTF-8"?><svg id="Dypta" xmlns="http://www.w3.org/2000/svg" viewBox="0 0 64 64"><defs><style>.cls-1{fill:#ff5f00;}.cls-2{fill:#293a4c;}</style></defs><path class="cls-2" d="m14.78,28.5c-.25,0-.51-.06-.74-.19l-9.78-5.5c-.47-.27-.76-.77-.76-1.31v-11c0-.54.29-1.04.76-1.31L14.04,3.69c.46-.26,1.01-.26,1.47,0l9.78,5.5c.47.27.76.77.76,1.31v11c0,.54-.29,1.04-.76,1.31l-9.78,5.5c-.23.13-.48.19-.74.19Zm-8.28-7.88l8.28,4.66,8.28-4.66v-9.25l-8.28-4.66-8.28,4.66v9.25Z"/><path class="cls-2" d="m14.78,17.5c-.25,0-.51-.06-.74-.19l-9.78-5.5c-.72-.41-.98-1.32-.57-2.04s1.32-.98,2.04-.57l9.04,5.09,9.04-5.09c.72-.4,1.64-.15,2.04.57s.15,1.64-.57,2.04l-9.78,5.5c-.23.13-.48.19-.74.19Z"/><path class="cls-2" d="m14.78,28.5c-.83,0-1.5-.67-1.5-1.5v-11c0-.83.67-1.5,1.5-1.5s1.5.67,1.5,1.5v11c0,.83-.67,1.5-1.5,1.5Z"/><path class="cls-2" d="m17.78,45.44c-.25,0-.5-.06-.73-.19l-8.78-4.94c-.47-.27-.76-.77-.76-1.31v-15.25c0-.83.67-1.5,1.5-1.5s1.5.67,1.5,1.5v14.37l8.02,4.51c.72.41.98,1.32.57,2.04-.28.49-.79.77-1.31.77Z"/><path class="cls-2" d="m52,42.19c-.52,0-1.03-.28-1.31-.77-.41-.72-.15-1.64.57-2.04l2.24-1.26v-14.37c0-.83.67-1.5,1.5-1.5s1.5.67,1.5,1.5v15.25c0,.54-.29,1.04-.76,1.31l-3,1.69c-.23.13-.49.19-.73.19Z"/><path class="cls-2" d="m49.22,28.5c-.25,0-.51-.06-.74-.19l-9.78-5.5c-.47-.27-.76-.77-.76-1.31v-11c0-.54.29-1.04.76-1.31l9.78-5.5c.46-.26,1.01-.26,1.47,0l9.78,5.5c.47.27.76.77.76,1.31v11c0,.54-.29,1.04-.76,1.31l-9.78,5.5c-.23.13-.48.19-.74.19Zm-8.28-7.88l8.28,4.66,8.28-4.66v-9.25l-8.28-4.66-8.28,4.66v9.25Z"/><path class="cls-2" d="m49.22,17.5c-.25,0-.51-.06-.74-.19l-9.78-5.5c-.72-.41-.98-1.32-.57-2.04.41-.72,1.32-.98,2.04-.57l9.04,5.09,9.04-5.09c.72-.41,1.64-.15,2.04.57s.15,1.64-.57,2.04l-9.78,5.5c-.23.13-.48.19-.74.19Z"/><path class="cls-2" d="m49.22,28.5c-.83,0-1.5-.67-1.5-1.5v-11c0-.83.67-1.5,1.5-1.5s1.5.67,1.5,1.5v11c0,.83-.67,1.5-1.5,1.5Z"/><path class="cls-2" d="m39.44,16.5h-14.88c-.83,0-1.5-.67-1.5-1.5s.67-1.5,1.5-1.5h14.88c.83,0,1.5.67,1.5,1.5s-.67,1.5-1.5,1.5Z"/><polygon class="cls-1" points="30.5 43.88 24.5 40.5 24.5 47.19 30.5 50.56 30.5 43.88"/><polygon class="cls-1" points="32 41.28 37.94 37.94 32 34.6 26.06 37.94 32 41.28"/><polygon class="cls-1" points="33.5 43.88 33.5 50.56 39.5 47.19 39.5 40.5 33.5 43.88"/><path class="cls-1" d="m46.96,33.69l-14.22-8c-.46-.26-1.01-.26-1.47,0l-14.22,8c-.47.27-.76.77-.76,1.31v16c0,.54.29,1.04.76,1.31l14.22,8c.23.13.48.19.74.19s.51-.06.74-.19l14.22-8c.47-.27.76-.77.76-1.31v-16c0-.54-.29-1.04-.76-1.31Zm-4.46,14.37c0,.54-.29,1.04-.76,1.31l-9,5.06c-.23.13-.48.19-.74.19s-.51-.06-.74-.19l-9-5.06c-.47-.27-.76-.77-.76-1.31v-10.12c0-.54.29-1.04.76-1.31l9-5.06c.46-.26,1.01-.26,1.47,0l9,5.06c.47.27.76.77.76,1.31v10.12Z"/></svg>