<?xml version="1.0" encoding="UTF-8"?><svg id="Dypta" xmlns="http://www.w3.org/2000/svg" viewBox="0 0 64 64"><defs><style>.cls-1{fill:#ff5f00;}.cls-2{fill:#293a4c;}</style></defs><path class="cls-2" d="m34,24.5H11c-.83,0-1.5-.67-1.5-1.5v-12c0-.83.67-1.5,1.5-1.5h23c.83,0,1.5.67,1.5,1.5v12c0,.83-.67,1.5-1.5,1.5Zm-21.5-3h20v-9H12.5v9Z"/><path class="cls-2" d="m37,60.5H8c-2.48,0-4.5-2.02-4.5-4.5V8c0-2.48,2.02-4.5,4.5-4.5h29c2.48,0,4.5,2.02,4.5,4.5v15c0,.83-.67,1.5-1.5,1.5s-1.5-.67-1.5-1.5v-15c0-.83-.67-1.5-1.5-1.5H8c-.83,0-1.5.67-1.5,1.5v48c0,.83.67,1.5,1.5,1.5h29c.83,0,1.5-.67,1.5-1.5v-5c0-.83.67-1.5,1.5-1.5s1.5.67,1.5,1.5v5c0,2.48-2.02,4.5-4.5,4.5Z"/><path class="cls-2" d="m57.44,22.95s-.07,0-.11,0c-.83-.06-1.45-.78-1.39-1.6.18-2.59-.62-4.92-2.26-6.56-1.6-1.6-3.87-2.41-6.38-2.26-.85.02-1.53-.59-1.58-1.42-.05-.83.59-1.53,1.42-1.58,3.37-.18,6.45.93,8.66,3.14,2.26,2.26,3.37,5.42,3.13,8.89-.06.79-.71,1.39-1.49,1.39Z"/><path class="cls-2" d="m52.23,23.52s-.07,0-.11,0c-.83-.06-1.45-.78-1.39-1.6.09-1.23-.29-2.34-1.06-3.11-.73-.73-1.79-1.1-2.95-1.07-.84.05-1.52-.62-1.55-1.44-.03-.83.62-1.52,1.44-1.55,2.01-.08,3.86.62,5.19,1.94,1.4,1.4,2.08,3.33,1.93,5.45-.06.79-.71,1.39-1.49,1.39Z"/><path class="cls-2" d="m47.56,23.13c-.59.59-1.54.59-2.12,0s-.59-1.54,0-2.12c.59-.59,1.54-.59,2.12,0,.59.59.59,1.54,0,2.12Z"/><path class="cls-2" d="m14,30.5h-3c-.83,0-1.5-.67-1.5-1.5s.67-1.5,1.5-1.5h3c.83,0,1.5.67,1.5,1.5s-.67,1.5-1.5,1.5Z"/><path class="cls-2" d="m21,30.5c-.83,0-1.5-.67-1.5-1.5,0-.83.67-1.5,1.5-1.5h3s0,0,0,0c.83,0,1.5.67,1.5,1.5,0,.83-.67,1.5-1.5,1.5h-3s0,0,0,0Z"/><path class="cls-2" d="m14,36.5h-3c-.83,0-1.5-.67-1.5-1.5s.67-1.5,1.5-1.5h3c.83,0,1.5.67,1.5,1.5s-.67,1.5-1.5,1.5Z"/><path class="cls-2" d="m21,36.5c-.83,0-1.5-.67-1.5-1.5,0-.83.67-1.5,1.5-1.5h3s0,0,0,0c.83,0,1.5.67,1.5,1.5,0,.83-.67,1.5-1.5,1.5h-3s0,0,0,0Z"/><path class="cls-2" d="m14,42.5h-3c-.83,0-1.5-.67-1.5-1.5s.67-1.5,1.5-1.5h3c.83,0,1.5.67,1.5,1.5s-.67,1.5-1.5,1.5Z"/><path class="cls-2" d="m21,42.5c-.83,0-1.5-.67-1.5-1.5,0-.83.67-1.5,1.5-1.5h3s0,0,0,0c.83,0,1.5.67,1.5,1.5,0,.83-.67,1.5-1.5,1.5h-3s0,0,0,0Z"/><path class="cls-2" d="m14,48.5h-3c-.83,0-1.5-.67-1.5-1.5s.67-1.5,1.5-1.5h3c.83,0,1.5.67,1.5,1.5s-.67,1.5-1.5,1.5Z"/><path class="cls-2" d="m21,48.5c-.83,0-1.5-.67-1.5-1.5,0-.83.67-1.5,1.5-1.5h3s0,0,0,0c.83,0,1.5.67,1.5,1.5,0,.83-.67,1.5-1.5,1.5h-3s0,0,0,0Z"/><path class="cls-1" d="m59,27.5h-30c-.83,0-1.5.67-1.5,1.5v22c0,.83.67,1.5,1.5,1.5h30c.83,0,1.5-.67,1.5-1.5v-22c0-.83-.67-1.5-1.5-1.5Zm-5,20h-4c-.83,0-1.5-.67-1.5-1.5s.67-1.5,1.5-1.5h4c.83,0,1.5.67,1.5,1.5s-.67,1.5-1.5,1.5Zm0-12h-20c-.83,0-1.5-.67-1.5-1.5s.67-1.5,1.5-1.5h20c.83,0,1.5.67,1.5,1.5s-.67,1.5-1.5,1.5Z"/></svg>