<?xml version="1.0" encoding="UTF-8"?><svg id="Dypta" xmlns="http://www.w3.org/2000/svg" viewBox="0 0 64 64"><defs><style>.cls-1{fill:#ff5f00;}.cls-2{fill:#293a4c;}</style></defs><path class="cls-2" d="m50,60.5H8c-2.48,0-4.5-2.02-4.5-4.5V24c0-2.48,2.02-4.5,4.5-4.5h20c.83,0,1.5.67,1.5,1.5s-.67,1.5-1.5,1.5H8c-.83,0-1.5.67-1.5,1.5v32c0,.83.67,1.5,1.5,1.5h42c.83,0,1.5-.67,1.5-1.5v-27.44c0-.83.67-1.5,1.5-1.5s1.5.67,1.5,1.5v27.44c0,2.48-2.02,4.5-4.5,4.5Z"/><path class="cls-2" d="m53,37.5H5c-.83,0-1.5-.67-1.5-1.5v-8c0-.83.67-1.5,1.5-1.5h33.69c.83,0,1.5.67,1.5,1.5s-.67,1.5-1.5,1.5H6.5v5h46.5c.83,0,1.5.67,1.5,1.5s-.67,1.5-1.5,1.5Z"/><path class="cls-2" d="m26,43.5H5c-.83,0-1.5-.67-1.5-1.5v-6c0-.83.67-1.5,1.5-1.5h21c.83,0,1.5.67,1.5,1.5v6c0,.83-.67,1.5-1.5,1.5Zm-19.5-3h18v-3H6.5v3Z"/><path class="cls-2" d="m43,54.5h-7c-3.03,0-5.5-2.47-5.5-5.5s2.47-5.5,5.5-5.5h7c3.03,0,5.5,2.47,5.5,5.5s-2.47,5.5-5.5,5.5Zm-7-8c-1.38,0-2.5,1.12-2.5,2.5s1.12,2.5,2.5,2.5h7c1.38,0,2.5-1.12,2.5-2.5s-1.12-2.5-2.5-2.5h-7Z"/><path class="cls-1" d="m46.25,3.5c-7.85,0-14.24,6.39-14.24,14.24s6.39,14.24,14.24,14.24,14.25-6.39,14.25-14.24-6.39-14.24-14.25-14.24Zm0,20.86c-.83,0-1.5-.67-1.5-1.5s.67-1.5,1.5-1.5,1.5.67,1.5,1.5-.67,1.5-1.5,1.5Zm5-4.45c-.28.25-.63.37-.98.37-.42,0-.84-.18-1.13-.52-1.58-1.82-4.15-1.88-5.79-.12-.56.61-1.51.64-2.12.08-.61-.56-.64-1.51-.08-2.12,1.37-1.48,3.16-2.29,5.04-2.29,1.98,0,3.83.88,5.22,2.49.54.63.47,1.57-.15,2.12Zm3.28-4.1c-.28.25-.63.37-.98.37-.42,0-.84-.18-1.13-.52-1.7-1.96-3.92-3.04-6.23-3.04s-4.43,1.03-6.11,2.91c-.55.62-1.5.67-2.12.12-.62-.55-.67-1.5-.12-2.12,2.26-2.52,5.22-3.91,8.35-3.91s6.22,1.45,8.5,4.08c.54.63.48,1.57-.15,2.12Z"/></svg>