<?xml version="1.0" encoding="UTF-8"?><svg id="Dypta" xmlns="http://www.w3.org/2000/svg" viewBox="0 0 64 64"><defs><style>.cls-1{fill:#ff5f00;}.cls-2{fill:#293a4c;}</style></defs><path class="cls-2" d="m16,28.5c-.63,0-1.2-.04-1.73-.13-6.12-.81-10.77-6.13-10.77-12.37,0-6.89,5.61-12.5,12.5-12.5,6.24,0,11.56,4.65,12.38,10.81.11.82-.47,1.58-1.29,1.68-.82.11-1.58-.47-1.68-1.29-.62-4.68-4.66-8.21-9.4-8.21-5.24,0-9.5,4.26-9.5,9.5,0,4.74,3.53,8.78,8.21,9.4.42.07.83.1,1.29.1,1.45,0,2.85-.32,4.16-.95.74-.36,1.64-.05,2,.7.36.75.05,1.64-.7,2-1.72.83-3.55,1.25-5.46,1.25Z"/><path class="cls-2" d="m16,20.08c-2.95,0-5.35-2.4-5.35-5.35s2.4-5.35,5.35-5.35,5.35,2.4,5.35,5.35-2.4,5.35-5.35,5.35Zm0-7.71c-1.3,0-2.35,1.06-2.35,2.35s1.06,2.35,2.35,2.35,2.35-1.06,2.35-2.35-1.06-2.35-2.35-2.35Z"/><path class="cls-2" d="m8.43,25.48c-.16,0-.33-.03-.49-.08-.78-.27-1.2-1.12-.93-1.91,1.32-3.84,4.93-6.41,8.99-6.41,3.56,0,6.79,1.96,8.43,5.12.38.73.1,1.64-.64,2.02-.73.38-1.64.1-2.02-.64-1.12-2.16-3.33-3.5-5.77-3.5-2.78,0-5.25,1.76-6.15,4.39-.21.62-.79,1.01-1.42,1.01Z"/><path class="cls-2" d="m49.5,28.39c-.74,0-1.38-.55-1.48-1.3-.11-.82.47-1.58,1.29-1.69,4.67-.63,8.2-4.67,8.2-9.4,0-5.24-4.26-9.5-9.5-9.5-4.74,0-8.78,3.53-9.4,8.21-.07.42-.1.83-.1,1.29,0,1.45.32,2.85.95,4.16.36.75.05,1.64-.7,2-.75.36-1.64.05-2-.7-.83-1.72-1.25-3.56-1.25-5.46,0-.63.04-1.2.13-1.73.81-6.12,6.13-10.77,12.37-10.77,6.89,0,12.5,5.61,12.5,12.5,0,6.23-4.64,11.55-10.8,12.38-.07,0-.13.01-.2.01Z"/><path class="cls-2" d="m48,20.08c-2.95,0-5.35-2.4-5.35-5.35s2.4-5.35,5.35-5.35,5.35,2.4,5.35,5.35-2.4,5.35-5.35,5.35Zm0-7.71c-1.3,0-2.35,1.06-2.35,2.35s1.06,2.35,2.35,2.35,2.35-1.06,2.35-2.35-1.06-2.35-2.35-2.35Z"/><path class="cls-2" d="m55.57,25.49c-.62,0-1.21-.39-1.42-1.02-.89-2.63-3.36-4.39-6.15-4.39-2.43,0-4.64,1.34-5.77,3.51-.38.73-1.29,1.02-2.02.63-.73-.38-1.02-1.29-.63-2.02,1.65-3.15,4.88-5.11,8.43-5.11,4.07,0,7.68,2.58,8.99,6.43.27.78-.15,1.64-.94,1.9-.16.05-.32.08-.48.08Z"/><path class="cls-2" d="m48,60.5c-6.24,0-11.56-4.65-12.38-10.81-.11-.82.47-1.58,1.29-1.68.82-.11,1.58.47,1.68,1.29.62,4.68,4.66,8.21,9.4,8.21,5.24,0,9.5-4.26,9.5-9.5,0-4.73-3.53-8.78-8.2-9.4-.41-.07-.83-.1-1.3-.1-1.45,0-2.85.32-4.16.95-.75.36-1.64.05-2-.7s-.05-1.64.7-2c1.72-.83,3.55-1.25,5.46-1.25.64,0,1.21.04,1.74.13,6.11.82,10.76,6.14,10.76,12.37,0,6.89-5.61,12.5-12.5,12.5Z"/><path class="cls-2" d="m16,60.5c-6.89,0-12.5-5.61-12.5-12.5,0-6.23,4.64-11.55,10.8-12.38.82-.11,1.58.47,1.69,1.29.11.82-.47,1.58-1.29,1.69-4.67.63-8.2,4.67-8.2,9.4,0,5.24,4.26,9.5,9.5,9.5,4.74,0,8.78-3.53,9.4-8.21.07-.42.1-.83.1-1.29,0-1.45-.32-2.85-.95-4.16-.36-.75-.05-1.64.7-2,.74-.36,1.64-.05,2,.7.83,1.72,1.25,3.56,1.25,5.46,0,.63-.04,1.2-.13,1.73-.81,6.12-6.13,10.77-12.37,10.77Z"/><path class="cls-2" d="m16,52.08c-2.95,0-5.35-2.4-5.35-5.35s2.4-5.35,5.35-5.35,5.35,2.4,5.35,5.35-2.4,5.35-5.35,5.35Zm0-7.71c-1.3,0-2.35,1.06-2.35,2.35s1.06,2.35,2.35,2.35,2.35-1.06,2.35-2.35-1.06-2.35-2.35-2.35Z"/><path class="cls-2" d="m23.57,57.49c-.62,0-1.21-.39-1.42-1.02-.89-2.63-3.36-4.39-6.15-4.39s-5.25,1.76-6.15,4.39c-.27.78-1.12,1.2-1.91.93s-1.2-1.12-.93-1.91c1.32-3.84,4.93-6.42,8.99-6.42s7.68,2.58,8.99,6.43c.27.78-.15,1.64-.94,1.9-.16.05-.32.08-.48.08Z"/><path class="cls-2" d="m48,52.08c-2.95,0-5.35-2.4-5.35-5.35s2.4-5.35,5.35-5.35,5.35,2.4,5.35,5.35-2.4,5.35-5.35,5.35Zm0-7.71c-1.3,0-2.35,1.06-2.35,2.35s1.06,2.35,2.35,2.35,2.35-1.06,2.35-2.35-1.06-2.35-2.35-2.35Z"/><path class="cls-2" d="m55.57,57.49c-.62,0-1.21-.39-1.42-1.02-.89-2.63-3.36-4.39-6.15-4.39s-5.25,1.76-6.15,4.39c-.27.78-1.12,1.2-1.91.93s-1.2-1.12-.93-1.91c1.32-3.84,4.93-6.42,8.99-6.42s7.68,2.58,8.99,6.43c.27.78-.15,1.64-.94,1.9-.16.05-.32.08-.48.08Z"/><path class="cls-1" d="m32,17.76c-7.85,0-14.25,6.39-14.25,14.24s6.39,14.24,14.25,14.24,14.25-6.39,14.25-14.24-6.39-14.24-14.25-14.24Zm4.5,17.08c0,1.82-1.26,3.36-3,3.94v1.23c0,.83-.67,1.5-1.5,1.5s-1.5-.67-1.5-1.5v-1.25c-1.05-.39-1.91-1.17-2.33-2.19-.31-.77.06-1.64.83-1.95.77-.31,1.64.06,1.95.82.14.35.57.6,1.05.6.81,0,1.5-.55,1.5-1.2v-.13c0-.85-1.74-1.22-1.75-1.22-1.57-.26-4.25-1.44-4.25-4.18v-.13c0-1.82,1.26-3.36,3-3.94v-1.23c0-.83.67-1.5,1.5-1.5s1.5.67,1.5,1.5v1.25c1.05.39,1.91,1.17,2.33,2.19.31.77-.06,1.64-.83,1.95-.77.31-1.64-.06-1.95-.82-.14-.35-.57-.6-1.05-.6-.81,0-1.5.55-1.5,1.2v.13c0,.85,1.74,1.22,1.75,1.22,1.57.26,4.25,1.44,4.25,4.18v.13Z"/></svg>