<?xml version="1.0" encoding="UTF-8"?><svg id="Dypta" xmlns="http://www.w3.org/2000/svg" viewBox="0 0 64 64"><defs><style>.cls-1{fill:#ff5f00;}.cls-2{fill:#293a4c;}</style></defs><path class="cls-2" d="m53,60.5H11c-2.48,0-4.5-2.02-4.5-4.5V23c0-2.48,2.02-4.5,4.5-4.5h8.47c.83,0,1.5.67,1.5,1.5s-.67,1.5-1.5,1.5h-8.47c-.83,0-1.5.67-1.5,1.5v33c0,.83.67,1.5,1.5,1.5h42c.83,0,1.5-.67,1.5-1.5V23c0-.83-.67-1.5-1.5-1.5h-2.75c-.83,0-1.5-.67-1.5-1.5s.67-1.5,1.5-1.5h2.75c2.48,0,4.5,2.02,4.5,4.5v33c0,2.48-2.02,4.5-4.5,4.5Z"/><path class="cls-2" d="m56,47.5h-11.5c-4.41,0-8-3.59-8-8s3.59-8,8-8h11.5c.83,0,1.5.67,1.5,1.5v13c0,.83-.67,1.5-1.5,1.5Zm-11.5-13c-2.76,0-5,2.24-5,5s2.24,5,5,5h10v-10h-10Z"/><circle class="cls-2" cx="44" cy="39.5" r="2"/><path class="cls-2" d="m19,40.5c-2.48,0-4.5-2.02-4.5-4.5s2.02-4.5,4.5-4.5,4.5,2.02,4.5,4.5-2.02,4.5-4.5,4.5Zm0-6c-.83,0-1.5.67-1.5,1.5s.67,1.5,1.5,1.5,1.5-.67,1.5-1.5-.67-1.5-1.5-1.5Z"/><path class="cls-2" d="m16,37.5h-8c-.83,0-1.5-.67-1.5-1.5s.67-1.5,1.5-1.5h8c.83,0,1.5.67,1.5,1.5s-.67,1.5-1.5,1.5Z"/><path class="cls-2" d="m29,52.5c-2.48,0-4.5-2.02-4.5-4.5s2.02-4.5,4.5-4.5,4.5,2.02,4.5,4.5-2.02,4.5-4.5,4.5Zm0-6c-.83,0-1.5.67-1.5,1.5s.67,1.5,1.5,1.5,1.5-.67,1.5-1.5-.67-1.5-1.5-1.5Z"/><path class="cls-2" d="m26,49.5h-7c-.47,0-.92-.22-1.2-.6l-2.55-3.4h-7.25c-.83,0-1.5-.67-1.5-1.5s.67-1.5,1.5-1.5h8c.47,0,.92.22,1.2.6l2.55,3.4h6.25c.83,0,1.5.67,1.5,1.5s-.67,1.5-1.5,1.5Z"/><path class="cls-1" d="m32,3.5c-7.85,0-14.24,6.39-14.24,14.25s6.39,14.24,14.24,14.24,14.25-6.39,14.25-14.24-6.39-14.25-14.25-14.25Zm4.5,17.08c0,1.82-1.26,3.36-3,3.94v1.23c0,.83-.67,1.5-1.5,1.5s-1.5-.67-1.5-1.5v-1.25c-1.05-.39-1.91-1.17-2.33-2.19-.31-.77.06-1.64.82-1.96.77-.31,1.64.06,1.95.82.14.35.57.6,1.05.6.81,0,1.5-.55,1.5-1.2v-.13c0-.85-1.74-1.22-1.75-1.22-1.57-.26-4.25-1.44-4.25-4.18v-.13c0-1.82,1.26-3.36,3-3.94v-1.23c0-.83.67-1.5,1.5-1.5s1.5.67,1.5,1.5v1.25c1.05.39,1.91,1.17,2.33,2.19.31.77-.06,1.64-.82,1.96-.77.31-1.64-.06-1.96-.82-.14-.35-.57-.6-1.05-.6-.81,0-1.5.55-1.5,1.2v.13c0,.85,1.74,1.22,1.75,1.22,1.57.26,4.25,1.44,4.25,4.18v.13Z"/></svg>