<?xml version="1.0" encoding="UTF-8"?><svg id="Dypta" xmlns="http://www.w3.org/2000/svg" viewBox="0 0 64 64"><defs><style>.cls-1{fill:#ff5f00;}.cls-2{fill:#293a4c;}</style></defs><path class="cls-2" d="m53,50.5H11c-2.48,0-4.5-2.02-4.5-4.5V14c0-2.48,2.02-4.5,4.5-4.5h10.28c.83,0,1.5.67,1.5,1.5s-.67,1.5-1.5,1.5h-10.28c-.83,0-1.5.67-1.5,1.5v32c0,.83.67,1.5,1.5,1.5h42c.83,0,1.5-.67,1.5-1.5V14c0-.83-.67-1.5-1.5-1.5h-5c-.83,0-1.5-.67-1.5-1.5s.67-1.5,1.5-1.5h5c2.48,0,4.5,2.02,4.5,4.5v32c0,2.48-2.02,4.5-4.5,4.5Z"/><path class="cls-2" d="m56,43.5H8c-.83,0-1.5-.67-1.5-1.5s.67-1.5,1.5-1.5h48c.83,0,1.5.67,1.5,1.5s-.67,1.5-1.5,1.5Z"/><path class="cls-2" d="m40,60.5h-16c-.45,0-.88-.2-1.16-.55-.28-.35-.4-.8-.31-1.25l2-10c.14-.7.76-1.21,1.47-1.21h12c.71,0,1.33.5,1.47,1.21l2,10c.09.44-.03.9-.31,1.25-.29.35-.71.55-1.16.55Zm-14.17-3h12.34l-1.4-7h-9.54l-1.4,7Z"/><path class="cls-2" d="m46,60.5h-28c-.83,0-1.5-.67-1.5-1.5s.67-1.5,1.5-1.5h28c.83,0,1.5.67,1.5,1.5s-.67,1.5-1.5,1.5Z"/><path class="cls-1" d="m46.09,26.46l-2.28-19c-.27-2.26-2.19-3.96-4.47-3.96h-14.68c-2.28,0-4.2,1.7-4.47,3.96l-2.28,19c-.15,1.28.25,2.56,1.1,3.52s2.08,1.51,3.37,1.51h19.24c1.29,0,2.51-.55,3.37-1.51s1.25-2.25,1.1-3.52Zm-14.09-9.96c-3.58,0-6.5-2.92-6.5-6.5,0-.83.67-1.5,1.5-1.5s1.5.67,1.5,1.5c0,1.93,1.57,3.5,3.5,3.5s3.5-1.57,3.5-3.5c0-.83.67-1.5,1.5-1.5s1.5.67,1.5,1.5c0,3.58-2.92,6.5-6.5,6.5Z"/></svg>