<?xml version="1.0" encoding="UTF-8"?><svg id="Dypta" xmlns="http://www.w3.org/2000/svg" viewBox="0 0 64 64"><defs><style>.cls-1{fill:#ff5f00;}.cls-2{fill:#293a4c;}</style></defs><path class="cls-2" d="m49,21.06c-.83,0-1.5-.67-1.5-1.5v-11.56c0-.83-.67-1.5-1.5-1.5h-28c-.83,0-1.5.67-1.5,1.5v8c0,.83-.67,1.5-1.5,1.5s-1.5-.67-1.5-1.5v-8c0-2.48,2.02-4.5,4.5-4.5h28c2.48,0,4.5,2.02,4.5,4.5v11.56c0,.83-.67,1.5-1.5,1.5Z"/><path class="cls-2" d="m46,60.5h-28c-2.48,0-4.5-2.02-4.5-4.5v-8c0-.83.67-1.5,1.5-1.5s1.5.67,1.5,1.5v8c0,.83.67,1.5,1.5,1.5h28c.83,0,1.5-.67,1.5-1.5v-6c0-.83.67-1.5,1.5-1.5s1.5.67,1.5,1.5v6c0,2.48-2.02,4.5-4.5,4.5Z"/><path class="cls-2" d="m38,54.5h-12c-.83,0-1.5-.67-1.5-1.5s.67-1.5,1.5-1.5h12c.83,0,1.5.67,1.5,1.5s-.67,1.5-1.5,1.5Z"/><path class="cls-2" d="m25,49.5H8c-2.48,0-4.5-2.02-4.5-4.5v-26c0-2.48,2.02-4.5,4.5-4.5h17c2.48,0,4.5,2.02,4.5,4.5v26c0,2.48-2.02,4.5-4.5,4.5ZM8,17.5c-.83,0-1.5.67-1.5,1.5v26c0,.83.67,1.5,1.5,1.5h17c.83,0,1.5-.67,1.5-1.5v-26c0-.83-.67-1.5-1.5-1.5H8Z"/><path class="cls-2" d="m28,27.5H5c-.83,0-1.5-.67-1.5-1.5s.67-1.5,1.5-1.5h23c.83,0,1.5.67,1.5,1.5s-.67,1.5-1.5,1.5Z"/><path class="cls-2" d="m13,21c0,.83-.67,1.5-1.5,1.5s-1.5-.67-1.5-1.5.67-1.5,1.5-1.5,1.5.67,1.5,1.5Z"/><path class="cls-2" d="m18,21c0,.83-.67,1.5-1.5,1.5s-1.5-.67-1.5-1.5.67-1.5,1.5-1.5,1.5.67,1.5,1.5Z"/><path class="cls-2" d="m23,21c0,.83-.67,1.5-1.5,1.5s-1.5-.67-1.5-1.5.67-1.5,1.5-1.5,1.5.67,1.5,1.5Z"/><path class="cls-2" d="m36.32,12.5h-8.63c-2.08,0-3.93-1.22-4.61-3.02l-1.48-3.95c-.29-.78.1-1.64.88-1.93.78-.29,1.64.1,1.93.88l1.48,3.95c.24.63.98,1.08,1.8,1.08h8.63c.82,0,1.56-.44,1.8-1.08l1.48-3.95c.29-.78,1.16-1.17,1.93-.88.78.29,1.17,1.16.88,1.93l-1.48,3.95c-.68,1.81-2.53,3.02-4.61,3.02Z"/><path class="cls-1" d="m46.25,17.76c-7.85,0-14.24,6.39-14.24,14.24s6.39,14.24,14.24,14.24,14.25-6.39,14.25-14.24-6.39-14.24-14.25-14.24Zm4.5,17.08c0,1.82-1.26,3.36-3,3.94v1.23c0,.83-.67,1.5-1.5,1.5s-1.5-.67-1.5-1.5v-1.25c-1.05-.39-1.91-1.17-2.33-2.19-.31-.77.06-1.64.83-1.95.77-.31,1.64.06,1.95.82.14.35.57.6,1.05.6.81,0,1.5-.55,1.5-1.2v-.13c0-.85-1.74-1.22-1.75-1.22-1.57-.26-4.25-1.44-4.25-4.18v-.13c0-1.82,1.26-3.36,3-3.94v-1.23c0-.83.67-1.5,1.5-1.5s1.5.67,1.5,1.5v1.25c1.05.39,1.91,1.17,2.33,2.19.31.77-.06,1.64-.83,1.95-.77.31-1.64-.06-1.95-.82-.14-.35-.57-.6-1.05-.6-.81,0-1.5.55-1.5,1.2v.13c0,.85,1.74,1.22,1.75,1.22,1.57.26,4.25,1.44,4.25,4.18v.13Z"/></svg>