<?xml version="1.0" encoding="UTF-8"?><svg id="Dypta" xmlns="http://www.w3.org/2000/svg" viewBox="0 0 64 64"><defs><style>.cls-1{fill:#ff5f00;}.cls-2{fill:#293a4c;}</style></defs><path class="cls-2" d="m19,32.73c-.83,0-1.5-.67-1.5-1.5V14c0-2.48,2.02-4.5,4.5-4.5h20c.83,0,1.5.67,1.5,1.5s-.67,1.5-1.5,1.5h-20c-.83,0-1.5.67-1.5,1.5v17.23c0,.83-.67,1.5-1.5,1.5Z"/><path class="cls-2" d="m32,18.5h-7c-.83,0-1.5-.67-1.5-1.5s.67-1.5,1.5-1.5h7c.83,0,1.5.67,1.5,1.5s-.67,1.5-1.5,1.5Z"/><path class="cls-2" d="m29,24.5h-4c-.83,0-1.5-.67-1.5-1.5s.67-1.5,1.5-1.5h4c.83,0,1.5.67,1.5,1.5s-.67,1.5-1.5,1.5Z"/><path class="cls-2" d="m21.99,53.3c-6.62,0-12-5.38-12-12s5.38-12,12-12,12,5.38,12,12-5.38,12-12,12Zm0-21c-4.96,0-9,4.04-9,9s4.04,9,9,9,9-4.04,9-9-4.04-9-9-9Z"/><path class="cls-2" d="m8,60.5c-1.15,0-2.3-.44-3.18-1.32-1.75-1.75-1.75-4.61,0-6.36l7.14-7.14c.59-.59,1.54-.59,2.12,0s.59,1.54,0,2.12l-7.14,7.14c-.58.58-.58,1.54,0,2.12s1.54.58,2.12,0l7.35-7.35c.58-.59,1.54-.59,2.12,0s.59,1.54,0,2.12l-7.35,7.35c-.88.88-2.03,1.32-3.18,1.32Z"/><path class="cls-2" d="m51,60.5h-29c-2.48,0-4.5-2.02-4.5-4.5v-4.63c0-.83.67-1.5,1.5-1.5s1.5.67,1.5,1.5v4.63c0,.83.67,1.5,1.5,1.5h29c.83,0,1.5-.67,1.5-1.5v-24c0-.83.67-1.5,1.5-1.5s1.5.67,1.5,1.5v24c0,2.48-2.02,4.5-4.5,4.5Z"/><path class="cls-2" d="m43,48.33c-1.69,0-3.23-.99-3.83-2.47-.31-.77.06-1.64.83-1.95.77-.31,1.64.06,1.95.83.14.35.57.6,1.05.6.81,0,1.5-.55,1.5-1.2v-.13c0-.85-1.74-1.22-1.75-1.22-1.57-.26-4.25-1.44-4.25-4.18v-.13c0-2.32,2.02-4.2,4.5-4.2,1.69,0,3.23.99,3.83,2.47.31.77-.06,1.64-.82,1.96-.77.31-1.64-.06-1.95-.82-.14-.35-.57-.6-1.05-.6-.81,0-1.5.55-1.5,1.2v.13c0,.85,1.74,1.22,1.75,1.22,1.57.26,4.25,1.44,4.25,4.18v.13c0,2.32-2.02,4.2-4.5,4.2Z"/><path class="cls-2" d="m43,37.27c-.83,0-1.5-.67-1.5-1.5v-2.47c0-.83.67-1.5,1.5-1.5s1.5.67,1.5,1.5v2.47c0,.83-.67,1.5-1.5,1.5Z"/><path class="cls-2" d="m43,50.8c-.83,0-1.5-.67-1.5-1.5v-2.47c0-.83.67-1.5,1.5-1.5s1.5.67,1.5,1.5v2.47c0,.83-.67,1.5-1.5,1.5Z"/><path class="cls-1" d="m59.89,20.92l-8.75-15.16c-.82-1.42-2.29-2.27-3.92-2.27s-3.1.85-3.92,2.27l-8.75,15.16c-.82,1.42-.82,3.11,0,4.53.82,1.42,2.29,2.27,3.92,2.27h17.5c1.64,0,3.1-.85,3.92-2.27.82-1.42.82-3.11,0-4.53Zm-11.17,1.21c0,.83-.67,1.5-1.5,1.5s-1.5-.67-1.5-1.5v-1c0-.83.67-1.5,1.5-1.5s1.5.67,1.5,1.5v1Zm0-6c0,.83-.67,1.5-1.5,1.5s-1.5-.67-1.5-1.5v-6c0-.83.67-1.5,1.5-1.5s1.5.67,1.5,1.5v6Z"/></svg>