<?xml version="1.0" encoding="UTF-8"?><svg id="Dypta" xmlns="http://www.w3.org/2000/svg" viewBox="0 0 64 64"><defs><style>.cls-1{fill:#ff5f00;}.cls-2{fill:#293a4c;}</style></defs><path class="cls-2" d="m29,52.5c-9.65,0-17.5-7.85-17.5-17.5s7.85-17.5,17.5-17.5c1.75,0,3.46.25,5.1.76.79.24,1.24,1.08,1,1.87s-1.08,1.24-1.87,1c-1.35-.42-2.77-.62-4.22-.62-8,0-14.5,6.5-14.5,14.5s6.5,14.5,14.5,14.5,14.5-6.5,14.5-14.5c0-1.45-.21-2.87-.62-4.22-.24-.79.2-1.63,1-1.87.79-.24,1.63.2,1.87,1,.5,1.64.76,3.35.76,5.1,0,9.65-7.85,17.5-17.5,17.5Z"/><path class="cls-2" d="m29,60.5c-14.06,0-25.5-11.44-25.5-25.5S14.94,9.5,29,9.5c2.17,0,4.32.27,6.38.81.8.21,1.28,1.03,1.07,1.83-.21.8-1.03,1.29-1.83,1.07-1.81-.47-3.7-.71-5.62-.71-12.41,0-22.5,10.09-22.5,22.5s10.09,22.5,22.5,22.5,22.5-10.09,22.5-22.5c0-.83.67-1.5,1.5-1.5s1.5.67,1.5,1.5c0,14.06-11.44,25.5-25.5,25.5Z"/><path class="cls-2" d="m29,42.03c-1.69,0-3.23-.99-3.83-2.47-.31-.77.06-1.64.83-1.95.77-.31,1.64.06,1.95.83.14.35.57.6,1.05.6.81,0,1.5-.55,1.5-1.2v-.13c0-.85-1.74-1.22-1.75-1.22-1.57-.26-4.25-1.44-4.25-4.18v-.13c0-2.31,2.02-4.2,4.5-4.2,1.69,0,3.23.99,3.83,2.47.31.77-.06,1.64-.83,1.95-.77.31-1.64-.06-1.95-.83-.14-.35-.57-.6-1.05-.6-.81,0-1.5.55-1.5,1.2v.13c0,.85,1.74,1.22,1.75,1.22,1.57.26,4.25,1.44,4.25,4.18v.13c0,2.31-2.02,4.2-4.5,4.2Z"/><path class="cls-2" d="m29,30.97c-.83,0-1.5-.67-1.5-1.5v-2.47c0-.83.67-1.5,1.5-1.5s1.5.67,1.5,1.5v2.47c0,.83-.67,1.5-1.5,1.5Z"/><path class="cls-2" d="m29,44.5c-.83,0-1.5-.67-1.5-1.5v-2.47c0-.83.67-1.5,1.5-1.5s1.5.67,1.5,1.5v2.47c0,.83-.67,1.5-1.5,1.5Z"/><path class="cls-1" d="m46.26,3.5c-7.85,0-14.24,6.39-14.24,14.25s6.39,14.24,14.24,14.24,14.24-6.39,14.24-14.24-6.39-14.25-14.24-14.25Zm5.07,19.99h-7.28l.16.15c.61.56.65,1.51.09,2.12-.3.32-.7.49-1.11.49-.36,0-.73-.13-1.01-.4l-3-2.75c-.33-.3-.51-.73-.48-1.18s.24-.86.6-1.13l3-2.25c.66-.5,1.6-.36,2.1.3.37.49.39,1.14.1,1.64h6.83c.83,0,1.5.67,1.5,1.5s-.67,1.5-1.5,1.5Zm1.94-8.83l-2.77,2.25c-.28.22-.61.33-.94.33-.44,0-.87-.19-1.17-.56-.4-.5-.43-1.17-.13-1.69h-7.57c-.83,0-1.5-.67-1.5-1.5s.67-1.5,1.5-1.5h8l-.19-.19c-.59-.58-.59-1.53,0-2.12.58-.59,1.53-.59,2.12,0l2.77,2.75c.3.3.46.71.44,1.14-.02.42-.22.82-.55,1.09Z"/></svg>