<?xml version="1.0" encoding="UTF-8"?><svg id="Dypta" xmlns="http://www.w3.org/2000/svg" viewBox="0 0 64 64"><defs><style>.cls-1{fill:#ff5f00;}.cls-2{fill:#293a4c;}</style></defs><path class="cls-2" d="m50,46.73c-.83,0-1.5-.67-1.5-1.5v-10.23c0-.83.67-1.5,1.5-1.5s1.5.67,1.5,1.5v10.23c0,.83-.67,1.5-1.5,1.5Z"/><path class="cls-2" d="m50,31.5c-.83,0-1.5-.67-1.5-1.5V8c0-.83-.67-1.5-1.5-1.5h-28c-.07,0-.13,0-.2.01-.82.12-1.58-.45-1.7-1.27s.45-1.58,1.27-1.7c.21-.03.43-.05.64-.05h28c2.48,0,4.5,2.02,4.5,4.5v22c0,.83-.67,1.5-1.5,1.5Z"/><path class="cls-2" d="m47,60.5h-28c-2.48,0-4.5-2.02-4.5-4.5v-20c0-.83.67-1.5,1.5-1.5s1.5.67,1.5,1.5v20c0,.83.67,1.5,1.5,1.5h28c.83,0,1.5-.67,1.5-1.5v-.8c0-.83.67-1.5,1.5-1.5s1.5.67,1.5,1.5v.8c0,2.48-2.02,4.5-4.5,4.5Z"/><path class="cls-2" d="m37.32,12.5h-8.64c-.09,0-.27,0-.49-.05-.8-.2-1.3-1.01-1.1-1.81.18-.74.9-1.22,1.63-1.13h8.6c.82,0,1.56-.44,1.8-1.08l1.48-3.95c.29-.78,1.15-1.17,1.93-.88.78.29,1.17,1.16.88,1.93l-1.48,3.95c-.68,1.81-2.53,3.02-4.6,3.02Zm-8.42-2.97s0,0,0,0c0,0,0,0,0,0Z"/><path class="cls-2" d="m35,48.5c-.38,0-.77-.15-1.06-.44l-10.02-10.02c-.59-.59-.59-1.54,0-2.12l12-12c.59-.59,1.54-.59,2.12,0l10.02,10.02c.59.59.59,1.54,0,2.12l-12,12c-.29.29-.68.44-1.06.44Zm-7.9-11.52l7.9,7.9,9.88-9.88-7.9-7.9-9.88,9.88Z"/><path class="cls-2" d="m48.5,37.19c-.88,0-1.76-.34-2.43-1.01l-10.27-10.27c-1.34-1.34-1.34-3.53,0-4.87l1.25-1.25c1.34-1.34,3.53-1.34,4.87,0l10.27,10.27c1.34,1.34,1.34,3.53,0,4.87l-1.25,1.25c-.67.67-1.55,1.01-2.43,1.01Zm-9.02-15.41c-.11,0-.23.04-.31.13l-1.25,1.25c-.17.17-.17.45,0,.63l10.27,10.27c.17.17.45.17.63,0l1.25-1.25c.17-.17.17-.45,0-.63l-10.27-10.27c-.09-.09-.2-.13-.31-.13Z"/><path class="cls-2" d="m32.5,53.19c-.88,0-1.76-.34-2.43-1.01l-10.27-10.27c-1.34-1.34-1.34-3.53,0-4.87l1.25-1.25c1.34-1.34,3.53-1.34,4.87,0l10.27,10.27c1.34,1.34,1.34,3.53,0,4.87l-1.25,1.25c-.67.67-1.55,1.01-2.43,1.01Zm-9.02-15.41c-.11,0-.23.04-.31.13l-1.25,1.25c-.17.17-.17.45,0,.63l10.27,10.27c.17.17.45.17.63,0l1.25-1.25c.17-.17.17-.45,0-.63l-10.27-10.27c-.09-.09-.2-.13-.31-.13Z"/><path class="cls-2" d="m55.17,60.5s-.08,0-.12,0c-1.47-.03-2.82-.65-3.81-1.73l-13.44-14.67c-.56-.61-.52-1.56.09-2.12.61-.56,1.56-.52,2.12.09l13.44,14.67c.43.47,1.03.74,1.67.75.64.03,1.24-.23,1.7-.68s.7-1.06.68-1.7c-.01-.64-.28-1.23-.75-1.67l-14.66-13.44c-.61-.56-.65-1.51-.09-2.12.56-.61,1.51-.65,2.12-.09l14.66,13.44c1.08.99,1.7,2.34,1.73,3.81.03,1.47-.52,2.85-1.56,3.88-1.01,1.01-2.34,1.56-3.76,1.56Z"/><path class="cls-1" d="m17.75,3.5c-7.85,0-14.25,6.39-14.25,14.25s6.39,14.24,14.25,14.24,14.24-6.39,14.24-14.24S25.6,3.5,17.75,3.5Zm6.79,11.38l-7.73,7.84c-.28.29-.67.45-1.07.45-.03,0-.06,0-.09,0-.43-.03-.83-.24-1.1-.58l-3.72-4.84c-.5-.66-.38-1.6.28-2.1.66-.5,1.6-.38,2.1.28l2.67,3.47,6.52-6.61c.58-.59,1.53-.6,2.12-.02s.6,1.53.02,2.12Z"/></svg>