<?xml version="1.0" encoding="UTF-8"?><svg id="Dypta" xmlns="http://www.w3.org/2000/svg" viewBox="0 0 64 64"><defs><style>.cls-1{fill:#ff5f00;}.cls-2{fill:#293a4c;}</style></defs><path class="cls-2" d="m42,60.5H8c-2.48,0-4.5-2.02-4.5-4.5V12c0-2.48,2.02-4.5,4.5-4.5h8c.83,0,1.5.67,1.5,1.5s-.67,1.5-1.5,1.5h-8c-.83,0-1.5.67-1.5,1.5v44c0,.83.67,1.5,1.5,1.5h34c.83,0,1.5-.67,1.5-1.5v-24c0-.83.67-1.5,1.5-1.5s1.5.67,1.5,1.5v24c0,2.48-2.02,4.5-4.5,4.5Z"/><path class="cls-2" d="m43.04,10.7c-.19,0-.38-.04-.56-.11-.15-.06-.31-.09-.48-.09h-8c-.83,0-1.5-.67-1.5-1.5s.67-1.5,1.5-1.5h8c.56,0,1.1.1,1.6.31.77.31,1.14,1.19.83,1.95-.24.58-.8.94-1.39.94Z"/><path class="cls-2" d="m31,15.5h-12c-2.48,0-4.5-2.02-4.5-4.5v-2c0-.83.67-1.5,1.5-1.5,1.84,0,3.65-.81,4.96-2.23,1.04-1.13,2.51-1.77,4.04-1.77s3.01.65,4.04,1.77c1.31,1.42,3.11,2.23,4.96,2.23.83,0,1.5.67,1.5,1.5v2c0,2.48-2.02,4.5-4.5,4.5Zm-13.5-5.12v.62c0,.83.67,1.5,1.5,1.5h12c.83,0,1.5-.67,1.5-1.5v-.62c-2.14-.35-4.14-1.42-5.66-3.07-.96-1.04-2.72-1.04-3.68,0-1.52,1.65-3.53,2.73-5.66,3.07Z"/><path class="cls-2" d="m19,28.5h-7c-.83,0-1.5-.67-1.5-1.5v-7c0-.83.67-1.5,1.5-1.5h7c.83,0,1.5.67,1.5,1.5v7c0,.83-.67,1.5-1.5,1.5Zm-5.5-3h4v-4h-4v4Z"/><path class="cls-2" d="m19,41.5h-7c-.83,0-1.5-.67-1.5-1.5v-7c0-.83.67-1.5,1.5-1.5h7c.83,0,1.5.67,1.5,1.5v7c0,.83-.67,1.5-1.5,1.5Zm-5.5-3h4v-4h-4v4Z"/><path class="cls-2" d="m19,54.5h-7c-.83,0-1.5-.67-1.5-1.5v-7c0-.83.67-1.5,1.5-1.5h7c.83,0,1.5.67,1.5,1.5v7c0,.83-.67,1.5-1.5,1.5Zm-5.5-3h4v-4h-4v4Z"/><path class="cls-2" d="m31,21.5h-6.76c-.83,0-1.5-.67-1.5-1.5s.67-1.5,1.5-1.5h6.76c.83,0,1.5.67,1.5,1.5s-.67,1.5-1.5,1.5Z"/><path class="cls-2" d="m30,26.5h-5.76c-.83,0-1.5-.67-1.5-1.5s.67-1.5,1.5-1.5h5.76c.83,0,1.5.67,1.5,1.5s-.67,1.5-1.5,1.5Z"/><path class="cls-2" d="m38,34.5h-13.76c-.83,0-1.5-.67-1.5-1.5s.67-1.5,1.5-1.5h13.76c.83,0,1.5.67,1.5,1.5s-.67,1.5-1.5,1.5Z"/><path class="cls-2" d="m30,39.5h-5.76c-.83,0-1.5-.67-1.5-1.5s.67-1.5,1.5-1.5h5.76c.83,0,1.5.67,1.5,1.5s-.67,1.5-1.5,1.5Z"/><path class="cls-2" d="m38,47.5h-13.76c-.83,0-1.5-.67-1.5-1.5s.67-1.5,1.5-1.5h13.76c.83,0,1.5.67,1.5,1.5s-.67,1.5-1.5,1.5Z"/><path class="cls-2" d="m30,52.5h-5.76c-.83,0-1.5-.67-1.5-1.5s.67-1.5,1.5-1.5h5.76c.83,0,1.5.67,1.5,1.5s-.67,1.5-1.5,1.5Z"/><path class="cls-1" d="m59.89,20.92l-8.75-15.16c-.82-1.42-2.29-2.27-3.92-2.27s-3.1.85-3.92,2.27l-8.75,15.16c-.82,1.42-.82,3.11,0,4.53.82,1.42,2.29,2.27,3.92,2.27h17.5c1.64,0,3.1-.85,3.92-2.27.82-1.42.82-3.11,0-4.53Zm-11.17,1.21c0,.83-.67,1.5-1.5,1.5s-1.5-.67-1.5-1.5v-1c0-.83.67-1.5,1.5-1.5s1.5.67,1.5,1.5v1Zm0-6c0,.83-.67,1.5-1.5,1.5s-1.5-.67-1.5-1.5v-6c0-.83.67-1.5,1.5-1.5s1.5.67,1.5,1.5v6Z"/></svg>