<?xml version="1.0" encoding="UTF-8"?><svg id="Dypta" xmlns="http://www.w3.org/2000/svg" viewBox="0 0 64 64"><defs><style>.cls-1{fill:#ff5f00;}.cls-2{fill:#293a4c;}</style></defs><path class="cls-2" d="m50,50.5H8c-2.48,0-4.5-2.02-4.5-4.5V14c0-2.48,2.02-4.5,4.5-4.5h27.44c.83,0,1.5.67,1.5,1.5s-.67,1.5-1.5,1.5H8c-.83,0-1.5.67-1.5,1.5v32c0,.83.67,1.5,1.5,1.5h42c.83,0,1.5-.67,1.5-1.5v-11c0-.83.67-1.5,1.5-1.5s1.5.67,1.5,1.5v11c0,2.48-2.02,4.5-4.5,4.5Z"/><path class="cls-2" d="m37,60.5h-16c-.45,0-.88-.2-1.16-.55-.28-.35-.4-.8-.31-1.25l2-10c.14-.7.76-1.21,1.47-1.21h12c.71,0,1.33.5,1.47,1.21l2,10c.09.44-.03.9-.31,1.25-.29.35-.71.55-1.16.55Zm-14.17-3h12.34l-1.4-7h-9.54l-1.4,7Z"/><path class="cls-2" d="m43,60.5H15c-.83,0-1.5-.67-1.5-1.5s.67-1.5,1.5-1.5h28c.83,0,1.5.67,1.5,1.5s-.67,1.5-1.5,1.5Z"/><path class="cls-2" d="m19,38.5h-6c-.83,0-1.5-.67-1.5-1.5v-18c0-.83.67-1.5,1.5-1.5h6c.83,0,1.5.67,1.5,1.5v18c0,.83-.67,1.5-1.5,1.5Zm-4.5-3h3v-15h-3v15Z"/><path class="cls-2" d="m16,20.5c-.83,0-1.5-.67-1.5-1.5V5c0-.83.67-1.5,1.5-1.5s1.5.67,1.5,1.5v14c0,.83-.67,1.5-1.5,1.5Z"/><path class="cls-2" d="m16,44.5c-.83,0-1.5-.67-1.5-1.5v-6c0-.83.67-1.5,1.5-1.5s1.5.67,1.5,1.5v6c0,.83-.67,1.5-1.5,1.5Z"/><path class="cls-2" d="m32,42.5h-6c-.83,0-1.5-.67-1.5-1.5v-12c0-.83.67-1.5,1.5-1.5h6c.83,0,1.5.67,1.5,1.5v12c0,.83-.67,1.5-1.5,1.5Zm-4.5-3h3v-9h-3v9Z"/><path class="cls-2" d="m29,30.5c-.83,0-1.5-.67-1.5-1.5v-6c0-.83.67-1.5,1.5-1.5s1.5.67,1.5,1.5v6c0,.83-.67,1.5-1.5,1.5Z"/><path class="cls-2" d="m29,50.5c-.83,0-1.5-.67-1.5-1.5v-8c0-.83.67-1.5,1.5-1.5s1.5.67,1.5,1.5v8c0,.83-.67,1.5-1.5,1.5Z"/><path class="cls-2" d="m45,42.5h-6c-.83,0-1.5-.67-1.5-1.5v-12.78c0-.83.67-1.5,1.5-1.5s1.5.67,1.5,1.5v11.28h3v-9.08c0-.83.67-1.5,1.5-1.5s1.5.67,1.5,1.5v10.58c0,.83-.67,1.5-1.5,1.5Z"/><path class="cls-2" d="m42,54.5c-.83,0-1.5-.67-1.5-1.5v-12c0-.83.67-1.5,1.5-1.5s1.5.67,1.5,1.5v12c0,.83-.67,1.5-1.5,1.5Z"/><path class="cls-1" d="m46.26,3.5c-7.85,0-14.24,6.39-14.24,14.25s6.39,14.24,14.24,14.24,14.24-6.39,14.24-14.24-6.39-14.25-14.24-14.25Zm4.5,17.08c0,1.82-1.26,3.36-3,3.94v1.23c0,.83-.67,1.5-1.5,1.5s-1.5-.67-1.5-1.5v-1.25c-1.05-.39-1.91-1.17-2.33-2.19-.31-.77.06-1.64.82-1.96.77-.31,1.64.06,1.95.82.14.35.57.6,1.05.6.81,0,1.5-.55,1.5-1.2v-.13c0-.85-1.74-1.22-1.75-1.22-1.57-.26-4.25-1.44-4.25-4.18v-.13c0-1.82,1.26-3.36,3-3.94v-1.23c0-.83.67-1.5,1.5-1.5s1.5.67,1.5,1.5v1.25c1.05.39,1.91,1.17,2.33,2.19.31.77-.06,1.64-.82,1.96-.77.31-1.64-.06-1.95-.82-.14-.35-.57-.6-1.05-.6-.81,0-1.5.55-1.5,1.2v.13c0,.85,1.74,1.22,1.75,1.22,1.57.26,4.25,1.44,4.25,4.18v.13Z"/></svg>