<?xml version="1.0" encoding="UTF-8"?><svg id="Dypta" xmlns="http://www.w3.org/2000/svg" viewBox="0 0 64 64"><defs><style>.cls-1{fill:#ff5f00;}.cls-2{fill:#293a4c;}</style></defs><path class="cls-2" d="m20,40.5h-3.06c-7.41,0-13.44-6.15-13.44-13.72s6.03-13.72,13.44-13.72c.37,0,.75.02,1.13.05,2.26-5.8,7.71-9.61,13.93-9.61,4.46,0,8.7,2.06,11.54,5.55.64-.16,1.3-.24,1.96-.24,4.55,0,8.25,3.77,8.25,8.41,0,.07,0,.15,0,.22,4.08,2,6.75,6.25,6.75,10.93,0,6.05-4.43,11.22-10.3,12.02-.83.12-1.58-.46-1.69-1.28-.11-.82.46-1.58,1.28-1.69,4.39-.6,7.7-4.49,7.7-9.05,0-3.83-2.36-7.27-5.87-8.57-.67-.25-1.07-.93-.96-1.64.05-.35.08-.66.08-.94,0-2.98-2.36-5.41-5.25-5.41-.66,0-1.31.13-1.94.39-.65.27-1.4.05-1.8-.53-2.26-3.24-5.91-5.17-9.76-5.17-5.31,0-9.92,3.5-11.47,8.7-.22.73-.96,1.19-1.71,1.04-.67-.12-1.28-.18-1.88-.18-5.76,0-10.44,4.81-10.44,10.72s4.68,10.72,10.44,10.72h3.06c.83,0,1.5.67,1.5,1.5s-.67,1.5-1.5,1.5Z"/><path class="cls-2" d="m25,19c-.83,0-1.5-.67-1.5-1.5,0-4.41,3.59-8,8-8,.83,0,1.5.67,1.5,1.5s-.67,1.5-1.5,1.5c-2.76,0-5,2.24-5,5,0,.83-.67,1.5-1.5,1.5Z"/><path class="cls-1" d="m44,30.5h-24c-.83,0-1.5.67-1.5,1.5v27c0,.52.27,1,.71,1.28.44.27.99.3,1.46.07l5.33-2.67,5.33,2.67c.42.21.92.21,1.34,0l5.33-2.67,5.33,2.67c.21.11.44.16.67.16.27,0,.55-.08.79-.22.44-.27.71-.76.71-1.28v-27c0-.83-.67-1.5-1.5-1.5Zm-7.5,17.33c0,1.82-1.26,3.36-3,3.94v1.23c0,.83-.67,1.5-1.5,1.5s-1.5-.67-1.5-1.5v-1.25c-1.05-.39-1.91-1.17-2.33-2.19-.31-.77.06-1.64.83-1.95.77-.31,1.64.06,1.95.83.14.35.57.6,1.05.6.81,0,1.5-.55,1.5-1.2v-.13c0-.85-1.74-1.22-1.75-1.22-1.57-.26-4.25-1.44-4.25-4.18v-.13c0-1.82,1.26-3.36,3-3.94v-1.23c0-.83.67-1.5,1.5-1.5s1.5.67,1.5,1.5v1.25c1.05.39,1.91,1.17,2.33,2.19.31.77-.06,1.64-.83,1.95-.77.31-1.64-.06-1.95-.83-.14-.35-.57-.6-1.05-.6-.81,0-1.5.55-1.5,1.2v.13c0,.85,1.74,1.22,1.75,1.22,1.57.26,4.25,1.44,4.25,4.18v.13Z"/></svg>