<?xml version="1.0" encoding="UTF-8"?><svg id="Dypta" xmlns="http://www.w3.org/2000/svg" viewBox="0 0 64 64"><defs><style>.cls-1{fill:#ff5f00;}.cls-2{fill:#293a4c;}</style></defs><path class="cls-2" d="m32,43.5c-.83,0-1.5-.67-1.5-1.5v-12c0-.83.67-1.5,1.5-1.5s1.5.67,1.5,1.5v12c0,.83-.67,1.5-1.5,1.5Z"/><path class="cls-2" d="m53,50.5H11c-2.48,0-4.5-2.02-4.5-4.5V14c0-2.48,2.02-4.5,4.5-4.5h10.18c.83,0,1.5.67,1.5,1.5s-.67,1.5-1.5,1.5h-10.18c-.83,0-1.5.67-1.5,1.5v32c0,.83.67,1.5,1.5,1.5h42c.83,0,1.5-.67,1.5-1.5V14c0-.83-.67-1.5-1.5-1.5h-4c-.83,0-1.5-.67-1.5-1.5s.67-1.5,1.5-1.5h4c2.48,0,4.5,2.02,4.5,4.5v32c0,2.48-2.02,4.5-4.5,4.5Z"/><path class="cls-2" d="m40,60.5h-16c-.45,0-.88-.2-1.16-.55-.28-.35-.4-.8-.31-1.25l2-10c.14-.7.76-1.21,1.47-1.21h12c.71,0,1.33.5,1.47,1.21l2,10c.09.44-.03.9-.31,1.25-.29.35-.71.55-1.16.55Zm-14.17-3h12.34l-1.4-7h-9.54l-1.4,7Z"/><path class="cls-2" d="m46,60.5h-28c-.83,0-1.5-.67-1.5-1.5s.67-1.5,1.5-1.5h28c.83,0,1.5.67,1.5,1.5s-.67,1.5-1.5,1.5Z"/><path class="cls-2" d="m56,43.5H8c-.83,0-1.5-.67-1.5-1.5s.67-1.5,1.5-1.5h48c.83,0,1.5.67,1.5,1.5s-.67,1.5-1.5,1.5Z"/><path class="cls-2" d="m33,43.5c-.71,0-1.31-.5-1.46-1.16-.04-.01-.07-.03-.11-.04-.76-.32-1.13-1.19-.82-1.95.04-.11,4.61-10.88,16.68-8.5.4.08.75.32.97.66s.29.76.2,1.15c-.02.1-2.42,9.85-15.46,9.85Zm10.93-9c-5.86,0-8.91,4.04-10.03,5.98,6.97-.28,9.88-3.82,11-5.94-.33-.02-.66-.04-.97-.04Z"/><path class="cls-2" d="m31,43.5c-13.04,0-15.44-9.75-15.46-9.85-.09-.4-.02-.81.2-1.15s.57-.58.97-.66c12.07-2.38,16.63,8.39,16.68,8.5.31.77-.05,1.64-.82,1.96-.04.01-.07.03-.11.04-.15.66-.75,1.16-1.46,1.16Zm-11.9-8.96c1.12,2.12,4.03,5.66,11,5.94-1.18-2.04-4.5-6.41-11-5.94Z"/><path class="cls-1" d="m32,3.5c-7.85,0-14.24,6.39-14.24,14.24s6.39,14.24,14.24,14.24,14.24-6.39,14.24-14.24-6.39-14.24-14.24-14.24Zm4.5,17.08c0,1.82-1.26,3.36-3,3.94v1.23c0,.83-.67,1.5-1.5,1.5s-1.5-.67-1.5-1.5v-1.25c-1.05-.39-1.91-1.17-2.33-2.19-.31-.77.06-1.64.82-1.95.77-.31,1.64.06,1.95.82.14.35.57.6,1.05.6.81,0,1.5-.55,1.5-1.2v-.13c0-.85-1.74-1.22-1.75-1.22-1.57-.26-4.25-1.44-4.25-4.18v-.13c0-1.82,1.26-3.36,3-3.94v-1.23c0-.83.67-1.5,1.5-1.5s1.5.67,1.5,1.5v1.25c1.05.39,1.91,1.17,2.33,2.19.31.77-.06,1.64-.82,1.95-.77.31-1.64-.06-1.95-.82-.14-.35-.57-.6-1.05-.6-.81,0-1.5.55-1.5,1.2v.13c0,.85,1.74,1.22,1.75,1.22,1.57.26,4.25,1.44,4.25,4.18v.13Z"/></svg>