<?xml version="1.0" encoding="UTF-8"?>
<svg xmlns="http://www.w3.org/2000/svg" version="1.1" viewBox="0 0 48 48">
  <!-- Generator: Adobe Illustrator 28.7.1, SVG Export Plug-In . SVG Version: 1.2.0 Build 142)  -->
  <g>
    <g id="OUTLINE">
      <g>
        <path d="M42,27h-6c-.54999,0-1,.45001-1,1v2h-3v-4h1c.54999,0,1-.45001,1-1v-7c0-.54999-.45001-1-1-1s-1,.45001-1,1v6h-16v-11h5c.54999,0,1-.45001,1-1v-5h10v3c0,.54999.45001,1,1,1s1-.45001,1-1v-4c0-.54999-.45001-1-1-1h-12c-.27002,0-.52002.10999-.71002.28998l-6,6c-.17999.19-.28998.44-.28998.71002v13c0,.54999.45001,1,1,1h1v4h-3v-2c0-.54999-.45001-1-1-1h-6c-.54999,0-1,.45001-1,1v6c0,.54999.45001,1,1,1h6c.54999,0,1-.45001,1-1v-2h4c.54999,0,1-.45001,1-1v-5h5v8h-4c-.54999,0-1,.45001-1,1v2.17999c-1.15997.41998-2,1.52002-2,2.82001,0,1.64996,1.34998,3,3,3s3-1.35004,3-3c0-1.29999-.84003-2.40002-2-2.82001v-1.17999h8v1.17999c-1.15997.41998-2,1.52002-2,2.82001,0,1.64996,1.34998,3,3,3s3-1.35004,3-3c0-1.29999-.84003-2.40002-2-2.82001v-2.17999c0-.54999-.45001-1-1-1h-4v-8h5v5c0,.54999.45001,1,1,1h4v2c0,.54999.45001,1,1,1h6c.54999,0,1-.45001,1-1v-6c0-.54999-.45001-1-1-1ZM20,8.40997v2.59003h-2.59003l2.59003-2.59003ZM11,33h-4v-4h4v4ZM19,41c-.54999,0-1-.45001-1-1s.45001-1,1-1,1,.45001,1,1-.45001,1-1,1ZM29,39c.54999,0,1,.45001,1,1s-.45001,1-1,1-1-.45001-1-1,.45001-1,1-1ZM41,33h-4v-4h4v4Z"/>
        <path d="M26,17c.55273,0,1-.44775,1-1s-.44727-1-1-1h-4c-.55273,0-1,.44775-1,1s.44727,1,1,1h4Z"/>
        <path d="M19,20c0,.55225.44727,1,1,1h8c.55273,0,1-.44775,1-1s-.44727-1-1-1h-8c-.55273,0-1,.44775-1,1Z"/>
        <circle cx="33" cy="14" r="1"/>
      </g>
    </g>
  </g>
</svg>