<?xml version="1.0" encoding="UTF-8" standalone="no"?>
<!DOCTYPE svg PUBLIC "-//W3C//DTD SVG 1.1//EN" "http://www.w3.org/Graphics/SVG/1.1/DTD/svg11.dtd">
<svg width="100%" height="100%" viewBox="0 0 48 48" version="1.1" xmlns="http://www.w3.org/2000/svg" xmlns:xlink="http://www.w3.org/1999/xlink" xml:space="preserve" xmlns:serif="http://www.serif.com/" style="fill-rule:evenodd;clip-rule:evenodd;stroke-linejoin:round;stroke-miterlimit:2;">
    <g transform="matrix(1,0,0,1,-10,-10)">
        <g id="DesignHere">
            <path d="M13,14L13,54C13,54.552 13.448,55 14,55L54,55C54.552,55 55,54.552 55,54C55,53.448 54.552,53 54,53L15,53C15,53 15,14 15,14C15,13.448 14.552,13 14,13C13.448,13 13,13.448 13,14ZM25,36C25,35.448 24.552,35 24,35L18,35C17.448,35 17,35.448 17,36L17,50C17,50.552 17.448,51 18,51L24,51C24.552,51 25,50.552 25,50L25,36ZM55,18C55,17.448 54.552,17 54,17L48,17C47.448,17 47,17.448 47,18L47,50C47,50.552 47.448,51 48,51L54,51C54.552,51 55,50.552 55,50L55,18ZM35,30C35,29.448 34.552,29 34,29L28,29C27.448,29 27,29.448 27,30L27,50C27,50.552 27.448,51 28,51L34,51C34.552,51 35,50.552 35,50L35,30ZM45,24C45,23.448 44.552,23 44,23L38,23C37.448,23 37,23.448 37,24L37,50C37,50.552 37.448,51 38,51L44,51C44.552,51 45,50.552 45,50L45,24ZM23,37L23,49C23,49 19,49 19,49C19,49 19,37 19,37L23,37ZM53,19L53,49C53,49 49,49 49,49C49,49 49,19 49,19L53,19ZM33,31L33,49C33,49 29,49 29,49C29,49 29,31 29,31L33,31ZM43,25L43,49C43,49 39,49 39,49C39,49 39,25 39,25L43,25Z"/>
        </g>
    </g>
</svg>
