<?xml version="1.0" encoding="UTF-8" standalone="no"?>
<!DOCTYPE svg PUBLIC "-//W3C//DTD SVG 1.1//EN" "http://www.w3.org/Graphics/SVG/1.1/DTD/svg11.dtd">
<svg width="100%" height="100%" viewBox="0 0 48 48" version="1.1" xmlns="http://www.w3.org/2000/svg" xmlns:xlink="http://www.w3.org/1999/xlink" xml:space="preserve" xmlns:serif="http://www.serif.com/" style="fill-rule:evenodd;clip-rule:evenodd;stroke-linejoin:round;stroke-miterlimit:2;">
    <g transform="matrix(1,0,0,1,-282,-78)">
        <g id="DesignHere">
            <path d="M305,95L305,98L286,98C285.448,98 285,98.448 285,99L285,111C285,111.552 285.448,112 286,112L305,112L305,117.171C303.835,117.583 303,118.695 303,120C303,121.656 304.344,123 306,123C307.656,123 309,121.656 309,120C309,118.695 308.165,117.583 307,117.171L307,112L326,112C326.552,112 327,111.552 327,111L327,99C327,98.448 326.552,98 326,98L307,98L307,95L326,95C326.552,95 327,94.552 327,94L327,82C327,81.448 326.552,81 326,81L286,81C285.448,81 285,81.448 285,82L285,94C285,94.552 285.448,95 286,95L305,95ZM306,119C306.552,119 307,119.448 307,120C307,120.552 306.552,121 306,121C305.448,121 305,120.552 305,120C305,119.448 305.448,119 306,119ZM287,100L325,100L325,110L287,110C287,110 287,100 287,100ZM291,103L291,107C291,107.552 291.448,108 292,108C292.552,108 293,107.552 293,107L293,103C293,102.448 292.552,102 292,102C291.448,102 291,102.448 291,103ZM295,103L295,107C295,107.552 295.448,108 296,108C296.552,108 297,107.552 297,107L297,103C297,102.448 296.552,102 296,102C295.448,102 295,102.448 295,103ZM299,103L299,107C299,107.552 299.448,108 300,108C300.552,108 301,107.552 301,107L301,103C301,102.448 300.552,102 300,102C299.448,102 299,102.448 299,103ZM303,103L303,107C303,107.552 303.448,108 304,108C304.552,108 305,107.552 305,107L305,103C305,102.448 304.552,102 304,102C303.448,102 303,102.448 303,103ZM318,102C316.344,102 315,103.344 315,105C315,106.656 316.344,108 318,108C319.656,108 321,106.656 321,105C321,103.344 319.656,102 318,102ZM311,102C309.344,102 308,103.344 308,105C308,106.656 309.344,108 311,108C312.656,108 314,106.656 314,105C314,103.344 312.656,102 311,102ZM318,104C318.552,104 319,104.448 319,105C319,105.552 318.552,106 318,106C317.448,106 317,105.552 317,105C317,104.448 317.448,104 318,104ZM311,104C311.552,104 312,104.448 312,105C312,105.552 311.552,106 311,106C310.448,106 310,105.552 310,105C310,104.448 310.448,104 311,104ZM325,93L287,93C287,93 287,83 287,83L325,83L325,93ZM291,86L291,90C291,90.552 291.448,91 292,91C292.552,91 293,90.552 293,90L293,86C293,85.448 292.552,85 292,85C291.448,85 291,85.448 291,86ZM295,86L295,90C295,90.552 295.448,91 296,91C296.552,91 297,90.552 297,90L297,86C297,85.448 296.552,85 296,85C295.448,85 295,85.448 295,86ZM299,86L299,90C299,90.552 299.448,91 300,91C300.552,91 301,90.552 301,90L301,86C301,85.448 300.552,85 300,85C299.448,85 299,85.448 299,86ZM303,86L303,90C303,90.552 303.448,91 304,91C304.552,91 305,90.552 305,90L305,86C305,85.448 304.552,85 304,85C303.448,85 303,85.448 303,86ZM318,85C316.344,85 315,86.344 315,88C315,89.656 316.344,91 318,91C319.656,91 321,89.656 321,88C321,86.344 319.656,85 318,85ZM311,85C309.344,85 308,86.344 308,88C308,89.656 309.344,91 311,91C312.656,91 314,89.656 314,88C314,86.344 312.656,85 311,85ZM318,87C318.552,87 319,87.448 319,88C319,88.552 318.552,89 318,89C317.448,89 317,88.552 317,88C317,87.448 317.448,87 318,87ZM311,87C311.552,87 312,87.448 312,88C312,88.552 311.552,89 311,89C310.448,89 310,88.552 310,88C310,87.448 310.448,87 311,87Z"/>
        </g>
    </g>
</svg>
