<?xml version="1.0" encoding="UTF-8" standalone="no"?>
<!DOCTYPE svg PUBLIC "-//W3C//DTD SVG 1.1//EN" "http://www.w3.org/Graphics/SVG/1.1/DTD/svg11.dtd">
<svg width="100%" height="100%" viewBox="0 0 48 48" version="1.1" xmlns="http://www.w3.org/2000/svg" xmlns:xlink="http://www.w3.org/1999/xlink" xml:space="preserve" xmlns:serif="http://www.serif.com/" style="fill-rule:evenodd;clip-rule:evenodd;stroke-linejoin:round;stroke-miterlimit:2;">
    <g transform="matrix(1,0,0,1,-10,-146)">
        <g id="DesignHere">
            <path d="M13.572,159.096C13.515,159.123 13.46,159.156 13.409,159.193C13.331,159.251 13.262,159.318 13.205,159.394L13.2,159.4C13.097,159.537 13.028,159.702 13.007,159.882L13.006,159.888C13.002,159.929 12.999,159.971 13,160.013L13,164C13,164.552 13.448,165 14,165L14,168C14,168.552 14.448,169 15,169L15,183L14,183C13.448,183 13,183.448 13,184L13,188C13,188.552 13.448,189 14,189L54,189C54.552,189 55,188.552 55,188L55,184C55,183.448 54.552,183 54,183L53,183L53,169C53.552,169 54,168.552 54,168L54,165C54.552,165 55,164.552 55,164L55,160.013C55.001,159.971 54.998,159.929 54.994,159.888L54.993,159.882C54.972,159.702 54.903,159.537 54.8,159.4L54.795,159.394C54.738,159.318 54.669,159.251 54.591,159.193C54.54,159.156 54.485,159.123 54.428,159.096L34.447,149.106C34.166,148.965 33.834,148.965 33.553,149.106L13.572,159.096ZM15.997,185L15,185C15,185 15,187 15,187C15,187 53,187 53,187L53,185L52.002,185L52,185L48,185L47.997,185L20.003,185L20,185L16,185L15.997,185ZM46,165L22,165L22,168C22,168.552 21.552,169 21,169L21,183L47,183L47,169C46.448,169 46,168.552 46,168L46,165ZM19,169L19,183C19,183 17,183 17,183C17,183 17,169 17,169L17.433,169L19,169ZM51,169L51,183C51,183 49,183 49,183C49,183 49,169 49,169L49.433,169L51,169ZM34,173.5C33.207,173.5 32.562,172.856 32.562,172.062C32.562,171.269 33.207,170.625 34,170.625C34.793,170.625 35.437,171.269 35.437,172.062C35.437,172.614 35.886,173.062 36.437,173.062C36.989,173.062 37.437,172.614 37.437,172.062C37.437,170.513 36.41,169.202 35,168.773L35,168C35,167.448 34.552,167 34,167C33.448,167 33,167.448 33,168L33,168.773C31.59,169.202 30.562,170.513 30.562,172.062C30.562,173.96 32.103,175.5 34,175.5C34.793,175.5 35.438,176.144 35.438,176.938C35.438,177.731 34.793,178.375 34,178.375C33.207,178.375 32.563,177.731 32.563,176.938L33,180.227L33,181C33,181.552 33.448,182 34,182C34.552,182 35,181.552 35,181L35,180.227L35.002,180.227C35.311,180.132 35.607,179.994 35.878,179.816C36.299,179.541 36.658,179.173 36.923,178.746C37.126,178.419 37.273,178.058 37.356,177.682C37.437,177.32 37.457,176.944 37.419,176.575C37.381,176.212 37.284,175.856 37.134,175.523C36.961,175.143 36.719,174.795 36.423,174.5C36.114,174.193 35.748,173.945 35.347,173.774C35.084,173.662 34.806,173.583 34.523,173.54C34.35,173.513 34.175,173.5 34,173.5ZM52,167L52,165L48,165L48,167L52,167ZM20,167L20,165L16,165L16,167L20,167ZM53,163L53,161L15,161L15,163L21,163L21,163L46.998,163L47,163L53,163ZM34,151.118L49.764,159C49.764,159 18.236,159 18.236,159L34,151.118Z"/>
        </g>
    </g>
</svg>
