<?xml version="1.0" encoding="UTF-8" standalone="no"?>
<!DOCTYPE svg PUBLIC "-//W3C//DTD SVG 1.1//EN" "http://www.w3.org/Graphics/SVG/1.1/DTD/svg11.dtd">
<svg width="100%" height="100%" viewBox="0 0 48 48" version="1.1" xmlns="http://www.w3.org/2000/svg" xmlns:xlink="http://www.w3.org/1999/xlink" xml:space="preserve" xmlns:serif="http://www.serif.com/" style="fill-rule:evenodd;clip-rule:evenodd;stroke-linejoin:round;stroke-miterlimit:2;">
    <g transform="matrix(1,0,0,1,-78,-146)">
        <g id="DesignHere">
            <path d="M107,186L107,180L122,180C122.552,180 123,179.552 123,179L123,153C123,152.448 122.552,152 122,152L82,152C81.448,152 81,152.448 81,153L81,179C81,179.552 81.448,180 82,180L97,180L97,186L92,186C91.448,186 91,186.448 91,187C91,187.552 91.448,188 92,188L112,188C112.552,188 113,187.552 113,187C113,186.448 112.552,186 112,186L107,186ZM105,180L105,186C105,186 99,186 99,186C99,186 99,180 99,180L103.488,180L105,180ZM121,154L121,178C121,178 83,178 83,178C83,178 83,154 83,154L121,154ZM117,174L117,158C117,157.448 116.552,157 116,157L110,157C109.448,157 109,157.448 109,158L109,174L106,174L106,161C106,160.448 105.552,160 105,160L99,160C98.448,160 98,160.448 98,161L98,174L95,174L95,166C95,165.448 94.552,165 94,165L88,165C87.448,165 87,165.448 87,166L87,174L85,174C84.448,174 84,174.448 84,175C84,175.552 84.448,176 85,176L119,176C119.552,176 120,175.552 120,175C120,174.448 119.552,174 119,174L117,174ZM93,174L89,174C89,174 89,167 89,167L93,167L93,174ZM104,174L100,174L100,162L104,162L104,174ZM115,174L111,174C111,174 111,159 111,159L115,159L115,174Z"/>
        </g>
    </g>
</svg>
