<?xml version="1.0" encoding="UTF-8" standalone="no"?>
<!DOCTYPE svg PUBLIC "-//W3C//DTD SVG 1.1//EN" "http://www.w3.org/Graphics/SVG/1.1/DTD/svg11.dtd">
<svg width="100%" height="100%" viewBox="0 0 48 48" version="1.1" xmlns="http://www.w3.org/2000/svg" xmlns:xlink="http://www.w3.org/1999/xlink" xml:space="preserve" xmlns:serif="http://www.serif.com/" style="fill-rule:evenodd;clip-rule:evenodd;stroke-linejoin:round;stroke-miterlimit:2;">
    <g transform="matrix(1,0,0,1,-146,-146)">
        <g id="DesignHere">
            <path d="M178.952,188.999C179.118,189.007 179.288,188.974 179.447,188.894C179.607,188.815 179.736,188.698 179.829,188.559C186.472,185.031 191,178.04 191,170C191,158.41 181.59,149 170,149C158.41,149 149,158.41 149,170C149,181.59 158.41,191 170,191C173.201,191 176.236,190.282 178.952,188.999ZM155.879,157.293L169.178,170.592L177.592,187.42C175.266,188.436 172.698,189 170,189C159.514,189 151,180.486 151,170C151,165.116 152.846,160.661 155.879,157.293ZM188.974,171C188.628,177.655 184.851,183.409 179.38,186.524L171.618,171L188.974,171ZM184.121,157.293C186.945,160.428 188.741,164.509 188.974,169L172.414,169L184.121,157.293ZM182.707,155.879L170,168.586L157.293,155.879C160.661,152.846 165.116,151 170,151C174.884,151 179.339,152.846 182.707,155.879Z"/>
        </g>
    </g>
</svg>
