<?xml version="1.0" encoding="UTF-8" standalone="no"?>
<!DOCTYPE svg PUBLIC "-//W3C//DTD SVG 1.1//EN" "http://www.w3.org/Graphics/SVG/1.1/DTD/svg11.dtd">
<svg width="100%" height="100%" viewBox="0 0 48 48" version="1.1" xmlns="http://www.w3.org/2000/svg" xmlns:xlink="http://www.w3.org/1999/xlink" xml:space="preserve" xmlns:serif="http://www.serif.com/" style="fill-rule:evenodd;clip-rule:evenodd;stroke-linejoin:round;stroke-miterlimit:2;">
    <g transform="matrix(1,0,0,1,-214,-146)">
        <g id="DesignHere">
            <path d="M243,149L224,149C223.448,149 223,149.448 223,150L223,190C223,190.552 223.448,191 224,191L252,191C252.552,191 253,190.552 253,190L253,158C253,157.714 252.878,157.442 252.664,157.253L243.664,149.253C243.616,149.209 243.563,149.171 243.508,149.139C243.365,149.054 243.2,149.004 243.023,149L243,149ZM242,151L225,151C225,151 225,189 225,189C225,189 251,189 251,189L251,159C251,159 243,159 243,159C242.448,159 242,158.552 242,158L242,151ZM245.182,179L241.727,179L241.727,167.727C241.727,167.175 241.279,166.727 240.727,166.727C240.175,166.727 239.727,167.175 239.727,167.727L239.727,179L236.273,179L236.273,170.455C236.273,169.903 235.825,169.455 235.273,169.455C234.721,169.455 234.273,169.903 234.273,170.455L234.273,179L230.818,179L230.818,173.182C230.818,172.63 230.37,172.182 229.818,172.182C229.266,172.182 228.818,172.63 228.818,173.182L228.818,179L228.455,179C227.903,179 227.455,179.448 227.455,180C227.455,180.552 227.903,181 228.455,181L247.545,181C248.097,181 248.545,180.552 248.545,180C248.545,179.448 248.097,179 247.545,179L247.182,179L247.182,165C247.182,164.448 246.734,164 246.182,164C245.63,164 245.182,164.448 245.182,165L245.182,179ZM249.37,157L244,152.227L244,157L249.37,157Z"/>
        </g>
    </g>
</svg>
