<?xml version="1.0" encoding="UTF-8" standalone="no"?>
<!DOCTYPE svg PUBLIC "-//W3C//DTD SVG 1.1//EN" "http://www.w3.org/Graphics/SVG/1.1/DTD/svg11.dtd">
<svg width="100%" height="100%" viewBox="0 0 48 48" version="1.1" xmlns="http://www.w3.org/2000/svg" xmlns:xlink="http://www.w3.org/1999/xlink" xml:space="preserve" xmlns:serif="http://www.serif.com/" style="fill-rule:evenodd;clip-rule:evenodd;stroke-linejoin:round;stroke-miterlimit:2;">
    <g transform="matrix(1,0,0,1,-282,-146)">
        <g id="DesignHere">
            <path d="M311.508,149.139C311.372,149.058 311.214,149.009 311.046,149.001L311.023,149L311,149L292,149C291.448,149 291,149.448 291,150L291,190C291,190.552 291.448,191 292,191L320,191C320.552,191 321,190.552 321,190L321,158C321,157.714 320.878,157.442 320.664,157.253L311.664,149.253C311.616,149.209 311.563,149.171 311.508,149.139ZM310,151L293,151C293,151 293,189 293,189C293,189 319,189 319,189L319,159C319,159 311,159 311,159C310.448,159 310,158.552 310,158L310,151ZM307.304,175.718L312.293,180.707C312.683,181.097 313.317,181.097 313.707,180.707C314.097,180.317 314.097,179.683 313.707,179.293L308.718,174.304C309.4,173.342 309.8,172.167 309.8,170.9C309.8,167.644 307.156,165 303.9,165C300.644,165 298,167.644 298,170.9C298,174.156 300.644,176.8 303.9,176.8C305.167,176.8 306.342,176.4 307.304,175.718ZM303.9,167C306.052,167 307.8,168.748 307.8,170.9C307.8,173.052 306.052,174.8 303.9,174.8C301.748,174.8 300,173.052 300,170.9C300,168.748 301.748,167 303.9,167ZM312,157L317.37,157L312,152.227L312,157Z"/>
        </g>
    </g>
</svg>
