<?xml version="1.0" encoding="UTF-8" standalone="no"?>
<!DOCTYPE svg PUBLIC "-//W3C//DTD SVG 1.1//EN" "http://www.w3.org/Graphics/SVG/1.1/DTD/svg11.dtd">
<svg width="100%" height="100%" viewBox="0 0 48 48" version="1.1" xmlns="http://www.w3.org/2000/svg" xmlns:xlink="http://www.w3.org/1999/xlink" xml:space="preserve" xmlns:serif="http://www.serif.com/" style="fill-rule:evenodd;clip-rule:evenodd;stroke-linejoin:round;stroke-miterlimit:2;">
    <g transform="matrix(1,0,0,1,-10,-214)">
        <g id="DesignHere">
            <path d="M39,217L20,217C19.448,217 19,217.448 19,218L19,258C19,258.552 19.448,259 20,259L48,259C48.552,259 49,258.552 49,258L49,226C49,225.714 48.878,225.442 48.664,225.253L39.664,217.253C39.616,217.209 39.563,217.171 39.508,217.139C39.365,217.054 39.2,217.004 39.023,217L39,217ZM38,219L21,219C21,219 21,257 21,257C21,257 47,257 47,257L47,227C47,227 39,227 39,227C38.448,227 38,226.552 38,226L38,219ZM37.731,250.192C37.838,250.178 37.945,250.146 38.047,250.094C38.15,250.043 38.241,249.976 38.317,249.898C41.107,248.368 43,245.404 43,242C43,237.033 38.967,233 34,233C29.033,233 25,237.033 25,242C25,246.967 29.033,251 34,251C35.33,251 36.593,250.711 37.731,250.192ZM28.395,237.809L33.178,242.592L36.205,248.645C35.511,248.875 34.77,249 34,249C30.137,249 27,245.863 27,242C27,240.429 27.519,238.978 28.395,237.809ZM40.929,243C40.648,244.963 39.55,246.664 37.993,247.749L35.618,243L40.929,243ZM39.605,237.809C40.292,238.725 40.759,239.815 40.929,241L36.414,241L39.605,237.809ZM38.191,236.395L34,240.586L29.809,236.395C30.978,235.519 32.429,235 34,235C35.571,235 37.022,235.519 38.191,236.395ZM40,225L45.37,225L40,220.227L40,225Z"/>
        </g>
    </g>
</svg>
