<?xml version="1.0" encoding="UTF-8" standalone="no"?>
<!DOCTYPE svg PUBLIC "-//W3C//DTD SVG 1.1//EN" "http://www.w3.org/Graphics/SVG/1.1/DTD/svg11.dtd">
<svg width="100%" height="100%" viewBox="0 0 48 48" version="1.1" xmlns="http://www.w3.org/2000/svg" xmlns:xlink="http://www.w3.org/1999/xlink" xml:space="preserve" xmlns:serif="http://www.serif.com/" style="fill-rule:evenodd;clip-rule:evenodd;stroke-linejoin:round;stroke-miterlimit:2;">
    <g transform="matrix(1,0,0,1,-78,-214)">
        <g id="DesignHere">
            <path d="M83,226L83,247C83,247.552 83.448,248 84,248L100.382,248L97.106,254.553C96.859,255.046 97.059,255.648 97.553,255.894C98.046,256.141 98.648,255.941 98.894,255.447L101,251.236L101,255C101,255.552 101.448,256 102,256C102.552,256 103,255.552 103,255L103,251.236L105.106,255.447C105.352,255.941 105.954,256.141 106.447,255.894C106.941,255.648 107.141,255.046 106.894,254.553L103.618,248L120,248C120.552,248 121,247.552 121,247L121,226L122,226C122.552,226 123,225.552 123,225L123,221C123,220.448 122.552,220 122,220L82,220C81.448,220 81,220.448 81,221L81,225C81,225.552 81.448,226 82,226L83,226ZM119,226L85,226L85,246L102,246L119,246L119,226ZM107,240.5L105,240.5L105,232.5C105,231.948 104.552,231.5 104,231.5C103.448,231.5 103,231.948 103,232.5L103,240.5L101,240.5L101,234.5C101,233.948 100.552,233.5 100,233.5C99.448,233.5 99,233.948 99,234.5L99,240.5L97,240.5L97,236.5C97,235.948 96.552,235.5 96,235.5C95.448,235.5 95,235.948 95,236.5L95,240.5C94.448,240.5 94,240.948 94,241.5C94,242.052 94.448,242.5 95,242.5L109,242.5C109.552,242.5 110,242.052 110,241.5C110,240.948 109.552,240.5 109,240.5L109,230.5C109,229.948 108.552,229.5 108,229.5C107.448,229.5 107,229.948 107,230.5L107,240.5ZM120.003,224L121,224L121,222L83,222C83,222 83,224 83,224L120,224L120.003,224Z"/>
        </g>
    </g>
</svg>
