<?xml version="1.0" encoding="UTF-8" standalone="no"?>
<!DOCTYPE svg PUBLIC "-//W3C//DTD SVG 1.1//EN" "http://www.w3.org/Graphics/SVG/1.1/DTD/svg11.dtd">
<svg width="100%" height="100%" viewBox="0 0 48 48" version="1.1" xmlns="http://www.w3.org/2000/svg" xmlns:xlink="http://www.w3.org/1999/xlink" xml:space="preserve" xmlns:serif="http://www.serif.com/" style="fill-rule:evenodd;clip-rule:evenodd;stroke-linejoin:round;stroke-miterlimit:2;">
    <g transform="matrix(1,0,0,1,-146,-214)">
        <g id="DesignHere">
            <path d="M152,245L150,245C149.448,245 149,245.448 149,246L149,250.054C149,252.786 151.214,255 153.946,255C161.603,255 178.397,255 186.054,255C188.786,255 191,252.786 191,250.054C191,248.036 191,246 191,246C191,245.448 190.552,245 190,245L188,245L188,225.212C188,222.886 186.114,221 183.788,221L156.212,221C153.886,221 152,222.886 152,225.212L152,245ZM187.005,247L187,247L178,247L178,250C178,250.552 177.552,251 177,251L163,251C162.448,251 162,250.552 162,250L162,247L153,247L152.995,247L151,247L151,250.054C151,251.681 152.319,253 153.946,253C153.946,253 186.054,253 186.054,253C187.681,253 189,251.681 189,250.054L189,247L187.005,247ZM176,247L176,249C176,249 164,249 164,249L164,247L176,247ZM186,245L186,225.212C186,223.99 185.01,223 183.788,223C183.788,223 156.212,223 156.212,223C154.99,223 154,223.99 154,225.212C154,225.212 154,245 154,245L186,245ZM175,239L173,239L173,231C173,230.448 172.552,230 172,230C171.448,230 171,230.448 171,231L171,239L169,239L169,233C169,232.448 168.552,232 168,232C167.448,232 167,232.448 167,233L167,239L165,239L165,235C165,234.448 164.552,234 164,234C163.448,234 163,234.448 163,235L163,239C162.448,239 162,239.448 162,240C162,240.552 162.448,241 163,241L177,241C177.552,241 178,240.552 178,240C178,239.448 177.552,239 177,239L177,229C177,228.448 176.552,228 176,228C175.448,228 175,228.448 175,229L175,239Z"/>
        </g>
    </g>
</svg>
