<?xml version="1.0" encoding="UTF-8" standalone="no"?>
<!DOCTYPE svg PUBLIC "-//W3C//DTD SVG 1.1//EN" "http://www.w3.org/Graphics/SVG/1.1/DTD/svg11.dtd">
<svg width="100%" height="100%" viewBox="0 0 48 48" version="1.1" xmlns="http://www.w3.org/2000/svg" xmlns:xlink="http://www.w3.org/1999/xlink" xml:space="preserve" xmlns:serif="http://www.serif.com/" style="fill-rule:evenodd;clip-rule:evenodd;stroke-linejoin:round;stroke-miterlimit:2;">
    <g transform="matrix(1,0,0,1,-214,-214)">
        <g id="DesignHere">
            <path d="M219,226L219,247C219,247.552 219.448,248 220,248L236.382,248L233.106,254.553C232.859,255.046 233.059,255.648 233.553,255.894C234.046,256.141 234.648,255.941 234.894,255.447L237,251.236L237,255C237,255.552 237.448,256 238,256C238.552,256 239,255.552 239,255L239,251.236L241.106,255.447C241.352,255.941 241.954,256.141 242.447,255.894C242.941,255.648 243.141,255.046 242.894,254.553L239.618,248L256,248C256.552,248 257,247.552 257,247L257,226L258,226C258.552,226 259,225.552 259,225L259,221C259,220.448 258.552,220 258,220L218,220C217.448,220 217,220.448 217,221L217,225C217,225.552 217.448,226 218,226L219,226ZM255,226L221,226L221,246L238,246L255,246L255,226ZM241.3,243.289C241.401,243.274 241.501,243.243 241.597,243.194C241.694,243.146 241.78,243.084 241.853,243.011C244.324,241.649 246,239.019 246,236C246,231.585 242.415,228 238,228C233.585,228 230,231.585 230,236C230,240.415 233.585,244 238,244C239.176,244 240.294,243.746 241.3,243.289ZM233.11,232.524L237.178,236.592L239.752,241.74C239.198,241.909 238.609,242 238,242C234.689,242 232,239.311 232,236C232,234.705 232.411,233.505 233.11,232.524ZM243.917,237C243.653,238.573 242.775,239.939 241.54,240.844L239.618,237L243.917,237ZM242.89,232.524C243.405,233.247 243.764,234.089 243.917,235L240.414,235L242.89,232.524ZM241.476,231.11L238,234.586L234.524,231.11C235.505,230.411 236.705,230 238,230C239.295,230 240.495,230.411 241.476,231.11ZM256.003,224L257,224L257,222L219,222C219,222 219,224 219,224L256,224L256.003,224Z"/>
        </g>
    </g>
</svg>
