<?xml version="1.0" encoding="UTF-8" standalone="no"?>
<!DOCTYPE svg PUBLIC "-//W3C//DTD SVG 1.1//EN" "http://www.w3.org/Graphics/SVG/1.1/DTD/svg11.dtd">
<svg width="100%" height="100%" viewBox="0 0 48 48" version="1.1" xmlns="http://www.w3.org/2000/svg" xmlns:xlink="http://www.w3.org/1999/xlink" xml:space="preserve" xmlns:serif="http://www.serif.com/" style="fill-rule:evenodd;clip-rule:evenodd;stroke-linejoin:round;stroke-miterlimit:2;">
    <g transform="matrix(1,0,0,1,-78,-10)">
        <g id="DesignHere">
            <path d="M94,18L88,18C87.448,18 87,18.448 87,19L87,54C87,54.552 87.448,55 88,55L116,55C116.552,55 117,54.552 117,54L117,19C117,18.448 116.552,18 116,18L110,18L110,17C110,16.448 109.552,16 109,16L105.874,16C105.429,14.276 103.863,13 102,13C100.137,13 98.571,14.276 98.126,16L95,16C94.448,16 94,16.448 94,17L94,18ZM110,20L110,21C110,21.552 109.552,22 109,22L95,22C94.448,22 94,21.552 94,21L94,20L89,20C89,20 89,53 89,53C89,53 115,53 115,53C115,53 115,20 115,20L110,20ZM98,45C98,44.448 97.552,44 97,44L93,44C92.448,44 92,44.448 92,45L92,49C92,49.552 92.448,50 93,50L97,50C97.552,50 98,49.552 98,49L98,45ZM96,46L96,48C96,48 94,48 94,48C94,48 94,46 94,46L96,46ZM101,48L111,48C111.552,48 112,47.552 112,47C112,46.448 111.552,46 111,46L101,46C100.448,46 100,46.448 100,47C100,47.552 100.448,48 101,48ZM98,36C98,35.448 97.552,35 97,35L93,35C92.448,35 92,35.448 92,36L92,40C92,40.552 92.448,41 93,41L97,41C97.552,41 98,40.552 98,40L98,36ZM96,37L96,39C96,39 94,39 94,39C94,39 94,37 94,37L96,37ZM101,39L111,39C111.552,39 112,38.552 112,38C112,37.448 111.552,37 111,37L101,37C100.448,37 100,37.448 100,38C100,38.552 100.448,39 101,39ZM98,27C98,26.448 97.552,26 97,26L93,26C92.448,26 92,26.448 92,27L92,31C92,31.552 92.448,32 93,32L97,32C97.552,32 98,31.552 98,31L98,27ZM96,28L96,30C96,30 94,30 94,30C94,30 94,28 94,28L96,28ZM101,30L111,30C111.552,30 112,29.552 112,29C112,28.448 111.552,28 111,28L101,28C100.448,28 100,28.448 100,29C100,29.552 100.448,30 101,30ZM108,18L108,20C108,20 96,20 96,20L96,18C96,18 99,18 99,18C99.552,18 100,17.552 100,17C100,15.896 100.896,15 102,15C103.104,15 104,15.896 104,17C104,17.552 104.448,18 105,18L108,18Z"/>
        </g>
    </g>
</svg>
