<?xml version="1.0" encoding="UTF-8" standalone="no"?>
<!DOCTYPE svg PUBLIC "-//W3C//DTD SVG 1.1//EN" "http://www.w3.org/Graphics/SVG/1.1/DTD/svg11.dtd">
<svg width="100%" height="100%" viewBox="0 0 48 48" version="1.1" xmlns="http://www.w3.org/2000/svg" xmlns:xlink="http://www.w3.org/1999/xlink" xml:space="preserve" xmlns:serif="http://www.serif.com/" style="fill-rule:evenodd;clip-rule:evenodd;stroke-linejoin:round;stroke-miterlimit:2;">
    <g transform="matrix(1,0,0,1,-282,-214)">
        <g id="DesignHere">
            <path d="M288,245L286,245C285.448,245 285,245.448 285,246L285,250.054C285,252.786 287.214,255 289.946,255C297.603,255 314.397,255 322.054,255C324.786,255 327,252.786 327,250.054C327,248.036 327,246 327,246C327,245.448 326.552,245 326,245L324,245L324,225.212C324,222.886 322.114,221 319.788,221L292.212,221C289.886,221 288,222.886 288,225.212L288,245ZM323.005,247L323,247L314,247L314,250C314,250.552 313.552,251 313,251L299,251C298.448,251 298,250.552 298,250L298,247L289,247L288.995,247L287,247L287,250.054C287,251.681 288.319,253 289.946,253C289.946,253 322.054,253 322.054,253C323.681,253 325,251.681 325,250.054L325,247L323.005,247ZM312,247L312,249C312,249 300,249 300,249L300,247L312,247ZM322,245L322,225.212C322,223.99 321.01,223 319.788,223C319.788,223 292.212,223 292.212,223C290.99,223 290,223.99 290,225.212C290,225.212 290,245 290,245L322,245ZM309.3,242.289C309.401,242.274 309.501,242.243 309.597,242.194C309.694,242.146 309.78,242.084 309.853,242.011C312.324,240.649 314,238.019 314,235C314,230.585 310.415,227 306,227C301.585,227 298,230.585 298,235C298,239.415 301.585,243 306,243C307.176,243 308.294,242.746 309.3,242.289ZM301.11,231.524L305.178,235.592L307.752,240.74C307.198,240.909 306.609,241 306,241C302.689,241 300,238.311 300,235C300,233.705 300.411,232.505 301.11,231.524ZM311.917,236C311.653,237.573 310.775,238.939 309.54,239.844L307.618,236L311.917,236ZM310.89,231.524C311.405,232.247 311.764,233.089 311.917,234L308.414,234L310.89,231.524ZM309.476,230.11L306,233.586L302.524,230.11C303.505,229.411 304.705,229 306,229C307.295,229 308.495,229.411 309.476,230.11Z"/>
        </g>
    </g>
</svg>
