<?xml version="1.0" encoding="UTF-8" standalone="no"?>
<!DOCTYPE svg PUBLIC "-//W3C//DTD SVG 1.1//EN" "http://www.w3.org/Graphics/SVG/1.1/DTD/svg11.dtd">
<svg width="100%" height="100%" viewBox="0 0 48 48" version="1.1" xmlns="http://www.w3.org/2000/svg" xmlns:xlink="http://www.w3.org/1999/xlink" xml:space="preserve" xmlns:serif="http://www.serif.com/" style="fill-rule:evenodd;clip-rule:evenodd;stroke-linejoin:round;stroke-miterlimit:2;">
    <g transform="matrix(1,0,0,1,-10,-282)">
        <g id="DesignHere">
            <path d="M13,286L13,326C13,326.552 13.448,327 14,327L54,327C54.552,327 55,326.552 55,326C55,325.448 54.552,325 54,325L15,325C15,325 15,286 15,286C15,285.448 14.552,285 14,285C13.448,285 13,285.448 13,286ZM48,307C47.448,307 47,307.448 47,308L47,322C47,322.552 47.448,323 48,323L54,323C54.552,323 55,322.552 55,322L55,308C55,307.448 54.552,307 54,307L48,307ZM38,301C37.448,301 37,301.448 37,302L37,322C37,322.552 37.448,323 38,323L44,323C44.552,323 45,322.552 45,322L45,302C45,301.448 44.552,301 44,301L38,301ZM28,295C27.448,295 27,295.448 27,296L27,322C27,322.552 27.448,323 28,323L34,323C34.552,323 35,322.552 35,322L35,296C35,295.448 34.552,295 34,295L28,295ZM18,289C17.448,289 17,289.448 17,290L17,322C17,322.552 17.448,323 18,323L24,323C24.552,323 25,322.552 25,322L25,290C25,289.448 24.552,289 24,289L18,289ZM49,309L53,309C53,309 53,321 53,321C53,321 49,321 49,321L49,309ZM39,303L43,303C43,303 43,321 43,321C43,321 39,321 39,321L39,303ZM29,297L33,297C33,297 33,321 33,321C33,321 29,321 29,321L29,297ZM19,291L23,291C23,291 23,321 23,321C23,321 19,321 19,321L19,291ZM50,299.131L48.555,298.168C48.095,297.862 47.474,297.986 47.168,298.445C46.862,298.905 46.986,299.526 47.445,299.832L50.445,301.832C50.781,302.056 51.219,302.056 51.555,301.832L54.555,299.832C55.014,299.526 55.138,298.905 54.832,298.445C54.526,297.986 53.905,297.862 53.445,298.168L52,299.131L52,292C52,291.448 51.552,291 51,291C50.448,291 50,291.448 50,292L50,299.131Z"/>
        </g>
    </g>
</svg>
