<?xml version="1.0" encoding="UTF-8" standalone="no"?>
<!DOCTYPE svg PUBLIC "-//W3C//DTD SVG 1.1//EN" "http://www.w3.org/Graphics/SVG/1.1/DTD/svg11.dtd">
<svg width="100%" height="100%" viewBox="0 0 48 48" version="1.1" xmlns="http://www.w3.org/2000/svg" xmlns:xlink="http://www.w3.org/1999/xlink" xml:space="preserve" xmlns:serif="http://www.serif.com/" style="fill-rule:evenodd;clip-rule:evenodd;stroke-linejoin:round;stroke-miterlimit:2;">
    <g transform="matrix(1,0,0,1,-78,-282)">
        <g id="DesignHere">
            <path d="M94,290L88,290C87.448,290 87,290.448 87,291L87,326C87,326.552 87.448,327 88,327L116,327C116.552,327 117,326.552 117,326L117,291C117,290.448 116.552,290 116,290L110,290L110,289C110,288.448 109.552,288 109,288L105.874,288C105.429,286.276 103.863,285 102,285C100.137,285 98.571,286.276 98.126,288L95,288C94.448,288 94,288.448 94,289L94,290ZM94,292L89,292C89,292 89,325 89,325C89,325 115,325 115,325C115,325 115,292 115,292L110,292L110,293C110,293.552 109.552,294 109,294L95,294C94.448,294 94,293.552 94,293L94,292ZM109,313L109,303C109,302.448 108.552,302 108,302C107.448,302 107,302.448 107,303L107,313L105,313L105,305C105,304.448 104.552,304 104,304C103.448,304 103,304.448 103,305L103,313L101,313L101,307C101,306.448 100.552,306 100,306C99.448,306 99,306.448 99,307L99,313L97,313L97,309C97,308.448 96.552,308 96,308C95.448,308 95,308.448 95,309L95,313C94.448,313 94,313.448 94,314C94,314.552 94.448,315 95,315L109,315C109.552,315 110,314.552 110,314C110,313.448 109.552,313 109,313ZM108,290L108,292C108,292 96,292 96,292L96,290C96,290 99,290 99,290C99.552,290 100,289.552 100,289C100,287.896 100.896,287 102,287C103.104,287 104,287.896 104,289C104,289.552 104.448,290 105,290L108,290Z"/>
        </g>
    </g>
</svg>
