<?xml version="1.0" encoding="UTF-8" standalone="no"?>
<!DOCTYPE svg PUBLIC "-//W3C//DTD SVG 1.1//EN" "http://www.w3.org/Graphics/SVG/1.1/DTD/svg11.dtd">
<svg width="100%" height="100%" viewBox="0 0 48 48" version="1.1" xmlns="http://www.w3.org/2000/svg" xmlns:xlink="http://www.w3.org/1999/xlink" xml:space="preserve" xmlns:serif="http://www.serif.com/" style="fill-rule:evenodd;clip-rule:evenodd;stroke-linejoin:round;stroke-miterlimit:2;">
    <g transform="matrix(1,0,0,1,-146,-282)">
        <g id="DesignHere">
            <path d="M162,290L156,290C155.448,290 155,290.448 155,291L155,326C155,326.552 155.448,327 156,327L184,327C184.552,327 185,326.552 185,326L185,291C185,290.448 184.552,290 184,290L178,290L178,289C178,288.448 177.552,288 177,288L173.874,288C173.429,286.276 171.863,285 170,285C168.137,285 166.571,286.276 166.126,288L163,288C162.448,288 162,288.448 162,289L162,290ZM162,292L157,292C157,292 157,325 157,325C157,325 183,325 183,325C183,325 183,292 183,292L178,292L178,293C178,293.552 177.552,294 177,294L163,294C162.448,294 162,293.552 162,293L162,292ZM173.731,318.192C173.838,318.178 173.945,318.146 174.047,318.094C174.15,318.043 174.241,317.976 174.317,317.898C177.107,316.368 179,313.404 179,310C179,305.033 174.967,301 170,301C165.033,301 161,305.033 161,310C161,314.967 165.033,319 170,319C171.33,319 172.593,318.711 173.731,318.192ZM164.395,305.809L169.178,310.592L172.205,316.645C171.511,316.875 170.77,317 170,317C166.137,317 163,313.863 163,310C163,308.429 163.519,306.978 164.395,305.809ZM176.929,311C176.648,312.963 175.55,314.664 173.993,315.749L171.618,311L176.929,311ZM175.605,305.809C176.292,306.725 176.759,307.815 176.929,309L172.414,309L175.605,305.809ZM174.191,304.395L170,308.586L165.809,304.395C166.978,303.519 168.429,303 170,303C171.571,303 173.022,303.519 174.191,304.395ZM176,290L176,292C176,292 164,292 164,292L164,290C164,290 167,290 167,290C167.552,290 168,289.552 168,289C168,287.896 168.896,287 170,287C171.104,287 172,287.896 172,289C172,289.552 172.448,290 173,290L176,290Z"/>
        </g>
    </g>
</svg>
