<?xml version="1.0" encoding="UTF-8" standalone="no"?>
<!DOCTYPE svg PUBLIC "-//W3C//DTD SVG 1.1//EN" "http://www.w3.org/Graphics/SVG/1.1/DTD/svg11.dtd">
<svg width="100%" height="100%" viewBox="0 0 48 48" version="1.1" xmlns="http://www.w3.org/2000/svg" xmlns:xlink="http://www.w3.org/1999/xlink" xml:space="preserve" xmlns:serif="http://www.serif.com/" style="fill-rule:evenodd;clip-rule:evenodd;stroke-linejoin:round;stroke-miterlimit:2;">
    <g transform="matrix(1,0,0,1,-214,-282)">
        <g id="DesignHere">
            <path d="M217,286L217,326C217,326.552 217.448,327 218,327L258,327C258.552,327 259,326.552 259,326L259,286C259,285.448 258.552,285 258,285L218,285C217.448,285 217,285.448 217,286ZM257,293L257,325C257,325 219,325 219,325C219,325 219,293 219,293L234.235,293L257,293ZM242.163,318.094C242.276,318.081 242.389,318.048 242.497,317.994C242.606,317.94 242.701,317.868 242.779,317.785C245.889,316.087 248,312.788 248,309C248,303.481 243.519,299 238,299C232.481,299 228,303.481 228,309C228,314.519 232.481,319 238,319C239.485,319 240.895,318.676 242.163,318.094ZM231.681,304.095L237.178,309.592L240.656,316.548C239.825,316.841 238.931,317 238,317C233.585,317 230,313.415 230,309C230,307.153 230.628,305.451 231.681,304.095ZM245.938,310C245.644,312.354 244.326,314.391 242.444,315.652L239.618,310L245.938,310ZM244.319,304.095C245.179,305.202 245.756,306.54 245.938,308L240.414,308L244.319,304.095ZM242.905,302.681L238,307.586L233.095,302.681C234.451,301.628 236.153,301 238,301C239.847,301 241.549,301.628 242.905,302.681ZM219,291L219,287L257,287L257,291L219,291ZM221,290L222,290C222.552,290 223,289.552 223,289C223,288.448 222.552,288 222,288L221,288C220.448,288 220,288.448 220,289C220,289.552 220.448,290 221,290ZM225,290L226,290C226.552,290 227,289.552 227,289C227,288.448 226.552,288 226,288L225,288C224.448,288 224,288.448 224,289C224,289.552 224.448,290 225,290ZM229,290L230,290C230.552,290 231,289.552 231,289C231,288.448 230.552,288 230,288L229,288C228.448,288 228,288.448 228,289C228,289.552 228.448,290 229,290Z"/>
        </g>
    </g>
</svg>
