<?xml version="1.0" encoding="UTF-8" standalone="no"?>
<!DOCTYPE svg PUBLIC "-//W3C//DTD SVG 1.1//EN" "http://www.w3.org/Graphics/SVG/1.1/DTD/svg11.dtd">
<svg width="100%" height="100%" viewBox="0 0 48 48" version="1.1" xmlns="http://www.w3.org/2000/svg" xmlns:xlink="http://www.w3.org/1999/xlink" xml:space="preserve" xmlns:serif="http://www.serif.com/" style="fill-rule:evenodd;clip-rule:evenodd;stroke-linejoin:round;stroke-miterlimit:2;">
    <g transform="matrix(1,0,0,1,-282,-282)">
        <g id="DesignHere">
            <path d="M306,285C294.41,285 285,294.41 285,306C285,317.59 294.41,327 306,327C317.59,327 327,317.59 327,306C327,294.41 317.59,285 306,285ZM306,287C316.486,287 325,295.514 325,306C325,316.486 316.486,325 306,325C295.514,325 287,316.486 287,306C287,295.514 295.514,287 306,287ZM306,290.5C297.445,290.5 290.5,297.445 290.5,306C290.5,314.555 297.445,321.5 306,321.5C314.555,321.5 321.5,314.555 321.5,306C321.5,297.445 314.555,290.5 306,290.5ZM306,292.5C313.451,292.5 319.5,298.549 319.5,306C319.5,313.451 313.451,319.5 306,319.5C298.549,319.5 292.5,313.451 292.5,306C292.5,298.549 298.549,292.5 306,292.5ZM304.586,305.293L301.05,301.757C300.66,301.367 300.027,301.367 299.636,301.757L296.808,304.586C296.417,304.976 296.417,305.609 296.808,306L303.879,313.071C304.269,313.462 304.902,313.462 305.293,313.071L315.192,303.172C315.583,302.781 315.583,302.148 315.192,301.757L312.364,298.929C311.973,298.538 311.34,298.538 310.95,298.929L304.586,305.293ZM303.879,307.414C304.269,307.805 304.902,307.805 305.293,307.414L311.657,301.05C311.657,301.05 313.071,302.464 313.071,302.464C313.071,302.464 304.586,310.95 304.586,310.95L298.929,305.293C298.929,305.293 300.343,303.879 300.343,303.879C300.343,303.879 303.879,307.414 303.879,307.414Z"/>
        </g>
    </g>
</svg>
