<?xml version="1.0" encoding="UTF-8" standalone="no"?>
<!DOCTYPE svg PUBLIC "-//W3C//DTD SVG 1.1//EN" "http://www.w3.org/Graphics/SVG/1.1/DTD/svg11.dtd">
<svg width="100%" height="100%" viewBox="0 0 48 48" version="1.1" xmlns="http://www.w3.org/2000/svg" xmlns:xlink="http://www.w3.org/1999/xlink" xml:space="preserve" xmlns:serif="http://www.serif.com/" style="fill-rule:evenodd;clip-rule:evenodd;stroke-linejoin:round;stroke-miterlimit:2;">
    <g transform="matrix(1,0,0,1,-146,-10)">
        <g id="DesignHere">
            <path d="M181,47L179,47L179,22C179,21.448 178.552,21 178,21L172,21C171.448,21 171,21.448 171,22L171,47L169,47L169,28C169,27.448 168.552,27 168,27L162,27C161.448,27 161,27.448 161,28L161,47L159,47L159,34C159,33.448 158.552,33 158,33L152,33C151.448,33 151,33.448 151,34L151,47L150,47C149.448,47 149,47.448 149,48L149,54C149,54.552 149.448,55 150,55L190,55C190.552,55 191,54.552 191,54L191,48C191,47.448 190.552,47 190,47L189,47L189,16C189,15.448 188.552,15 188,15L182,15C181.448,15 181,15.448 181,16L181,47ZM189,49L189,53C189,53 151,53 151,53C151,53 151,49 151,49L189,49ZM157,47L153,47C153,47 153,35 153,35L157,35L157,47ZM187,17L187,47C187,47 183,47 183,47C183,47 183,17 183,17L187,17ZM167,29L167,47C167,47 163,47 163,47C163,47 163,29 163,29L167,29ZM177,23L177,47C177,47 173,47 173,47C173,47 173,23 173,23L177,23Z"/>
        </g>
    </g>
</svg>
