<?xml version="1.0" encoding="UTF-8" standalone="no"?>
<!DOCTYPE svg PUBLIC "-//W3C//DTD SVG 1.1//EN" "http://www.w3.org/Graphics/SVG/1.1/DTD/svg11.dtd">
<svg width="100%" height="100%" viewBox="0 0 48 48" version="1.1" xmlns="http://www.w3.org/2000/svg" xmlns:xlink="http://www.w3.org/1999/xlink" xml:space="preserve" xmlns:serif="http://www.serif.com/" style="fill-rule:evenodd;clip-rule:evenodd;stroke-linejoin:round;stroke-miterlimit:2;">
    <g transform="matrix(1,0,0,1,-214,-10)">
        <g id="DesignHere">
            <path d="M243,50L243,44L258,44C258.552,44 259,43.552 259,43L259,17C259,16.448 258.552,16 258,16L218,16C217.448,16 217,16.448 217,17L217,43C217,43.552 217.448,44 218,44L233,44L233,50L228,50C227.448,50 227,50.448 227,51C227,51.552 227.448,52 228,52L248,52C248.552,52 249,51.552 249,51C249,50.448 248.552,50 248,50L243,50ZM241,44L241,50C241,50 235,50 235,50C235,50 235,44 235,44L239.488,44L241,44ZM257,18L257,42C257,42 219,42 219,42C219,42 219,18 219,18L257,18ZM248.293,26.293L242.293,32.293C241.902,32.105 241.463,32 241,32C240.849,32 240.702,32.011 240.557,32.033L237.216,27.021C237.703,26.488 238,25.778 238,25C238,23.344 236.656,22 235,22C233.344,22 232,23.344 232,25C232,25.463 232.105,25.902 232.293,26.293L226.293,32.293C225.902,32.105 225.463,32 225,32C223.344,32 222,33.344 222,35C222,36.656 223.344,38 225,38C226.656,38 228,36.656 228,35C228,34.537 227.895,34.098 227.707,33.707L233.707,27.707C234.098,27.895 234.537,28 235,28C235.151,28 235.298,27.989 235.443,27.967L238.784,32.979C238.297,33.512 238,34.222 238,35C238,36.656 239.344,38 241,38C242.656,38 244,36.656 244,35C244,34.537 243.895,34.098 243.707,33.707L249.707,27.707C250.098,27.895 250.537,28 251,28C252.656,28 254,26.656 254,25C254,23.344 252.656,22 251,22C249.344,22 248,23.344 248,25C248,25.463 248.105,25.902 248.293,26.293ZM241,34C241.552,34 242,34.448 242,35C242,35.552 241.552,36 241,36C240.448,36 240,35.552 240,35C240,34.448 240.448,34 241,34ZM225,34C225.552,34 226,34.448 226,35C226,35.552 225.552,36 225,36C224.448,36 224,35.552 224,35C224,34.448 224.448,34 225,34ZM251,24C251.552,24 252,24.448 252,25C252,25.552 251.552,26 251,26C250.448,26 250,25.552 250,25C250,24.448 250.448,24 251,24ZM235,24C235.552,24 236,24.448 236,25C236,25.552 235.552,26 235,26C234.448,26 234,25.552 234,25C234,24.448 234.448,24 235,24Z"/>
        </g>
    </g>
</svg>
