<?xml version="1.0" encoding="UTF-8" standalone="no"?>
<!DOCTYPE svg PUBLIC "-//W3C//DTD SVG 1.1//EN" "http://www.w3.org/Graphics/SVG/1.1/DTD/svg11.dtd">
<svg width="100%" height="100%" viewBox="0 0 48 48" version="1.1" xmlns="http://www.w3.org/2000/svg" xmlns:xlink="http://www.w3.org/1999/xlink" xml:space="preserve" xmlns:serif="http://www.serif.com/" style="fill-rule:evenodd;clip-rule:evenodd;stroke-linejoin:round;stroke-miterlimit:2;">
    <g transform="matrix(1,0,0,1,-282,-10)">
        <g id="DesignHere">
            <path d="M313,52.5L311,52.5L311,27.5C311,26.948 310.552,26.5 310,26.5L302,26.5C301.448,26.5 301,26.948 301,27.5L301,52.5L299,52.5L299,33.5C299,32.948 298.552,32.5 298,32.5L290,32.5C289.448,32.5 289,32.948 289,33.5L289,52.5L286,52.5C285.448,52.5 285,52.948 285,53.5C285,54.052 285.448,54.5 286,54.5L326,54.5C326.552,54.5 327,54.052 327,53.5C327,52.948 326.552,52.5 326,52.5L323,52.5L323,21.5C323,20.948 322.552,20.5 322,20.5L314,20.5C313.448,20.5 313,20.948 313,21.5L313,52.5ZM321,22.5L321,52.5C321,52.5 315,52.5 315,52.5C315,52.5 315,22.5 315,22.5L321,22.5ZM297,34.5L297,52.5C297,52.5 291,52.5 291,52.5C291,52.5 291,34.5 291,34.5L297,34.5ZM309,28.5L309,52.5C309,52.5 303,52.5 303,52.5C303,52.5 303,28.5 303,28.5L309,28.5ZM292,15.626L291.989,15.629C291.619,15.726 291.264,15.876 290.937,16.073C290.412,16.39 289.962,16.828 289.631,17.345C289.385,17.728 289.205,18.153 289.103,18.597C289.004,19.022 288.977,19.462 289.019,19.896C289.061,20.323 289.173,20.743 289.349,21.134C289.548,21.578 289.828,21.984 290.172,22.328C290.53,22.686 290.956,22.976 291.421,23.176C291.727,23.308 292.05,23.401 292.379,23.452C292.584,23.484 292.792,23.5 293,23.5L293.013,23.5C293.094,23.501 293.174,23.506 293.255,23.516C293.41,23.536 293.564,23.574 293.71,23.63C293.944,23.719 294.16,23.852 294.344,24.02C294.538,24.195 294.696,24.408 294.808,24.644C294.887,24.811 294.943,24.989 294.973,25.171C295.009,25.388 295.009,25.612 294.973,25.829C294.934,26.063 294.853,26.29 294.735,26.495C294.607,26.718 294.436,26.915 294.234,27.073C294.024,27.238 293.781,27.361 293.523,27.431C293.325,27.484 293.118,27.507 292.913,27.498C292.711,27.489 292.511,27.45 292.322,27.382C292.065,27.289 291.828,27.143 291.629,26.955C291.419,26.758 291.253,26.515 291.145,26.248C291.073,26.069 291.027,25.881 291.009,25.689C291.006,25.66 291.003,25.632 291.003,25.603C291.001,25.541 291.002,25.479 290.997,25.418C290.989,25.32 290.966,25.223 290.93,25.132C290.854,24.94 290.717,24.773 290.544,24.661C290.46,24.606 290.368,24.564 290.271,24.537C290.167,24.508 290.057,24.496 289.949,24.501C289.847,24.506 289.746,24.527 289.651,24.563C289.541,24.604 289.439,24.664 289.35,24.74C289.247,24.829 289.161,24.939 289.101,25.061C289.054,25.157 289.023,25.261 289.009,25.366C289,25.432 288.999,25.498 289.001,25.565C289.002,25.633 289.004,25.701 289.009,25.769C289.024,25.995 289.058,26.219 289.111,26.439C289.219,26.885 289.404,27.312 289.657,27.696C289.985,28.195 290.425,28.618 290.937,28.927C291.264,29.124 291.619,29.274 291.989,29.371L292,29.374L292,30.5C292,31.052 292.448,31.5 293,31.5C293.552,31.5 294,31.052 294,30.5L294,29.374L294.011,29.371C294.197,29.322 294.379,29.26 294.556,29.185C294.872,29.052 295.169,28.878 295.44,28.669C295.847,28.355 296.192,27.964 296.452,27.522C296.692,27.113 296.858,26.662 296.94,26.195C297.018,25.748 297.02,25.287 296.946,24.84C296.885,24.473 296.772,24.116 296.612,23.78C296.384,23.302 296.06,22.871 295.665,22.518C295.296,22.188 294.865,21.927 294.401,21.753C294.139,21.654 293.866,21.584 293.589,21.543C293.428,21.519 293.266,21.506 293.103,21.501L293.006,21.5L293,21.5C291.896,21.5 291,20.604 291,19.5C291,18.396 291.896,17.5 293,17.5C294.104,17.5 295,18.396 295,19.5L294,15.626L294,14.5C294,13.948 293.552,13.5 293,13.5C292.448,13.5 292,13.948 292,14.5L292,15.626Z"/>
        </g>
    </g>
</svg>
