<?xml version="1.0" encoding="UTF-8" standalone="no"?>
<!DOCTYPE svg PUBLIC "-//W3C//DTD SVG 1.1//EN" "http://www.w3.org/Graphics/SVG/1.1/DTD/svg11.dtd">
<svg width="100%" height="100%" viewBox="0 0 48 48" version="1.1" xmlns="http://www.w3.org/2000/svg" xmlns:xlink="http://www.w3.org/1999/xlink" xml:space="preserve" xmlns:serif="http://www.serif.com/" style="fill-rule:evenodd;clip-rule:evenodd;stroke-linejoin:round;stroke-miterlimit:2;">
    <g transform="matrix(1,0,0,1,-10,-78)">
        <g id="DesignHere">
            <path d="M38.791,82.033C38.671,81.704 38.387,81.46 38.043,81.393C35.373,80.869 32.627,80.869 29.957,81.393C29.613,81.46 29.329,81.704 29.209,82.033L28.142,84.98C25.955,85.732 23.934,86.899 22.189,88.417C22.189,88.417 19.104,87.868 19.104,87.868C18.758,87.806 18.406,87.931 18.175,88.195C16.387,90.245 15.014,92.624 14.132,95.198C14.019,95.53 14.087,95.897 14.313,96.166L16.331,98.563C15.89,100.833 15.89,103.167 16.331,105.437C16.331,105.437 14.313,107.834 14.313,107.834C14.087,108.103 14.019,108.47 14.132,108.802C15.014,111.376 16.387,113.755 18.175,115.805C18.406,116.069 18.758,116.194 19.104,116.132L22.189,115.583C23.934,117.101 25.956,118.268 28.142,119.02C28.142,119.02 29.209,121.967 29.209,121.967C29.329,122.296 29.613,122.54 29.957,122.607C32.627,123.131 35.373,123.131 38.043,122.607C38.387,122.54 38.671,122.296 38.791,121.967L39.858,119.02C42.045,118.268 44.066,117.101 45.811,115.583C45.811,115.583 48.896,116.132 48.896,116.132C49.242,116.194 49.594,116.069 49.825,115.805C51.613,113.755 52.986,111.376 53.868,108.802C53.981,108.47 53.913,108.103 53.687,107.834L51.669,105.437C52.11,103.167 52.11,100.833 51.669,98.563C51.669,98.563 53.687,96.166 53.687,96.166C53.913,95.897 53.981,95.53 53.868,95.198C52.986,92.624 51.613,90.245 49.825,88.195C49.594,87.931 49.242,87.806 48.896,87.868L45.811,88.417C44.066,86.899 42.044,85.732 39.858,84.98C39.858,84.98 38.791,82.033 38.791,82.033ZM37.106,83.256L38.144,86.119C38.25,86.412 38.487,86.639 38.785,86.732C41.032,87.436 43.096,88.628 44.83,90.222C45.06,90.434 45.375,90.526 45.682,90.471L48.68,89.938C50.004,91.549 51.053,93.366 51.786,95.318C51.786,95.318 49.825,97.648 49.825,97.648C49.625,97.886 49.547,98.205 49.615,98.51C50.128,100.808 50.128,103.192 49.615,105.49C49.547,105.795 49.625,106.114 49.825,106.352L51.786,108.682C51.053,110.634 50.004,112.451 48.68,114.062C48.68,114.062 45.682,113.529 45.682,113.529C45.375,113.474 45.06,113.566 44.83,113.778C43.096,115.372 41.032,116.564 38.785,117.268C38.487,117.361 38.25,117.588 38.144,117.881L37.106,120.744C35.049,121.085 32.951,121.085 30.894,120.744C30.894,120.744 29.856,117.881 29.856,117.881C29.75,117.588 29.513,117.361 29.215,117.268C26.968,116.564 24.904,115.372 23.17,113.778C22.94,113.566 22.625,113.474 22.318,113.529L19.32,114.062C17.996,112.451 16.947,110.634 16.214,108.682C16.214,108.682 18.175,106.352 18.175,106.352C18.375,106.114 18.453,105.795 18.385,105.49C17.872,103.192 17.872,100.808 18.385,98.51C18.453,98.205 18.375,97.886 18.175,97.648L16.214,95.318C16.947,93.366 17.996,91.549 19.32,89.938C19.32,89.938 22.318,90.471 22.318,90.471C22.625,90.526 22.94,90.434 23.17,90.222C24.904,88.628 26.968,87.436 29.215,86.732C29.513,86.639 29.75,86.412 29.856,86.119L30.894,83.256C32.951,82.915 35.049,82.915 37.106,83.256L37.106,83.256ZM34,88.643C26.628,88.643 20.643,94.628 20.643,102C20.643,109.372 26.628,115.357 34,115.357C41.372,115.357 47.357,109.372 47.357,102C47.357,94.628 41.372,88.643 34,88.643ZM34,90.643C40.268,90.643 45.357,95.732 45.357,102C45.357,108.268 40.268,113.357 34,113.357C27.732,113.357 22.643,108.268 22.643,102C22.643,95.732 27.732,90.643 34,90.643ZM27,108L41,108C41.552,108 42,107.552 42,107C42,106.448 41.552,106 41,106L41,96C41,95.448 40.552,95 40,95C39.448,95 39,95.448 39,96L39,106L37,106L37,98C37,97.448 36.552,97 36,97C35.448,97 35,97.448 35,98L35,106L33,106L33,100C33,99.448 32.552,99 32,99C31.448,99 31,99.448 31,100L31,106L29,106L29,102C29,101.448 28.552,101 28,101C27.448,101 27,101.448 27,102L27,106C26.448,106 26,106.448 26,107C26,107.552 26.448,108 27,108Z"/>
        </g>
    </g>
</svg>
