<?xml version="1.0" encoding="UTF-8" standalone="no"?>
<!DOCTYPE svg PUBLIC "-//W3C//DTD SVG 1.1//EN" "http://www.w3.org/Graphics/SVG/1.1/DTD/svg11.dtd">
<svg width="100%" height="100%" viewBox="0 0 48 48" version="1.1" xmlns="http://www.w3.org/2000/svg" xmlns:xlink="http://www.w3.org/1999/xlink" xml:space="preserve" xmlns:serif="http://www.serif.com/" style="fill-rule:evenodd;clip-rule:evenodd;stroke-linejoin:round;stroke-miterlimit:2;">
    <g transform="matrix(1,0,0,1,-78,-78)">
        <g id="DesignHere">
            <path d="M107,81C107,81 88,81 88,81C87.448,81 87,81.448 87,82L87,122C87,122.552 87.448,123 88,123L116,123C116.552,123 117,122.552 117,122L117,90C117,89.714 116.878,89.442 116.664,89.253L107.664,81.253C107.628,81.22 107.589,81.191 107.549,81.164L107.529,81.151L107.516,81.143C107.377,81.06 107.217,81.009 107.046,81.001L107.022,81L107,81ZM106,83L89,83C89,83 89,121 89,121C89,121 115,121 115,121L115,91C115,91 107,91 107,91C106.448,91 106,90.552 106,90L106,83ZM101,100C101,99.448 100.552,99 100,99C95.582,99 92,102.582 92,107C92,111.415 95.585,115 100,115C104.418,115 108,111.418 108,107C108,106.448 107.552,106 107,106L101,106C101,106 101,100 101,100ZM99,101.083L99,107C99,107.552 99.448,108 100,108L105.917,108C105.441,110.838 102.973,113 100,113C96.689,113 94,110.311 94,107C94,104.027 96.162,101.559 99,101.083L99,101.083ZM111,104C111.552,104 112,103.552 112,103C112,98.582 108.418,95 104,95C103.448,95 103,95.448 103,96L103,103C103,103.552 103.448,104 104,104L111,104ZM109.917,102L105,102C105,102 105,97.083 105,97.083C107.512,97.504 109.496,99.487 109.917,102L109.917,102ZM108,89L113.37,89L108,84.227L108,89Z"/>
        </g>
    </g>
</svg>
