<?xml version="1.0" encoding="UTF-8" standalone="no"?>
<!DOCTYPE svg PUBLIC "-//W3C//DTD SVG 1.1//EN" "http://www.w3.org/Graphics/SVG/1.1/DTD/svg11.dtd">
<svg width="100%" height="100%" viewBox="0 0 48 48" version="1.1" xmlns="http://www.w3.org/2000/svg" xmlns:xlink="http://www.w3.org/1999/xlink" xml:space="preserve" xmlns:serif="http://www.serif.com/" style="fill-rule:evenodd;clip-rule:evenodd;stroke-linejoin:round;stroke-miterlimit:2;">
    <g transform="matrix(1,0,0,1,-146,-78)">
        <g id="DesignHere">
            <path d="M174.869,82.033C174.749,81.704 174.466,81.46 174.121,81.393C171.451,80.869 168.705,80.869 166.035,81.393C165.691,81.46 165.407,81.704 165.288,82.033L164.22,84.98C162.034,85.732 160.012,86.899 158.267,88.417C158.268,88.417 155.182,87.868 155.182,87.868C154.837,87.806 154.484,87.931 154.253,88.195C152.465,90.245 151.092,92.624 150.211,95.198C150.097,95.53 150.166,95.897 150.391,96.166L152.409,98.563C151.968,100.833 151.968,103.167 152.41,105.437C152.409,105.437 150.391,107.834 150.391,107.834C150.166,108.103 150.097,108.47 150.211,108.802C151.092,111.376 152.465,113.755 154.253,115.805C154.484,116.069 154.837,116.194 155.182,116.132L158.268,115.583C160.012,117.101 162.034,118.268 164.221,119.02C164.22,119.02 165.288,121.967 165.288,121.967C165.407,122.296 165.691,122.54 166.035,122.607C168.705,123.131 171.451,123.131 174.121,122.607C174.466,122.54 174.749,122.296 174.869,121.967L175.936,119.02C178.123,118.268 180.144,117.101 181.889,115.583C181.889,115.583 184.974,116.132 184.974,116.132C185.32,116.194 185.672,116.069 185.903,115.805C187.692,113.755 189.065,111.376 189.946,108.802C190.06,108.47 189.991,108.103 189.765,107.834L187.747,105.437C188.189,103.167 188.189,100.833 187.747,98.563C187.747,98.563 189.765,96.166 189.765,96.166C189.991,95.897 190.06,95.53 189.946,95.198C189.065,92.624 187.692,90.245 185.903,88.195C185.672,87.931 185.32,87.806 184.974,87.868L181.889,88.417C180.144,86.899 178.123,85.732 175.936,84.98C175.936,84.98 174.869,82.033 174.869,82.033ZM173.185,83.256L174.222,86.119C174.328,86.412 174.565,86.639 174.863,86.732C177.11,87.436 179.175,88.628 180.908,90.222C181.138,90.434 181.453,90.526 181.76,90.471L184.758,89.938C186.082,91.549 187.131,93.366 187.864,95.318C187.864,95.318 185.904,97.648 185.904,97.648C185.703,97.886 185.625,98.205 185.693,98.51C186.207,100.808 186.207,103.192 185.693,105.49C185.625,105.795 185.703,106.114 185.904,106.352L187.864,108.682C187.131,110.634 186.082,112.451 184.758,114.062C184.758,114.062 181.76,113.529 181.76,113.529C181.453,113.474 181.138,113.566 180.908,113.778C179.175,115.372 177.11,116.564 174.863,117.268C174.565,117.361 174.328,117.588 174.222,117.881L173.185,120.744C171.127,121.085 169.029,121.085 166.972,120.744C166.972,120.744 165.935,117.881 165.935,117.881C165.829,117.588 165.591,117.361 165.294,117.268C163.046,116.564 160.982,115.372 159.248,113.778C159.019,113.566 158.704,113.474 158.396,113.529L155.398,114.062C154.075,112.451 153.025,110.634 152.292,108.682C152.292,108.682 154.253,106.352 154.253,106.352C154.454,106.114 154.532,105.795 154.464,105.49C153.95,103.192 153.95,100.808 154.464,98.51C154.532,98.205 154.454,97.886 154.253,97.648L152.292,95.318C153.025,93.366 154.075,91.549 155.398,89.938C155.398,89.938 158.396,90.471 158.396,90.471C158.704,90.526 159.019,90.434 159.248,90.222C160.982,88.628 163.046,87.436 165.294,86.732C165.591,86.639 165.829,86.412 165.935,86.119L166.972,83.256C169.029,82.915 171.128,82.915 173.184,83.256L173.185,83.256ZM170.078,88.643C162.706,88.643 156.721,94.628 156.721,102C156.721,109.372 162.706,115.357 170.078,115.357C177.45,115.357 183.435,109.372 183.435,102C183.435,94.628 177.45,88.643 170.078,88.643ZM170.078,90.643C176.346,90.643 181.435,95.732 181.435,102C181.435,108.268 176.346,113.357 170.078,113.357C163.81,113.357 158.721,108.268 158.721,102C158.721,95.732 163.81,90.643 170.078,90.643ZM169,95.126C167.276,95.571 166,97.138 166,99C166,101.208 167.792,103 170,103C171.104,103 172,103.896 172,105C172,106.104 171.104,107 170,107C169.21,107 168.526,106.54 168.201,105.874C168.072,105.61 168,105.313 168,105C168,104.448 167.552,104 167,104C166.448,104 166,104.448 166,105C166,105.839 166.259,106.619 166.702,107.262C167.241,108.047 168.053,108.63 169,108.874L169,110C169,110.552 169.448,111 170,111C170.552,111 171,110.552 171,110L171,108.874C172.724,108.429 174,106.862 174,105C174,102.792 172.208,101 170,101C168.896,101 168,100.104 168,99C168,97.896 168.896,97 170,97C171.104,97 172,97.896 172,99C172,99.552 172.448,100 173,100C173.552,100 174,99.552 174,99C174,97.138 172.724,95.571 171,95.126L171,94C171,93.448 170.552,93 170,93C169.448,93 169,93.448 169,94L169,95.126Z"/>
        </g>
    </g>
</svg>
