<?xml version="1.0" encoding="UTF-8" standalone="no"?>
<!DOCTYPE svg PUBLIC "-//W3C//DTD SVG 1.1//EN" "http://www.w3.org/Graphics/SVG/1.1/DTD/svg11.dtd">
<svg width="100%" height="100%" viewBox="0 0 48 48" version="1.1" xmlns="http://www.w3.org/2000/svg" xmlns:xlink="http://www.w3.org/1999/xlink" xml:space="preserve" xmlns:serif="http://www.serif.com/" style="fill-rule:evenodd;clip-rule:evenodd;stroke-linejoin:round;stroke-miterlimit:2;">
    <g transform="matrix(1,0,0,1,-214,-78)">
        <g id="DesignHere">
            <path d="M217,82L217,122C217,122.552 217.448,123 218,123L258,123C258.552,123 259,122.552 259,122L259,82C259,81.448 258.552,81 258,81L218,81C217.448,81 217,81.448 217,82ZM257,89L257,121C257,121 219,121 219,121C219,121 219,89 219,89L234.235,89L257,89ZM245.182,112L241.727,112L241.727,100.727C241.727,100.175 241.279,99.727 240.727,99.727C240.175,99.727 239.727,100.175 239.727,100.727L239.727,112L236.273,112L236.273,103.455C236.273,102.903 235.825,102.455 235.273,102.455C234.721,102.455 234.273,102.903 234.273,103.455L234.273,112L230.818,112L230.818,106.182C230.818,105.63 230.37,105.182 229.818,105.182C229.266,105.182 228.818,105.63 228.818,106.182L228.818,112L228.455,112C227.903,112 227.455,112.448 227.455,113C227.455,113.552 227.903,114 228.455,114L247.545,114C248.097,114 248.545,113.552 248.545,113C248.545,112.448 248.097,112 247.545,112L247.182,112L247.182,98C247.182,97.448 246.734,97 246.182,97C245.63,97 245.182,97.448 245.182,98L245.182,112ZM219,87L219,83L257,83L257,87L219,87ZM221,86L222,86C222.552,86 223,85.552 223,85C223,84.448 222.552,84 222,84L221,84C220.448,84 220,84.448 220,85C220,85.552 220.448,86 221,86ZM225,86L226,86C226.552,86 227,85.552 227,85C227,84.448 226.552,84 226,84L225,84C224.448,84 224,84.448 224,85C224,85.552 224.448,86 225,86ZM229,86L230,86C230.552,86 231,85.552 231,85C231,84.448 230.552,84 230,84L229,84C228.448,84 228,84.448 228,85C228,85.552 228.448,86 229,86Z"/>
        </g>
    </g>
</svg>
