<svg xmlns="http://www.w3.org/2000/svg" viewBox="0 0 24 24"  stroke="currentColor" stroke-width="2" stroke-linecap="round" stroke-linejoin="round">
<circle cx="12" cy="12" r="3" fill="currentColor" fill-opacity="0.12" stroke="currentColor"></circle>
<path d="M19.4 15a7.8 7.8 0 0 0 .1-6l-2 1.2a6 6 0 0 0-1.7-1.7L17 6.6a7.8 7.8 0 0 0-6-.1l.2 2.3a6 6 0 0 0-1.7 1.7L6.6 10.5a7.8 7.8 0 0 0-.1 6l2.3-.2a6 6 0 0 0 1.7 1.7l-.2 2.3a7.8 7.8 0 0 0 6 .1l-1.2-2a6 6 0 0 0 1.7-1.7l2.6.4z" fill="currentColor" fill-opacity="0.06" stroke="currentColor"></path>
</svg>