<?xml version="1.0" encoding="UTF-8"?>
<svg xmlns="http://www.w3.org/2000/svg" version="1.1" viewBox="0 0 48 48">
  <!-- Generator: Adobe Illustrator 28.7.1, SVG Export Plug-In . SVG Version: 1.2.0 Build 142)  -->
  <g>
    <g id="GLYPH">
      <g>
        <path d="M23,23c0-.55127-.44873-1-1-1s-1,.44873-1,1v1h2v-1Z"/>
        <path d="M17,30h13v-12h-13v12ZM27,20c.55231,0,1,.44769,1,1,0,.55225-.44769,1-1,1s-1-.44775-1-1c0-.55231.44769-1,1-1ZM26,24c0-.55225.44775-1,1-1s1,.44775,1,1v3c0,.55225-.44775,1-1,1s-1-.44775-1-1v-3ZM19,23c0-1.6543,1.3457-3,3-3s3,1.3457,3,3v4c0,.55225-.44775,1-1,1s-1-.44775-1-1v-1h-2v1c0,.55225-.44775,1-1,1s-1-.44775-1-1v-4Z"/>
        <path d="M41,37.17999v-3.17999c0-.54999-.45001-1-1-1h-4v-2h3c.54999,0,1-.45001,1-1s-.45001-1-1-1h-3v-2h3c.54999,0,1-.45001,1-1s-.45001-1-1-1h-3v-2h3c.54999,0,1-.45001,1-1s-.45001-1-1-1h-3v-2h3c.54999,0,1-.45001,1-1s-.45001-1-1-1h-3v-2h4c.54999,0,1-.45001,1-1v-3.17999c1.15997-.42004,2-1.52002,2-2.82001,0-1.65002-1.34998-3-3-3-1.29999,0-2.40002.83997-2.82001,2h-3.17999c-.54999,0-1,.45001-1,1v4h-2v-2c0-.54999-.45001-1-1-1s-1,.45001-1,1v2h-2v-2c0-.54999-.45001-1-1-1s-1,.45001-1,1v2h-2v-2c0-.54999-.45001-1-1-1s-1,.45001-1,1v2h-2v-2c0-.54999-.45001-1-1-1s-1,.45001-1,1v2h-2v-4c0-.54999-.45001-1-1-1h-3.17999c-.41998-1.16003-1.52002-2-2.82001-2-1.65002,0-3,1.34998-3,3,0,1.29999.84003,2.39996,2,2.82001v3.17999c0,.54999.45001,1,1,1h3v2h-2c-.54999,0-1,.45001-1,1s.45001,1,1,1h2v2h-2c-.54999,0-1,.45001-1,1s.45001,1,1,1h2v2h-2c-.54999,0-1,.45001-1,1s.45001,1,1,1h2v2h-2c-.54999,0-1,.45001-1,1s.45001,1,1,1h2v2h-3c-.54999,0-1,.45001-1,1v3.17999c-1.15997.41998-2,1.52002-2,2.82001,0,1.64996,1.34998,3,3,3,1.29999,0,2.40002-.84003,2.82001-2h3.17999c.54999,0,1-.45001,1-1v-4h2v2c0,.54999.45001,1,1,1s1-.45001,1-1v-2h2v2c0,.54999.45001,1,1,1s1-.45001,1-1v-2h2v2c0,.54999.45001,1,1,1s1-.45001,1-1v-2h2v2c0,.54999.45001,1,1,1s1-.45001,1-1v-2h2v4c0,.54999.45001,1,1,1h3.17999c.41998,1.15997,1.52002,2,2.82001,2,1.65002,0,3-1.35004,3-3,0-1.29999-.84003-2.40002-2-2.82001ZM13,39h-2.17999c-.31-.85004-.97003-1.51001-1.82001-1.82001v-2.17999h2c0,.54999.45001,1,1,1h1v3ZM13,12h-1c-.54999,0-1,.45001-1,1h-2v-2.17999c.84998-.31,1.51001-.97003,1.82001-1.82001h2.17999v3ZM32,31c0,.54999-.45001,1-1,1h-15c-.54999,0-1-.45001-1-1v-14c0-.54999.45001-1,1-1h15c.54999,0,1,.45001,1,1v14ZM35,9h2.17999c.31.84998.97003,1.51001,1.82001,1.82001v2.17999h-3c0-.54999-.45001-1-1-1v-3ZM39,37.17999c-.84998.31-1.51001.96997-1.82001,1.82001h-2.17999v-3c.54999,0,1-.45001,1-1h3v2.17999Z"/>
      </g>
    </g>
  </g>
</svg>