<?xml version="1.0" encoding="UTF-8"?>
<svg xmlns="http://www.w3.org/2000/svg" version="1.1" viewBox="0 0 48 48">
  <!-- Generator: Adobe Illustrator 28.7.1, SVG Export Plug-In . SVG Version: 1.2.0 Build 142)  -->
  <g>
    <g id="GLYPH">
      <g>
        <path d="M42,27h-6c-.54999,0-1,.45001-1,1v2h-3v-4h1c.54999,0,1-.45001,1-1V6c0-.54999-.45001-1-1-1h-11v7c0,.54999-.45001,1-1,1h-7v12c0,.54999.45001,1,1,1h1v4h-3v-2c0-.54999-.45001-1-1-1h-6c-.54999,0-1,.45001-1,1v6c0,.54999.45001,1,1,1h6c.54999,0,1-.45001,1-1v-2h4c.54999,0,1-.45001,1-1v-5h5v8h-4c-.54999,0-1,.45001-1,1v2.17999c-1.15997.41998-2,1.52002-2,2.82001,0,1.64996,1.34998,3,3,3s3-1.35004,3-3c0-1.29999-.84003-2.40002-2-2.82001v-1.17999h8v1.17999c-1.15997.41998-2,1.52002-2,2.82001,0,1.64996,1.34998,3,3,3s3-1.35004,3-3c0-1.29999-.84003-2.40002-2-2.82001v-2.17999c0-.54999-.45001-1-1-1h-4v-8h5v5c0,.54999.45001,1,1,1h4v2c0,.54999.45001,1,1,1h6c.54999,0,1-.45001,1-1v-6c0-.54999-.45001-1-1-1ZM22,15h4c.54999,0,1,.45001,1,1s-.45001,1-1,1h-4c-.54999,0-1-.45001-1-1s.45001-1,1-1ZM28,21h-8c-.54999,0-1-.45001-1-1s.45001-1,1-1h8c.54999,0,1,.45001,1,1s-.45001,1-1,1Z"/>
        <polygon points="20 5.58594 14.58594 11 20 11 20 5.58594"/>
      </g>
    </g>
  </g>
</svg>