<?xml version="1.0" encoding="UTF-8"?>
<svg xmlns="http://www.w3.org/2000/svg" version="1.1" viewBox="0 0 48 48">
  <!-- Generator: Adobe Illustrator 28.7.1, SVG Export Plug-In . SVG Version: 1.2.0 Build 142)  -->
  <g>
    <g id="GLYPH">
      <g>
        <path d="M26.80859,31v-1.38379c.13281-.06348.26367-.13086.39258-.20312l1.21973.80176c.45215.29785,1.05762.17969,1.36816-.26172l2.03027-2.89648c.1543-.22168.21387-.49707.16309-.7627s-.20703-.49902-.43359-.64746l-1.18945-.78125c.04395-.29004.06543-.5791.06543-.86523s-.02148-.5752-.06543-.86523l1.18945-.78125c.22656-.14844.38281-.38184.43359-.64746s-.00879-.54102-.16309-.7627l-2.03027-2.89648c-.31055-.44238-.91602-.55957-1.36816-.26172l-1.21973.80176c-.12891-.07227-.25977-.13965-.39258-.20312v-1.38379c0-.55273-.44727-1-1-1h-3.61719c-.55273,0-1,.44727-1,1v1.38379c-.13281.06348-.26367.13086-.39258.20312l-1.21973-.80176c-.45215-.29785-1.05762-.18066-1.36816.26172l-2.03027,2.89648c-.1543.22168-.21387.49707-.16309.7627s.20703.49902.43359.64746l1.18945.78125c-.04395.29004-.06543.5791-.06543.86523s.02148.5752.06543.86523l-1.18945.78125c-.22656.14844-.38281.38184-.43359.64746s.00879.54102.16309.7627l2.03027,2.89648c.31055.44141.91602.55957,1.36816.26172l1.21973-.80176c.12891.07227.25977.13965.39258.20312v1.38379c0,.55273.44727,1,1,1h3.61719c.55273,0,1-.44727,1-1ZM20,24c0-2.20575,1.79425-4,4-4s4,1.79425,4,4-1.79425,4-4,4-4-1.79431-4-4Z"/>
        <path d="M24,22.66663c-.73566,0-1.33331.59766-1.33331,1.33337,0,.73566.59766,1.33331,1.33331,1.33331s1.33331-.59766,1.33331-1.33331c0-.73572-.59766-1.33337-1.33331-1.33337Z"/>
        <path d="M19.67999,34.13c-4.06-1.73999-6.67999-5.71002-6.67999-10.13s2.62-8.39001,6.67999-10.13c.51001-.21002,1.03998-.38,1.57001-.51001-.34003.39001-.33002.97998.03998,1.34998.38306.38306,1.03772.38232,1.42004,0,.00134-.0014,2-2,2-2,.38995-.38995.38995-1.02997,0-1.41998l-2-2c-.39001-.39001-1.03003-.39001-1.42004,0-.38995.39001-.38995,1.03003,0,1.41998l.5.49005c-.98999.16998-1.95996.44-2.88995.82996-1.25.53003-2.37,1.23999-3.36005,2.09003l-4.83997-4.83002c.03998-.09998.08002-.19.12-.28998h2.35999c.41998,1.15997,1.52002,2,2.82001,2,1.65002,0,3-1.35004,3-3s-1.34998-3-3-3c-1.29999,0-2.40002.83997-2.82001,2h-2.35999c-.41998-1.16003-1.52002-2-2.82001-2-1.65002,0-3,1.34998-3,3,0,1.29999.84003,2.39996,2,2.82001v2.35999c-1.15997.41998-2,1.52002-2,2.82001,0,1.64996,1.34998,3,3,3s3-1.35004,3-3c0-1.29999-.84003-2.40002-2-2.82001v-2.35999c.09998-.04004.19-.08002.28998-.12l4.84003,4.83997c-1.97998,2.31-3.13,5.28998-3.13,8.46002s1.15002,6.14996,3.13,8.45996l-4.84003,4.84003c-.09998-.03998-.19-.08002-.28998-.12v-2.35999c1.15997-.42004,2-1.52002,2-2.82001,0-1.65002-1.34998-3-3-3s-3,1.34998-3,3c0,1.29999.84003,2.39996,2,2.82001v2.35999c-1.15997.41998-2,1.52002-2,2.82001,0,1.64996,1.34998,3,3,3s3-1.35004,3-3c0-.46002-.10999-.89001-.29999-1.29004l4.83997-4.82996c.99005.84998,2.11005,1.56,3.36005,2.08997.51245.19702,1.08478-.01794,1.31006-.53009.21985-.5-.02014-1.0899-.53009-1.30988Z"/>
        <path d="M37,16c0,1.64996,1.34998,3,3,3s3-1.35004,3-3c0-1.29999-.84003-2.40002-2-2.82001v-2.35999c1.15997-.42004,2-1.52002,2-2.82001,0-1.65002-1.34998-3-3-3-1.29999,0-2.40002.83997-2.82001,2h-2.35999c-.41998-1.16003-1.52002-2-2.82001-2-1.65002,0-3,1.34998-3,3s1.34998,3,3,3c1.29999,0,2.40002-.84003,2.82001-2h2.35999c.03998.09998.08002.19.12.28998l-4.83997,4.83002c-.99005-.85004-2.11005-1.56-3.36005-2.09003-.50995-.21997-1.08997.02002-1.31.53003-.21997.5.02002,1.08997.53003,1.31,4.06,1.73999,6.67999,5.70996,6.67999,10.13s-2.62,8.39001-6.67999,10.13c-.51001.20996-1.03998.38-1.57001.51001.34003-.39001.33002-.98004-.03998-1.35004-.39001-.39001-1.03003-.39001-1.42004,0l-2,2c-.38995.39001-.38995,1.03003,0,1.41998l2,2c.38501.38098,1.03583.38422,1.42004,0,.38995-.39001.38995-1.02997,0-1.41998l-.5-.48999c.98999-.16998,1.95996-.44,2.88995-.83002,1.25-.52997,2.37-1.23999,3.36005-2.08997l4.83997,4.82996c-.03998.10004-.08002.19-.12.29004h-2.35999c-.41998-1.16003-1.52002-2-2.82001-2-1.65002,0-3,1.34998-3,3s1.34998,3,3,3c1.29999,0,2.40002-.84003,2.82001-2h2.35999c.41998,1.15997,1.52002,2,2.82001,2,1.65002,0,3-1.35004,3-3,0-1.29999-.84003-2.40002-2-2.82001v-2.35999c1.15997-.42004,2-1.52002,2-2.82001,0-1.65002-1.34998-3-3-3s-3,1.34998-3,3c0,1.29999.84003,2.39996,2,2.82001v2.35999c-.09998.03998-.19.08002-.28998.12l-4.84003-4.84003c1.97998-2.31,3.13-5.28998,3.13-8.45996s-1.15002-6.15002-3.13-8.46002l4.84003-4.83997c.09998.03998.19.07996.28998.12v2.35999c-1.15997.41998-2,1.52002-2,2.82001Z"/>
        <circle cx="16" cy="40" r="3"/>
      </g>
    </g>
  </g>
</svg>