<?xml version="1.0" encoding="UTF-8"?>
<svg xmlns="http://www.w3.org/2000/svg" version="1.1" viewBox="0 0 48 48">
  <!-- Generator: Adobe Illustrator 28.7.1, SVG Export Plug-In . SVG Version: 1.2.0 Build 142)  -->
  <g>
    <g id="GLYPH">
      <g>
        <circle cx="24" cy="16" r="3"/>
        <path d="M40,27c1.65002,0,3-1.35004,3-3s-1.34998-3-3-3c-.46002,0-.89001.10999-1.28998.29999l-4.01001-4.01001c.19-.39996.29999-.83002.29999-1.28998,0-.46002-.10999-.89001-.29999-1.29004l4.01001-4.00995c.09998.03998.19.07996.28998.12v2.17999c0,.54999.45001,1,1,1s1-.45001,1-1v-2.17999c1.15997-.42004,2-1.52002,2-2.82001,0-1.65002-1.34998-3-3-3-1.29999,0-2.40002.83997-2.82001,2h-2.17999c-.54999,0-1,.45001-1,1s.45001,1,1,1h2.17999c.03998.09998.08002.19.12.28998l-4.00995,4.01001c-.40002-.19-.83002-.29999-1.29004-.29999-.45996,0-.89001.10999-1.28998.29999l-4.01001-4.01001c.19-.39996.29999-.83002.29999-1.28998,0-1.65002-1.34998-3-3-3s-3,1.34998-3,3c0,.45996.10999.89001.29999,1.28998l-4.00995,4.01001c-.40002-.19-.83002-.29999-1.29004-.29999-.45996,0-.89001.10999-1.28998.29999l-4.01001-4.01001c.03998-.09998.08002-.19.12-.28998h2.17999c.54999,0,1-.45001,1-1s-.45001-1-1-1h-2.17999c-.41998-1.16003-1.52002-2-2.82001-2-1.64996,0-3,1.34998-3,3,0,1.29999.84003,2.39996,2,2.82001v2.17999c0,.54999.45001,1,1,1s1-.45001,1-1v-2.17999c.10004-.04004.19-.08002.29004-.12l4.00995,4.00995c-.19.40002-.29999.83002-.29999,1.29004,0,.45996.10999.89001.29999,1.28998l-4.00995,4.01001c-.40002-.19-.83002-.29999-1.29004-.29999-1.64996,0-3,1.34998-3,3s1.35004,3,3,3c.46002,0,.89001-.10999,1.29004-.29999l4.00995,4.00995c-.19.40002-.29999.83002-.29999,1.29004,0,.45996.10999.89001.29999,1.28998l-4.00995,4.01001c-.10004-.03998-.19-.08002-.29004-.12v-2.17999c0-.54999-.45001-1-1-1s-1,.45001-1,1v2.17999c-1.15997.41998-2,1.52002-2,2.82001,0,1.64996,1.35004,3,3,3,1.29999,0,2.40002-.84003,2.82001-2h2.17999c.54999,0,1-.45001,1-1s-.45001-1-1-1h-2.17999c-.03998-.10004-.08002-.19-.12-.29004l4.01001-4.00995c.39996.19.83002.29999,1.28998.29999.46002,0,.89001-.10999,1.29004-.29999l4.00995,4.00995c-.19.40002-.29999.83002-.29999,1.29004,0,1.64996,1.35004,3,3,3s3-1.35004,3-3c0-.46002-.10999-.89001-.29999-1.29004l4.01001-4.00995c.39996.19.83002.29999,1.28998.29999.46002,0,.89001-.10999,1.29004-.29999l4.00995,4.00995c-.03998.10004-.08002.19-.12.29004h-2.17999c-.54999,0-1,.45001-1,1s.45001,1,1,1h2.17999c.41998,1.15997,1.52002,2,2.82001,2,1.65002,0,3-1.35004,3-3,0-1.29999-.84003-2.40002-2-2.82001v-2.17999c0-.54999-.45001-1-1-1s-1,.45001-1,1v2.17999c-.09998.03998-.19.08002-.28998.12l-4.01001-4.01001c.19-.39996.29999-.83002.29999-1.28998,0-.46002-.10999-.89001-.29999-1.29004l4.01001-4.00995c.39996.19.82996.29999,1.28998.29999ZM18.70001,14.70996l4.01001-4.00995c.39996.19.83002.29999,1.28998.29999.46002,0,.89001-.10999,1.29004-.29999l4.00995,4.00995c-.19.40002-.29999.83002-.29999,1.29004,0,.45996.10999.89001.29999,1.28998l-4.00995,4.01001c-.40002-.19-.83002-.29999-1.29004-.29999-.45996,0-.89001.10999-1.28998.29999l-4.01001-4.01001c.19-.39996.29999-.83002.29999-1.28998,0-.46002-.10999-.89001-.29999-1.29004ZM14.71002,18.70001c.39996.19.83002.29999,1.28998.29999.46002,0,.89001-.10999,1.29004-.29999l4.00995,4.00995c-.03998.10004-.07996.19-.12.29004h-2.35999c-.41998-1.16003-1.52002-2-2.82001-2s-2.39996.83997-2.82001,2h-2.35999c-.03998-.10004-.08002-.19-.12-.29004l4.01001-4.00995ZM16,29c-.45996,0-.89001.10999-1.28998.29999l-4.01001-4.01001c.03998-.09998.08002-.19.12-.28998h2.35999c.42004,1.15997,1.52002,2,2.82001,2s2.40002-.84003,2.82001-2h2.35999c.04004.09998.08002.19.12.28998l-4.00995,4.01001c-.40002-.19-.83002-.29999-1.29004-.29999ZM29.29999,33.28998l-4.00995,4.01001c-.40002-.19-.83002-.29999-1.29004-.29999-.45996,0-.89001.10999-1.28998.29999l-4.01001-4.01001c.19-.39996.29999-.83002.29999-1.28998,0-.46002-.10999-.89001-.29999-1.29004l4.01001-4.00995c.39996.19.83002.29999,1.28998.29999.46002,0,.89001-.10999,1.29004-.29999l4.00995,4.00995c-.19.40002-.29999.83002-.29999,1.29004,0,.45996.10999.89001.29999,1.28998ZM33.29004,29.29999c-.40002-.19-.83002-.29999-1.29004-.29999-.45996,0-.89001.10999-1.28998.29999l-4.01001-4.01001c.03998-.09998.08002-.19.12-.28998h2.35999c.42004,1.15997,1.52002,2,2.82001,2s2.40002-.84003,2.82001-2h2.35999c.03998.09998.08002.19.12.28998l-4.00995,4.01001ZM37.17999,23h-2.35999c-.41998-1.16003-1.52002-2-2.82001-2s-2.39996.83997-2.82001,2h-2.35999c-.03998-.10004-.08002-.19-.12-.29004l4.01001-4.00995c.39996.19.83002.29999,1.28998.29999.46002,0,.89001-.10999,1.29004-.29999l4.00995,4.00995c-.03998.10004-.08002.19-.12.29004Z"/>
        <circle cx="24" cy="32" r="3"/>
      </g>
    </g>
  </g>
</svg>