<?xml version="1.0" encoding="UTF-8"?>
<svg xmlns="http://www.w3.org/2000/svg" version="1.1" viewBox="0 0 48 48">
  <!-- Generator: Adobe Illustrator 28.7.1, SVG Export Plug-In . SVG Version: 1.2.0 Build 142)  -->
  <g>
    <g id="GLYPH">
      <g>
        <path d="M8,35c-.55231,0-1,.44769-1,1v1h14v-1c0-.55231-.44769-1-1-1h-12Z"/>
        <rect x="5" y="39" width="18" height="4" rx="1" ry="1"/>
        <path d="M18,9c0-2.21002-1.78998-4-4-4s-4,1.78998-4,4v4h8v-4Z"/>
        <rect x="10" y="21" width="8" height="3"/>
        <rect x="10" y="26" width="8" height="2"/>
        <rect x="10" y="30" width="8" height="3"/>
        <path d="M6,19h13.07001c-.04999-.33002-.07001-.66003-.07001-1,0-1.06.21002-2.07001.59003-3H6c-.54999,0-1,.45001-1,1v2c0,.54999.45001,1,1,1Z"/>
        <circle cx="27" cy="18" r="1"/>
        <path d="M33,18c0-3.30847-2.69196-6-6-6s-6,2.69153-6,6,2.69196,6,6,6,6-2.69159,6-6ZM27,21c-1.6543,0-3-1.3457-3-3s1.3457-3,3-3,3,1.3457,3,3-1.3457,3-3,3Z"/>
        <path d="M40.71002,32.70996c.0036-.00366,2-2,2-2,.17999-.19.28998-.44.28998-.70996v-2c0-.32001-.15997-.62-.41998-.81l-2.61005-1.88c.01001-.10004.03003-.20001.03003-.31,0-1.29999-.84003-2.40002-2-2.82001v-3.17999h4c.54999,0,1-.45001,1-1v-2c0-.54999-.45001-1-1-1h-4v-2c0-.54999-.45001-1-1-1s-1,.45001-1,1v2h-1.59003c.38.92999.59003,1.94.59003,3,0,.33997-.02002.66998-.06,1h1.06v3.17999c-1.15997.41998-2,1.52002-2,2.82001,0,.10999.02002.20996.03003.31l-2.61005,1.88c-.26001.19-.41998.48999-.41998.81v2c0,.26996.10999.51996.28998.70996l2,2c.38678.36737,1.04596.37415,1.4201-.00006.38989-.39001.38989-1.02997-.00006-1.41992l-1.71002-1.70001v-1.07996l1.90997-1.37c.54004.52997,1.28003.85999,2.09003.85999s1.54999-.33002,2.09003-.85999l1.90997,1.37v1.07996l-1.71002,1.70001c-.38995.39001-.38995,1.03003,0,1.41998.38501.36572,1.03711.38293,1.42004,0Z"/>
        <rect x="36" y="35" width="2" height="8"/>
        <path d="M43,35h-3v8h3c.55273,0,1-.44775,1-1v-6c0-.55225-.44727-1-1-1Z"/>
        <path d="M30,36v6c0,.55225.44727,1,1,1h3v-8h-3c-.55273,0-1,.44775-1,1Z"/>
        <path d="M9,24c-.54999,0-1,.45001-1,1s.45001,1,1,1h1v-2h-1Z"/>
        <path d="M18,24v2h1c.54999,0,1-.45001,1-1s-.45001-1-1-1h-1Z"/>
        <path d="M9,28c-.54999,0-1,.45001-1,1s.45001,1,1,1h1v-2h-1Z"/>
        <path d="M19,30c.54999,0,1-.45001,1-1s-.45001-1-1-1h-1v2h1Z"/>
      </g>
    </g>
  </g>
</svg>