<svg xmlns="http://www.w3.org/2000/svg" width="1440" height="900" viewBox="0 0 1440 900">
<rect x="0" y="0" width="1440" height="900" rx="0" fill="#F6F6F6" />
<rect x="0" y="0" width="280" height="900" rx="0" fill="#FFFFFF" stroke="rgba(19,33,54,0.12)" stroke-width="1" />
<text x="32" y="42" font-family="Hermes, Calibri, Arial, sans-serif" font-size="18" font-weight="700" fill="#132136" text-anchor="start">Swipe Savvy</text>
<text x="32" y="62" font-family="Barlow, Calibri, Arial, sans-serif" font-size="12" font-weight="500" fill="#4B4D4D" text-anchor="start">Master Web Portal</text>
<rect x="16" y="92" width="248" height="44" rx="12" fill="rgba(35,83,147,0.12)" />
<g transform="translate(32,102) scale(0.9166666666666666)" style="color:#235393;opacity:1.0;">
<rect x="3" y="3" width="8" height="8" rx="2"></rect>
<rect x="13" y="3" width="8" height="8" rx="2"></rect>
<rect x="3" y="13" width="8" height="8" rx="2"></rect>
<rect x="13" y="13" width="8" height="8" rx="2"></rect>
</g>
<text x="66" y="118" font-family="Barlow, Calibri, Arial, sans-serif" font-size="14" font-weight="600" fill="#235393" text-anchor="start">Overview</text>
<g transform="translate(32,156) scale(0.9166666666666666)" style="color:#132136;opacity:0.55;">
<line x1="4" y1="20" x2="20" y2="20"></line>
<rect x="5" y="11" width="3" height="9" rx="1"></rect>
<rect x="10.5" y="7" width="3" height="13" rx="1"></rect>
<rect x="16" y="13" width="3" height="7" rx="1"></rect>
</g>
<text x="66" y="172" font-family="Barlow, Calibri, Arial, sans-serif" font-size="14" font-weight="500" fill="#132136" text-anchor="start">Transactions</text>
<g transform="translate(32,210) scale(0.9166666666666666)" style="color:#132136;opacity:0.55;">
<path d="M7 7h10l-2.5-2.5"></path>
<path d="M17 17H7l2.5 2.5"></path>
</g>
<text x="66" y="226" font-family="Barlow, Calibri, Arial, sans-serif" font-size="14" font-weight="500" fill="#132136" text-anchor="start">Money Movement</text>
<g transform="translate(32,264) scale(0.9166666666666666)" style="color:#132136;opacity:0.55;">
<path d="M12 2.8l7 3.2v6.2c0 5-3.2 8.7-7 9.8-3.8-1.1-7-4.8-7-9.8V6l7-3.2z"></path>
<path d="M12 8v5"></path>
<circle cx="12" cy="15.8" r="0.9"></circle>
</g>
<text x="66" y="280" font-family="Barlow, Calibri, Arial, sans-serif" font-size="14" font-weight="500" fill="#132136" text-anchor="start">Risk &amp; Fraud</text>
<g transform="translate(32,318) scale(0.9166666666666666)" style="color:#132136;opacity:0.55;">
<path d="M13 2L4 14h7l-1 8 9-12h-7l1-8z"></path>
</g>
<text x="66" y="334" font-family="Barlow, Calibri, Arial, sans-serif" font-size="14" font-weight="500" fill="#132136" text-anchor="start">Reliability</text>
<g transform="translate(32,372) scale(0.9166666666666666)" style="color:#132136;opacity:0.55;">
<path d="M12 2.8l2.7 5.5 6.1.9-4.4 4.3 1 6.1L12 16.9 6.6 19.6l1-6.1-4.4-4.3 6.1-.9L12 2.8z"></path>
</g>
<text x="66" y="388" font-family="Barlow, Calibri, Arial, sans-serif" font-size="14" font-weight="500" fill="#132136" text-anchor="start">Rewards &amp; Impact</text>
<g transform="translate(32,426) scale(0.9166666666666666)" style="color:#132136;opacity:0.55;">
<path d="M4 12a8 8 0 0 1 16 0"></path>
<rect x="3.5" y="12" width="3.5" height="6" rx="1.5"></rect>
<rect x="17" y="12" width="3.5" height="6" rx="1.5"></rect>
<path d="M17 18c0 1.7-1.6 3-3.5 3H12"></path>
</g>
<text x="66" y="442" font-family="Barlow, Calibri, Arial, sans-serif" font-size="14" font-weight="500" fill="#132136" text-anchor="start">Support</text>
<g transform="translate(32,480) scale(0.9166666666666666)" style="color:#132136;opacity:0.55;">
<circle cx="12" cy="12" r="3"></circle>
<path d="M19.4 15a7.8 7.8 0 0 0 .1-6l-2 1.2a6 6 0 0 0-1.7-1.7L17 6.6a7.8 7.8 0 0 0-6-.1l.2 2.3a6 6 0 0 0-1.7 1.7L6.6 10.5a7.8 7.8 0 0 0-.1 6l2.3-.2a6 6 0 0 0 1.7 1.7l-.2 2.3a7.8 7.8 0 0 0 6 .1l-1.2-2a6 6 0 0 0 1.7-1.7l2.6.4z"></path>
</g>
<text x="66" y="496" font-family="Barlow, Calibri, Arial, sans-serif" font-size="14" font-weight="500" fill="#132136" text-anchor="start">Settings</text>
<rect x="280" y="0" width="1160" height="64" rx="0" fill="#FFFFFF" stroke="rgba(19,33,54,0.12)" stroke-width="1" />
<rect x="300" y="14" width="320" height="36" rx="12" fill="rgba(19,33,54,0.03)" stroke="rgba(19,33,54,0.12)" stroke-width="1" />
<g transform="translate(312,22) scale(0.75)" style="color:#4B4D4D;opacity:0.9;">
<circle cx="11" cy="11" r="6"></circle>
<line x1="16" y1="16" x2="21" y2="21"></line>
</g>
<text x="340" y="37" font-family="Barlow, Calibri, Arial, sans-serif" font-size="13" font-weight="400" fill="#4B4D4D" text-anchor="start">Search…</text>
<rect x="1020" y="14" width="160" height="36" rx="12" fill="rgba(19,33,54,0.03)" stroke="rgba(19,33,54,0.12)" stroke-width="1" />
<text x="1040" y="37" font-family="Barlow, Calibri, Arial, sans-serif" font-size="13" font-weight="600" fill="#132136" text-anchor="start">Last 30 days</text>
<g transform="translate(1160,22) scale(0.75)" style="color:#4B4D4D;opacity:0.9;"><path d="M6 9l6 6 6-6"></path></g>
<rect x="1200" y="14" width="100" height="36" rx="12" fill="rgba(35,83,147,0.12)" />
<g transform="translate(1216,22) scale(0.75)" style="color:#235393;opacity:1.0;">
<path d="M12 3v10"></path>
<path d="M8 9l4 4 4-4"></path>
<rect x="4" y="17" width="16" height="4" rx="2"></rect>
</g>
<text x="1250" y="37" font-family="Barlow, Calibri, Arial, sans-serif" font-size="13" font-weight="600" fill="#235393" text-anchor="start">Export</text>
<rect x="1320" y="14" width="92" height="36" rx="12" fill="rgba(19,33,54,0.03)" stroke="rgba(19,33,54,0.12)" stroke-width="1" />
<g transform="translate(1336,22) scale(0.75)" style="color:#4B4D4D;opacity:0.9;">
<circle cx="12" cy="8" r="3.2"></circle>
<path d="M5 20c1.8-3.6 5-5.4 7-5.4s5.2 1.8 7 5.4"></path>
</g>
<text x="1370" y="37" font-family="Barlow, Calibri, Arial, sans-serif" font-size="13" font-weight="600" fill="#132136" text-anchor="middle">Me</text>
<rect x="304" y="88" width="1112" height="788" rx="16" fill="transparent" stroke="rgba(0,0,0,0)" stroke-width="1" />
<text x="304" y="112" font-family="Hermes, Calibri, Arial, sans-serif" font-size="20" font-weight="700" fill="#132136" text-anchor="start">Dashboard Title</text>
<text x="304" y="134" font-family="Barlow, Calibri, Arial, sans-serif" font-size="13" font-weight="400" fill="#4B4D4D" text-anchor="start">Subtitle / context / data freshness banner goes here.</text>
<rect x="304.0" y="158" width="266.0" height="120" rx="16" fill="#FFFFFF" stroke="rgba(19,33,54,0.12)" stroke-width="1" />
<text x="320.0" y="188" font-family="Barlow, Calibri, Arial, sans-serif" font-size="12" font-weight="700" fill="#4B4D4D" text-anchor="start">KPI</text>
<text x="320.0" y="226" font-family="Barlow, Calibri, Arial, sans-serif" font-size="26" font-weight="700" fill="#132136" text-anchor="start">—</text>
<rect x="586.0" y="158" width="266.0" height="120" rx="16" fill="#FFFFFF" stroke="rgba(19,33,54,0.12)" stroke-width="1" />
<text x="602.0" y="188" font-family="Barlow, Calibri, Arial, sans-serif" font-size="12" font-weight="700" fill="#4B4D4D" text-anchor="start">KPI</text>
<text x="602.0" y="226" font-family="Barlow, Calibri, Arial, sans-serif" font-size="26" font-weight="700" fill="#132136" text-anchor="start">—</text>
<rect x="868.0" y="158" width="266.0" height="120" rx="16" fill="#FFFFFF" stroke="rgba(19,33,54,0.12)" stroke-width="1" />
<text x="884.0" y="188" font-family="Barlow, Calibri, Arial, sans-serif" font-size="12" font-weight="700" fill="#4B4D4D" text-anchor="start">KPI</text>
<text x="884.0" y="226" font-family="Barlow, Calibri, Arial, sans-serif" font-size="26" font-weight="700" fill="#132136" text-anchor="start">—</text>
<rect x="1150.0" y="158" width="266.0" height="120" rx="16" fill="#FFFFFF" stroke="rgba(19,33,54,0.12)" stroke-width="1" />
<text x="1166.0" y="188" font-family="Barlow, Calibri, Arial, sans-serif" font-size="12" font-weight="700" fill="#4B4D4D" text-anchor="start">KPI</text>
<text x="1166.0" y="226" font-family="Barlow, Calibri, Arial, sans-serif" font-size="26" font-weight="700" fill="#132136" text-anchor="start">—</text>
<rect x="304" y="294" width="548.0" height="320" rx="16" fill="#FFFFFF" stroke="rgba(19,33,54,0.12)" stroke-width="1" />
<rect x="868.0" y="294" width="548.0" height="320" rx="16" fill="#FFFFFF" stroke="rgba(19,33,54,0.12)" stroke-width="1" />
<text x="320" y="324" font-family="Barlow, Calibri, Arial, sans-serif" font-size="12" font-weight="700" fill="#4B4D4D" text-anchor="start">Chart</text>
<text x="884.0" y="324" font-family="Barlow, Calibri, Arial, sans-serif" font-size="12" font-weight="700" fill="#4B4D4D" text-anchor="start">Chart / Breakdown</text>
<rect x="304" y="630" width="1112" height="246" rx="16" fill="#FFFFFF" stroke="rgba(19,33,54,0.12)" stroke-width="1" />
<text x="320" y="660" font-family="Barlow, Calibri, Arial, sans-serif" font-size="12" font-weight="700" fill="#4B4D4D" text-anchor="start">Table</text>
<rect x="304.0" y="88" width="78.0" height="788" rx="0" fill="rgba(96,186,70,0.06)" />
<rect x="398.0" y="88" width="78.0" height="788" rx="0" fill="rgba(96,186,70,0.06)" />
<rect x="492.0" y="88" width="78.0" height="788" rx="0" fill="rgba(96,186,70,0.06)" />
<rect x="586.0" y="88" width="78.0" height="788" rx="0" fill="rgba(96,186,70,0.06)" />
<rect x="680.0" y="88" width="78.0" height="788" rx="0" fill="rgba(96,186,70,0.06)" />
<rect x="774.0" y="88" width="78.0" height="788" rx="0" fill="rgba(96,186,70,0.06)" />
<rect x="868.0" y="88" width="78.0" height="788" rx="0" fill="rgba(96,186,70,0.06)" />
<rect x="962.0" y="88" width="78.0" height="788" rx="0" fill="rgba(96,186,70,0.06)" />
<rect x="1056.0" y="88" width="78.0" height="788" rx="0" fill="rgba(96,186,70,0.06)" />
<rect x="1150.0" y="88" width="78.0" height="788" rx="0" fill="rgba(96,186,70,0.06)" />
<rect x="1244.0" y="88" width="78.0" height="788" rx="0" fill="rgba(96,186,70,0.06)" />
<rect x="1338.0" y="88" width="78.0" height="788" rx="0" fill="rgba(96,186,70,0.06)" />
<line x1="304" y1="88" x2="1416" y2="88" stroke="rgba(250,185,21,0.10)" stroke-width="1"/>
<line x1="304" y1="112" x2="1416" y2="112" stroke="rgba(250,185,21,0.10)" stroke-width="1"/>
<line x1="304" y1="136" x2="1416" y2="136" stroke="rgba(250,185,21,0.10)" stroke-width="1"/>
<line x1="304" y1="160" x2="1416" y2="160" stroke="rgba(250,185,21,0.10)" stroke-width="1"/>
<line x1="304" y1="184" x2="1416" y2="184" stroke="rgba(250,185,21,0.10)" stroke-width="1"/>
<line x1="304" y1="208" x2="1416" y2="208" stroke="rgba(250,185,21,0.10)" stroke-width="1"/>
<line x1="304" y1="232" x2="1416" y2="232" stroke="rgba(250,185,21,0.10)" stroke-width="1"/>
<line x1="304" y1="256" x2="1416" y2="256" stroke="rgba(250,185,21,0.10)" stroke-width="1"/>
<line x1="304" y1="280" x2="1416" y2="280" stroke="rgba(250,185,21,0.10)" stroke-width="1"/>
<line x1="304" y1="304" x2="1416" y2="304" stroke="rgba(250,185,21,0.10)" stroke-width="1"/>
<line x1="304" y1="328" x2="1416" y2="328" stroke="rgba(250,185,21,0.10)" stroke-width="1"/>
<line x1="304" y1="352" x2="1416" y2="352" stroke="rgba(250,185,21,0.10)" stroke-width="1"/>
<line x1="304" y1="376" x2="1416" y2="376" stroke="rgba(250,185,21,0.10)" stroke-width="1"/>
<line x1="304" y1="400" x2="1416" y2="400" stroke="rgba(250,185,21,0.10)" stroke-width="1"/>
<line x1="304" y1="424" x2="1416" y2="424" stroke="rgba(250,185,21,0.10)" stroke-width="1"/>
<line x1="304" y1="448" x2="1416" y2="448" stroke="rgba(250,185,21,0.10)" stroke-width="1"/>
<line x1="304" y1="472" x2="1416" y2="472" stroke="rgba(250,185,21,0.10)" stroke-width="1"/>
<line x1="304" y1="496" x2="1416" y2="496" stroke="rgba(250,185,21,0.10)" stroke-width="1"/>
<line x1="304" y1="520" x2="1416" y2="520" stroke="rgba(250,185,21,0.10)" stroke-width="1"/>
<line x1="304" y1="544" x2="1416" y2="544" stroke="rgba(250,185,21,0.10)" stroke-width="1"/>
<line x1="304" y1="568" x2="1416" y2="568" stroke="rgba(250,185,21,0.10)" stroke-width="1"/>
<line x1="304" y1="592" x2="1416" y2="592" stroke="rgba(250,185,21,0.10)" stroke-width="1"/>
<line x1="304" y1="616" x2="1416" y2="616" stroke="rgba(250,185,21,0.10)" stroke-width="1"/>
<line x1="304" y1="640" x2="1416" y2="640" stroke="rgba(250,185,21,0.10)" stroke-width="1"/>
<line x1="304" y1="664" x2="1416" y2="664" stroke="rgba(250,185,21,0.10)" stroke-width="1"/>
<line x1="304" y1="688" x2="1416" y2="688" stroke="rgba(250,185,21,0.10)" stroke-width="1"/>
<line x1="304" y1="712" x2="1416" y2="712" stroke="rgba(250,185,21,0.10)" stroke-width="1"/>
<line x1="304" y1="736" x2="1416" y2="736" stroke="rgba(250,185,21,0.10)" stroke-width="1"/>
<line x1="304" y1="760" x2="1416" y2="760" stroke="rgba(250,185,21,0.10)" stroke-width="1"/>
<line x1="304" y1="784" x2="1416" y2="784" stroke="rgba(250,185,21,0.10)" stroke-width="1"/>
<line x1="304" y1="808" x2="1416" y2="808" stroke="rgba(250,185,21,0.10)" stroke-width="1"/>
<line x1="304" y1="832" x2="1416" y2="832" stroke="rgba(250,185,21,0.10)" stroke-width="1"/>
<line x1="304" y1="856" x2="1416" y2="856" stroke="rgba(250,185,21,0.10)" stroke-width="1"/>
</svg>