<?xml version="1.0" encoding="UTF-8"?>
<svg xmlns="http://www.w3.org/2000/svg" version="1.1" viewBox="0 0 48 48">
  <!-- Generator: Adobe Illustrator 28.7.1, SVG Export Plug-In . SVG Version: 1.2.0 Build 142)  -->
  <g>
    <g id="GLYPH">
      <g>
        <rect x="22" y="20" width="4" height="3"/>
        <rect x="22" y="25" width="4" height="3"/>
        <circle cx="34" cy="28" r="1"/>
        <path d="M42,20c0-1.71002-.75-3.34003-2.02002-4.48004.01001-.17999.02002-.34998.02002-.51996,0-2.77002-1.94-5.17004-4.59003-5.81-1.10999-2.53003-3.62-4.19-6.40997-4.19-1.90002,0-3.70001.76996-5,2.09998-1.29999-1.33002-3.09998-2.09998-5-2.09998-2.78998,0-5.29999,1.65997-6.40997,4.19-2.65002.63995-4.59003,3.03998-4.59003,5.81,0,.16998.01001.33997.02002.51996-1.27002,1.14001-2.02002,2.77002-2.02002,4.48004,0,1.26996.40002,2.47998,1.13,3.5-.72998,1.01996-1.13,2.22998-1.13,3.5,0,1.79999.79999,3.46997,2.16998,4.60999-.10999.46002-.16998.92999-.16998,1.39001,0,2.76996,1.94,5.16998,4.59003,5.81,1.10999,2.52997,3.62,4.19,6.40997,4.19,1.90002,0,3.70001-.77002,5-2.10004,1.29999,1.33002,3.09998,2.10004,5,2.10004,2.78998,0,5.29999-1.66003,6.40997-4.19,2.65002-.64001,4.59003-3.04004,4.59003-5.81,0-.46002-.06-.92999-.16998-1.39001,1.37-1.14001,2.16998-2.81,2.16998-4.60999,0-1.27002-.40002-2.48004-1.13-3.5.72998-1.02002,1.13-2.23004,1.13-3.5ZM31.46002,16h-3.46002v16h3.46002l.96997-1.45001c-.84998-.53003-1.42999-1.47003-1.42999-2.54999,0-1.65002,1.34998-3,3-3s3,1.34998,3,3c0,1.45996-1.04999,2.66998-2.42999,2.94l-1.73999,2.60999c-.17999.27997-.5.45001-.83002.45001h-4v1c0,.54999-.45001,1-1,1h-6c-.54999,0-1-.45001-1-1v-1h-4c-.33002,0-.65002-.17004-.83002-.45001l-1.73999-2.60999c-1.38-.27002-2.42999-1.48004-2.42999-2.94,0-1.65002,1.34998-3,3-3s3,1.34998,3,3c0,1.07996-.58002,2.01996-1.42999,2.54999l.96997,1.45001h3.46002v-16h-3.46002l-.96997,1.45001c.84998.52997,1.42999,1.46997,1.42999,2.54999,0,1.64996-1.34998,3-3,3s-3-1.35004-3-3c0-1.46002,1.04999-2.67004,2.42999-2.94l1.73999-2.60999c.17999-.28003.5-.45001.83002-.45001h4v-1c0-.54999.45001-1,1-1h6c.54999,0,1,.45001,1,1v1h4c.33002,0,.65002.16998.83002.45001l1.73999,2.60999c1.38.26996,2.42999,1.47998,2.42999,2.94,0,1.64996-1.34998,3-3,3s-3-1.35004-3-3c0-1.08002.58002-2.02002,1.42999-2.54999l-.96997-1.45001Z"/>
        <circle cx="14" cy="28" r="1"/>
        <circle cx="14" cy="20" r="1"/>
        <circle cx="34" cy="20" r="1"/>
        <rect x="22" y="14" width="4" height="4"/>
        <rect x="22" y="30" width="4" height="4"/>
      </g>
    </g>
  </g>
</svg>