<?xml version="1.0" encoding="UTF-8"?>
<svg xmlns="http://www.w3.org/2000/svg" version="1.1" viewBox="0 0 48 48">
  <!-- Generator: Adobe Illustrator 28.7.1, SVG Export Plug-In . SVG Version: 1.2.0 Build 142)  -->
  <g>
    <g id="OUTLINE">
      <g>
        <path d="M42,20c0-1.7124-.74756-3.34619-2.02637-4.48096.01758-.17773.02637-.35107.02637-.51904,0-2.771-1.93506-5.16992-4.59033-5.80908-1.11084-2.52979-3.61621-4.19092-6.40967-4.19092-1.90771,0-3.70068.76953-5.00293,2.10596-.19287-.19385-.39844-.37744-.6167-.55029-.43213-.34277-1.06201-.27002-1.40479.16357-.34277.43311-.26953,1.06201.16357,1.40479.40723.32227.75195.69678,1.02393,1.11279.18408.28223.49756.45215.83447.45312h.00244c.33594,0,.64941-.16846.83447-.44873.92676-1.40332,2.48389-2.24121,4.16553-2.24121,2.1377,0,4.04004,1.36377,4.73389,3.39307.12256.3584.43652.6167.81152.66748,1.96973.26758,3.45459,1.96143,3.45459,3.93945,0,.22656-.02734.47656-.08057.74365-.07715.38525.07861.78027.39795,1.00928,1.05371.75488,1.68262,1.96875,1.68262,3.24707,0,1.05322-.40869,2.04639-1.15088,2.79688-.38525.38965-.38525,1.0166,0,1.40625.74219.75049,1.15088,1.74365,1.15088,2.79688,0,1.36719-.70166,2.62939-1.87646,3.37646-.40088.25488-.56689.75684-.39746,1.20068.18164.47607.27393.95459.27393,1.42285,0,1.97803-1.48486,3.67188-3.45459,3.93945-.375.05078-.68896.30908-.81152.66748-.69385,2.0293-2.59619,3.39307-4.73389,3.39307-1.68164,0-3.23877-.83789-4.16553-2.24121-.37012-.56055-1.29883-.56055-1.66895,0-.92676,1.40332-2.48389,2.24121-4.16553,2.24121-2.1377,0-4.04004-1.36377-4.73389-3.39307-.12256-.3584-.43652-.6167-.81152-.66748-1.96973-.26758-3.45459-1.96143-3.45459-3.93945,0-.46826.09229-.94678.27393-1.42285.16943-.44385.00342-.9458-.39746-1.20068-1.1748-.74707-1.87646-2.00928-1.87646-3.37646,0-1.05322.40869-2.04639,1.15088-2.79688.38525-.38965.38525-1.0166,0-1.40625-.74219-.75049-1.15088-1.74365-1.15088-2.79688,0-1.27832.62891-2.49219,1.68262-3.24707.31934-.229.4751-.62402.39795-1.00928-.05322-.26709-.08057-.51709-.08057-.74365,0-1.97803,1.48486-3.67188,3.45459-3.93945.37549-.05078.68994-.31006.81201-.66895.30762-.90527.85938-1.69336,1.5957-2.27881.43262-.34326.50439-.97266.16064-1.40479-.34424-.43359-.97412-.50488-1.40479-.16064-.88281.70166-1.57666,1.60742-2.0293,2.64355-2.6543.64014-4.58887,3.03857-4.58887,5.80908,0,.16797.00879.34131.02637.51904-1.27881,1.13477-2.02637,2.76855-2.02637,4.48096,0,1.27295.39697,2.4873,1.13184,3.5-.73486,1.0127-1.13184,2.22705-1.13184,3.5,0,1.79541.7998,3.46729,2.17285,4.60498-.11475.46387-.17285.93066-.17285,1.39502,0,2.771,1.93506,5.16992,4.59033,5.80908,1.11084,2.52979,3.61621,4.19092,6.40967,4.19092,1.90625,0,3.69775-.76855,5-2.10303,1.30225,1.33447,3.09375,2.10303,5,2.10303,2.79346,0,5.29883-1.66113,6.40967-4.19092,2.65527-.63916,4.59033-3.03809,4.59033-5.80908,0-.46436-.05811-.93115-.17285-1.39502,1.37305-1.1377,2.17285-2.80957,2.17285-4.60498,0-1.27295-.39697-2.4873-1.13184-3.5.73486-1.0127,1.13184-2.22705,1.13184-3.5Z"/>
        <path d="M20,14h-4c-.33002,0-.65002.16998-.83002.45001l-1.73999,2.60999c-1.38.26996-2.42999,1.47998-2.42999,2.94,0,1.64996,1.34998,3,3,3s3-1.35004,3-3c0-1.08002-.58002-2.02002-1.42999-2.54999l.96997-1.45001h3.46002v16h-3.46002l-.96997-1.45001c.84998-.53003,1.42999-1.47003,1.42999-2.54999,0-1.65002-1.34998-3-3-3s-3,1.34998-3,3c0,1.45996,1.04999,2.66998,2.42999,2.94l1.73999,2.60999c.17999.27997.5.45001.83002.45001h4v1c0,.54999.45001,1,1,1h6c.54999,0,1-.45001,1-1v-1h4c.33002,0,.65002-.17004.83002-.45001l1.73999-2.60999c1.38-.27002,2.42999-1.48004,2.42999-2.94,0-1.65002-1.34998-3-3-3s-3,1.34998-3,3c0,1.07996.58002,2.01996,1.42999,2.54999l-.96997,1.45001h-3.46002v-16h3.46002l.96997,1.45001c-.84998.52997-1.42999,1.46997-1.42999,2.54999,0,1.64996,1.34998,3,3,3s3-1.35004,3-3c0-1.46002-1.04999-2.67004-2.42999-2.94l-1.73999-2.60999c-.17999-.28003-.5-.45001-.83002-.45001h-4v-1c0-.54999-.45001-1-1-1h-6c-.54999,0-1,.45001-1,1v1ZM14,21c-.54999,0-1-.45001-1-1s.45001-1,1-1,1,.45001,1,1-.45001,1-1,1ZM14,29c-.54999,0-1-.45001-1-1s.45001-1,1-1,1,.45001,1,1-.45001,1-1,1ZM34,27c.54999,0,1,.45001,1,1s-.45001,1-1,1-1-.45001-1-1,.45001-1,1-1ZM34,19c.54999,0,1,.45001,1,1s-.45001,1-1,1-1-.45001-1-1,.45001-1,1-1ZM22,14h4v4h-4v-4ZM22,20h4v3h-4v-3ZM22,25h4v3h-4v-3ZM22,30h4v4h-4v-4Z"/>
        <circle cx="19" cy="6" r="1"/>
      </g>
    </g>
  </g>
</svg>