<?xml version="1.0" encoding="UTF-8"?>
<svg xmlns="http://www.w3.org/2000/svg" version="1.1" viewBox="0 0 48 48">
  <!-- Generator: Adobe Illustrator 28.7.1, SVG Export Plug-In . SVG Version: 1.2.0 Build 142)  -->
  <g>
    <g id="GLYPH">
      <g>
        <path d="M41,8v29c0,2.20996-1.78998,4-4,4H13c0,1.09998.90002,2,2,2h26c1.09998,0,2-.90002,2-2V10c0-1.10004-.90002-2-2-2Z"/>
        <circle cx="16" cy="32" r="1"/>
        <path d="M21.17383,21.17188c.4278-.4292.85999-.83917,1.29297-1.23651-2.58252-2.07196-4.59503-3.01642-5.36133-3.01642-.08643,0-.15723.01221-.21094.03564-.18683.48621.72662,2.64093,3.03845,5.51501.39868-.43457.81006-.86829,1.24084-1.29773Z"/>
        <path d="M25.41406,22.58594c-.48065-.48071-.95123-.9259-1.41046-1.34149-.47418.42932-.94812.87244-1.41571,1.34149-.46954.46808-.91302.94244-1.34271,1.41705.41608.45959.8595.92987,1.34076,1.41107.4812.48126.95148.92468,1.41132,1.3407.47388-.42908.94751-.87189,1.41486-1.3407.46954-.46808.91302-.94244,1.34271-1.41705-.41608-.45959-.8595-.92987-1.34076-1.41107Z"/>
        <path d="M19.93506,25.53174c-1.1283,1.40106-2.00861,2.73511-2.52209,3.8382.51678.27887.93823.70032,1.2171,1.2171,1.10364-.51373,2.43835-1.39447,3.8396-2.52313-.46606-.42517-.90533-.84326-1.29779-1.23578-.39313-.39307-.81091-.82947-1.23682-1.29639Z"/>
        <circle cx="32" cy="16" r="1"/>
        <path d="M26.82617,26.82812c-.42834.42975-.86108.84021-1.29462,1.23804,2.87811,2.30981,5.04626,3.2135,5.57391,2.97925.18683-.48621-.72662-2.64099-3.03839-5.51508-.39868.43457-.81012.86835-1.24091,1.29779Z"/>
        <path d="M39,37V7c0-1.10004-.90002-2-2-2H7c-1.09998,0-2,.89996-2,2v30c0,1.09998.90002,2,2,2h30c1.09998,0,2-.90002,2-2ZM9,8h4c.54999,0,1,.45001,1,1s-.45001,1-1,1h-4c-.54999,0-1-.45001-1-1s.45001-1,1-1ZM8,13c0-.54999.45001-1,1-1h4c.54999,0,1,.45001,1,1s-.45001,1-1,1h-4c-.54999,0-1-.45001-1-1ZM32.63,18.92999c-.58002,1.44-1.71997,3.21997-3.23999,5.07001,2.53998,3.08997,4.76001,6.82001,3.09998,8.48999-.40997.40002-.92999.57001-1.52997.57001-1.90002,0-4.60999-1.73999-6.96002-3.66998-1.84998,1.51996-3.63,2.65997-5.07001,3.23999-.28998,1.34998-1.48999,2.37-2.92999,2.37-1.64996,0-3-1.35004-3-3,0-1.44,1.02002-2.64001,2.37-2.92999.58002-1.44,1.72003-3.22003,3.23999-5.07001-2.53998-3.09003-4.75995-6.82001-3.09998-8.48999,1.66998-1.66003,5.40002.56,8.48999,3.09998,1.85004-1.52002,3.62-2.65997,5.07001-3.23999.28998-1.35004,1.48999-2.37,2.92999-2.37,1.65002,0,3,1.34998,3,3,0,1.44-1.01996,2.64001-2.37,2.92999Z"/>
        <path d="M29.36993,17.4129c-1.10321.51355-2.43744,1.39404-3.83826,2.52216.46698.42584.90338.84369,1.29645,1.23682.39313.39307.81091.82947,1.23682,1.29639,1.12836-1.40106,2.00867-2.73511,2.52216-3.8382-.51672-.27887-.93829-.70038-1.21716-1.21716Z"/>
      </g>
    </g>
  </g>
</svg>