<?xml version="1.0" encoding="UTF-8"?>
<svg xmlns="http://www.w3.org/2000/svg" version="1.1" viewBox="0 0 48 48">
  <!-- Generator: Adobe Illustrator 28.7.1, SVG Export Plug-In . SVG Version: 1.2.0 Build 142)  -->
  <g>
    <g id="GLYPH">
      <g>
        <path d="M41,10c0-1.10004-.90002-2-2-2v8.04999c.71997.46002,1.39001.98999,2,1.58002v-7.63Z"/>
        <path d="M31,41H11c0,1.09998.90002,2,2,2h26c1.09998,0,2-.90002,2-2v-4.63c-2.03998,1.95996-4.72998,3.27002-7.70001,3.56-.54999.65997-1.39001,1.07001-2.29999,1.07001Z"/>
        <circle cx="32" cy="27" r="1"/>
        <path d="M36.69336,24.83594l.89648-.58838-.88184-1.25781-.94727.62207c-.34375.22607-.79102.21875-1.12891-.02148-.35156-.25049-.73828-.44873-1.14746-.58936-.4043-.13867-.67578-.51855-.67578-.9458v-1.05518h-1.61719v1.05518c0,.42725-.27148.80713-.67578.9458-.40918.14062-.7959.33887-1.14746.58936-.33594.23926-.78516.24658-1.12891.02148l-.94727-.62207-.88184,1.25781.89648.58838c.36133.2373.5293.68018.41602,1.09766-.09766.36133-.14746.72021-.14746,1.06641s.0498.70508.14746,1.06641c.11328.41748-.05469.86035-.41602,1.09766l-.89648.58838.88184,1.25781.94727-.62207c.34473-.22461.79199-.21729,1.12891.02148.35156.25049.73828.44873,1.14746.58936.4043.13867.67578.51855.67578.9458v1.05518h1.61719v-1.05518c0-.42725.27148-.80713.67578-.9458.40918-.14062.7959-.33887,1.14746-.58936.33496-.23975.78418-.24707,1.12891-.02148l.94727.62207.88184-1.25781-.89648-.58838c-.36133-.2373-.5293-.68018-.41602-1.09766.09766-.36133.14746-.72021.14746-1.06641s-.0498-.70508-.14746-1.06641c-.11328-.41748.05469-.86035.41602-1.09766ZM32,30c-1.6543,0-3-1.3457-3-3s1.3457-3,3-3,3,1.3457,3,3-1.3457,3-3,3Z"/>
        <path d="M32,16c-6.06573,0-11,4.93469-11,11s4.93427,11,11,11,11-4.93469,11-11-4.93427-11-11-11ZM39.98242,24.70557c-.05078.26562-.20703.49951-.43359.64795l-1.18945.78076c.04395.29053.06543.58008.06543.86572s-.02148.5752-.06543.86572l1.18945.78076c.22656.14844.38281.38232.43359.64795s-.00879.54053-.16406.76221l-2.03027,2.896c-.30957.44238-.91602.55811-1.36719.26172l-1.21973-.80127c-.12891.07227-.25977.13965-.39258.20264v1.38428c0,.55225-.44727,1-1,1h-3.61719c-.55273,0-1-.44775-1-1v-1.38428c-.13281-.06299-.26367-.13037-.39258-.20264l-1.21973.80127c-.45215.29639-1.05859.18066-1.36719-.26172l-2.03027-2.896c-.15527-.22168-.21484-.49658-.16406-.76221s.20703-.49951.43359-.64795l1.18945-.78076c-.04395-.29053-.06543-.58008-.06543-.86572s.02148-.5752.06543-.86572l-1.18945-.78076c-.22656-.14844-.38281-.38232-.43359-.64795s.00879-.54053.16406-.76221l2.03027-2.896c.30859-.44189.91504-.55811,1.36719-.26172l1.21973.80127c.12891-.07227.25977-.13965.39258-.20264v-1.38428c0-.55225.44727-1,1-1h3.61719c.55273,0,1,.44775,1,1v1.38428c.13281.06299.26367.13037.39258.20264l1.21973-.80127c.45117-.29639,1.05762-.18018,1.36719.26172l2.03027,2.896c.15527.22168.21484.49658.16406.76221Z"/>
        <circle cx="15" cy="18" r="1"/>
        <path d="M19.65997,31.08997l-1.67999.72003c0,.06.02002.12.02002.19,0,1.64996-1.34998,3-3,3s-3-1.35004-3-3,1.34998-3,3-3c.87,0,1.65002.38,2.20001.96997l1.97998-.84998c-.12-.69-.17999-1.40002-.17999-2.12,0-.34003.03003-.67004.04999-1h-4.22998c-.41998,1.15997-1.52002,2-2.82001,2-1.65002,0-3-1.35004-3-3s1.34998-3,3-3c1.29999,0,2.40002.83997,2.82001,2h4.53998c.20001-.82001.47003-1.60004.79999-2.35004l-3.00995-1.57001c-.54004.57001-1.30005.92004-2.15002.92004-1.65002,0-3-1.35004-3-3s1.34998-3,3-3,3,1.34998,3,3c0,.08997-.02002.16998-.03003.25l3.16003,1.64996c2.32001-3.54999,6.32001-5.89996,10.87-5.89996,1.77002,0,3.46002.35999,5,1V7c0-1.10004-.90002-2-2-2H7c-1.09998,0-2,.89996-2,2v30c0,1.09998.90002,2,2,2h19.98999c-3.45001-1.45001-6.14001-4.34003-7.33002-7.91003ZM19,8h5c.54999,0,1,.45001,1,1s-.45001,1-1,1h-5c-.54999,0-1-.45001-1-1s.45001-1,1-1ZM19,12h5c.54999,0,1,.45001,1,1s-.45001,1-1,1h-5c-.54999,0-1-.45001-1-1s.45001-1,1-1Z"/>
        <circle cx="15" cy="32" r="1"/>
        <circle cx="12" cy="25" r="1"/>
      </g>
    </g>
  </g>
</svg>