<?xml version="1.0" encoding="UTF-8"?>
<svg xmlns="http://www.w3.org/2000/svg" version="1.1" viewBox="0 0 48 48">
  <!-- Generator: Adobe Illustrator 28.7.1, SVG Export Plug-In . SVG Version: 1.2.0 Build 142)  -->
  <g>
    <g id="GLYPH">
      <g>
        <path d="M21.17383,21.17188c.42816-.4295.86066-.83978,1.29395-1.23743-1.40094-1.12842-2.73474-2.00861-3.83759-2.52173-.27887.51691-.70056.9386-1.21747,1.21747.51318,1.10303,1.39349,2.43689,2.52173,3.83771.39825-.43396.80914-.86713,1.23938-1.29602Z"/>
        <circle cx="16" cy="16" r="1"/>
        <circle cx="32" cy="16" r="1"/>
        <path d="M25.41406,22.58789c-.46716-.46863-.94055-.91125-1.41412-1.34015-.4729.42834-.94562.8703-1.41205,1.3382-.46863.46716-.91125.94055-1.34015,1.41412.42834.4729.8703.94562,1.3382,1.41205.46716.46863.94055.91132,1.41412,1.34021.47296-.42834.94562-.87036,1.41205-1.33826.46863-.46716.91132-.94055,1.34021-1.41412-.42834-.47296-.87036-.94562-1.33826-1.41205Z"/>
        <path d="M29.36987,17.41272c-1.10303.51324-2.43695,1.39349-3.83777,2.52173.43396.39825.86713.80914,1.29602,1.23938.4295.42816.83978.86066,1.23743,1.29395,1.12842-1.40094,2.00854-2.73474,2.52173-3.83765-.51691-.27887-.93854-.7005-1.21741-1.21741Z"/>
        <circle cx="16" cy="32" r="1"/>
        <path d="M19.93445,25.53223c-1.12842,1.40094-2.00854,2.73474-2.52167,3.83759.51691.27887.93854.70056,1.21741,1.21747,1.10297-.51324,2.43695-1.39349,3.83771-2.52173-.43396-.39825-.86713-.80914-1.29602-1.23938-.4295-.42816-.83978-.86066-1.23743-1.29395Z"/>
        <path d="M26.82617,26.82812c-.42816.4295-.86066.83978-1.29395,1.23743,1.40094,1.12842,2.73474,2.00854,3.83759,2.52173.27887-.51691.70056-.9386,1.21747-1.21747-.51318-1.10303-1.39343-2.43695-2.52167-3.83771-.39825.43396-.8092.86713-1.23944,1.29602Z"/>
        <circle cx="32" cy="32" r="1"/>
        <path d="M42,21c.54999,0,1-.45001,1-1s-.45001-1-1-1h-3v-2h3c.54999,0,1-.45001,1-1s-.45001-1-1-1h-3v-4c0-1.10004-.90002-2-2-2h-4v-3c0-.54999-.45001-1-1-1s-1,.45001-1,1v3h-2v-3c0-.54999-.45001-1-1-1s-1,.45001-1,1v3h-2v-3c0-.54999-.45001-1-1-1s-1,.45001-1,1v3h-2v-3c0-.54999-.45001-1-1-1s-1,.45001-1,1v3h-2v-3c0-.54999-.45001-1-1-1s-1,.45001-1,1v3h-4c-1.09998,0-2,.89996-2,2v4h-3c-.54999,0-1,.45001-1,1s.45001,1,1,1h3v2h-3c-.54999,0-1,.45001-1,1s.45001,1,1,1h3v2h-3c-.54999,0-1,.45001-1,1s.45001,1,1,1h3v2h-3c-.54999,0-1,.45001-1,1s.45001,1,1,1h3v2h-3c-.54999,0-1,.45001-1,1s.45001,1,1,1h3v4c0,1.09998.90002,2,2,2h4v3c0,.54999.45001,1,1,1s1-.45001,1-1v-3h2v3c0,.54999.45001,1,1,1s1-.45001,1-1v-3h2v3c0,.54999.45001,1,1,1s1-.45001,1-1v-3h2v3c0,.54999.45001,1,1,1s1-.45001,1-1v-3h2v3c0,.54999.45001,1,1,1s1-.45001,1-1v-3h4c1.09998,0,2-.90002,2-2v-4h3c.54999,0,1-.45001,1-1s-.45001-1-1-1h-3v-2h3c.54999,0,1-.45001,1-1s-.45001-1-1-1h-3v-2h3c.54999,0,1-.45001,1-1s-.45001-1-1-1h-3v-2h3ZM32.63,29.07001c1.34998.28998,2.37,1.48999,2.37,2.92999,0,1.64996-1.34998,3-3,3-1.44,0-2.64001-1.02002-2.92999-2.37-1.44-.58002-3.22003-1.72003-5.07001-3.23999-1.84998,1.51996-3.63,2.65997-5.07001,3.23999-.28998,1.34998-1.48999,2.37-2.92999,2.37-1.65002,0-3-1.35004-3-3,0-1.44,1.02002-2.64001,2.37-2.92999.58002-1.44,1.72003-3.22003,3.23999-5.07001-1.51996-1.85004-2.65997-3.63-3.23999-5.07001-1.34998-.28998-2.37-1.48999-2.37-2.92999,0-1.65002,1.34998-3,3-3,1.44,0,2.64001,1.01996,2.92999,2.37,1.44.58002,3.22003,1.71997,5.07001,3.23999,1.84998-1.52002,3.63-2.65997,5.07001-3.23999.28998-1.35004,1.48999-2.37,2.92999-2.37,1.65002,0,3,1.34998,3,3,0,1.44-1.02002,2.64001-2.37,2.92999-.58002,1.44-1.72003,3.21997-3.23999,5.07001,1.51996,1.84998,2.65997,3.63,3.23999,5.07001Z"/>
      </g>
    </g>
  </g>
</svg>