<?xml version="1.0" encoding="UTF-8"?>
<svg xmlns="http://www.w3.org/2000/svg" version="1.1" viewBox="0 0 48 48">
  <!-- Generator: Adobe Illustrator 28.7.1, SVG Export Plug-In . SVG Version: 1.2.0 Build 142)  -->
  <g>
    <g id="GLYPH">
      <g>
        <path d="M10,43h6c1.09998,0,2-.90002,2-2h-10c0,1.09998.90002,2,2,2Z"/>
        <path d="M32,43h6c1.09998,0,2-.90002,2-2h-10c0,1.09998.90002,2,2,2Z"/>
        <path d="M13.75781,6.96973s3.9975.99933,4,1c.5127.12817,1.07819-.19037,1.21191-.72754.13477-.53516-.19141-1.07812-.72754-1.21191l-4-1c-.53711-.13574-1.0791.19043-1.21191.72754-.13477.53516.19141,1.07812.72754,1.21191Z"/>
        <path d="M14,12h3c.55273,0,1-.44727,1-1s-.44727-1-1-1h-3c-.55273,0-1,.44727-1,1s.44727,1,1,1Z"/>
        <path d="M29.99896,7.9989c.08069.00067.16229-.00873.24323-.02917l4-1c.53613-.13379.8623-.67676.72754-1.21191-.13379-.53711-.67871-.8623-1.21191-.72754l-4,1c-1.09424.27356-.89948,1.9588.24115,1.96863Z"/>
        <path d="M34,10h-3c-.55273,0-1,.44727-1,1s.44727,1,1,1h3c.55273,0,1-.44727,1-1s-.44727-1-1-1Z"/>
        <path d="M15,31h-4v2h5v-1c0-.55176-.44824-1-1-1Z"/>
        <path d="M32,32v1h5v-2h-4c-.55176,0-1,.44824-1,1Z"/>
        <path d="M41.10999,24.57001l-3.35999-1.35004-2.01001-4.60999c-.60999-2.13-2.57001-3.60999-4.79999-3.60999h-5.94v-4.17999c1.15997-.42004,2-1.52002,2-2.82001,0-1.65002-1.34998-3-3-3s-3,1.34998-3,3c0,1.29999.84003,2.39996,2,2.82001v4.17999h-5.94c-2.22998,0-4.19,1.47998-4.79999,3.60999l-2.01001,4.60999-3.35999,1.35004c-1.13.44995-1.89001,1.56-1.89001,2.77997v9.65002c0,1.09998.90002,2,2,2h34c1.09998,0,2-.90002,2-2v-9.65002c0-1.21997-.76001-2.33002-1.89001-2.77997ZM18,34c0,.54999-.45001,1-1,1h-7c-.54999,0-1-.45001-1-1v-4c0-.54999.45001-1,1-1h5c1.65002,0,3,1.34998,3,3v2ZM19,28c-.54999,0-1-.45001-1-1v-4c0-1.65002,1.34998-3,3-3s3,1.34998,3,3v4c0,.54999-.45001,1-1,1s-1-.45001-1-1v-1h-2v1c0,.54999-.45001,1-1,1ZM27,35h-6c-.54999,0-1-.45001-1-1s.45001-1,1-1h6c.54999,0,1,.45001,1,1s-.45001,1-1,1ZM28,27c0,.54999-.45001,1-1,1s-1-.45001-1-1v-3c0-.54999.45001-1,1-1s1,.45001,1,1v3ZM27,22c-.54999,0-1-.45001-1-1s.45001-1,1-1,1,.45001,1,1-.45001,1-1,1ZM39,34c0,.54999-.45001,1-1,1h-7c-.54999,0-1-.45001-1-1v-2c0-1.65002,1.34998-3,3-3h5c.54999,0,1,.45001,1,1v4Z"/>
        <path d="M22,23c0-.55176-.44824-1-1-1s-1,.44824-1,1v1h2v-1Z"/>
      </g>
    </g>
  </g>
</svg>