<?xml version="1.0" encoding="UTF-8"?>
<svg xmlns="http://www.w3.org/2000/svg" version="1.1" viewBox="0 0 48 48">
  <!-- Generator: Adobe Illustrator 28.7.1, SVG Export Plug-In . SVG Version: 1.2.0 Build 142)  -->
  <g>
    <g id="GLYPH">
      <g>
        <path d="M28,14c.40771,0,1-.7793,1-2s-.59229-2-1-2-1,.7793-1,2,.59229,2,1,2Z"/>
        <path d="M20,14c.40771,0,1-.7793,1-2s-.59229-2-1-2-1,.7793-1,2,.59229,2,1,2Z"/>
        <path d="M15,25h18c1.09998,0,2-.90002,2-2V7c0-1.10004-.90002-2-2-2H15c-1.09998,0-2,.89996-2,2v16c0,1.09998.90002,2,2,2ZM28,8c1.67999,0,3,1.76001,3,4s-1.32001,4-3,4-3-1.76001-3-4,1.32001-4,3-4ZM28.70001,17.42999c.31-.45001.94-.57001,1.39001-.25.44995.31.56995.94.25,1.39001-1.51001,2.17999-3.83002,3.42999-6.34003,3.42999s-4.83002-1.25-6.34003-3.42999c-.31995-.45001-.19995-1.08002.25-1.39001.45001-.32001,1.08002-.20001,1.39001.25,1.14001,1.63,2.85004,2.57001,4.70001,2.57001s3.56-.94,4.70001-2.57001ZM20,8c1.67999,0,3,1.76001,3,4s-1.32001,4-3,4-3-1.76001-3-4,1.32001-4,3-4Z"/>
        <path d="M10,20h1v-10h-1c-.54999,0-1,.45001-1,1v8c0,.54999.45001,1,1,1Z"/>
        <path d="M39,19v-8c0-.54999-.45001-1-1-1h-1v10h1c.54999,0,1-.45001,1-1Z"/>
        <path d="M41,23h-4c0,2.20996-1.78998,4-4,4h-1.94l.77002,2.32996,2.27997,1.36005c.51001-.42004,1.17004-.69,1.89001-.69,1.65002,0,3,1.34998,3,3s-1.34998,3-3,3-3-1.35004-3-3c0-.21002.02002-.41003.06-.60004l-2.57001-1.53998c-.20996-.12-.35999-.32001-.44-.53998l-1.09998-3.32001h-9.90002l-1.09998,3.32001c-.08002.21997-.23004.41998-.44.53998l-2.57001,1.53998c.03998.19.06.39001.06.60004,0,1.64996-1.34998,3-3,3s-3-1.35004-3-3,1.34998-3,3-3c.71997,0,1.38.26996,1.89001.69l2.27997-1.36005.77002-2.32996h-1.94c-2.21002,0-4-1.79004-4-4h-4c-1.09998,0-2,.89996-2,2v16c0,1.09998.90002,2,2,2h34c1.09998,0,2-.90002,2-2v-16c0-1.10004-.90002-2-2-2ZM25,39c0,.54999-.45001,1-1,1s-1-.45001-1-1v-1h-2v1c0,.54999-.45001,1-1,1s-1-.45001-1-1v-6c0-1.65002,1.34998-3,3-3s3,1.34998,3,3v6ZM28,39c0,.54999-.45001,1-1,1s-1-.45001-1-1v-4c0-.54999.45001-1,1-1s1,.45001,1,1v4ZM27,32c-.54999,0-1-.45001-1-1s.45001-1,1-1,1,.45001,1,1-.45001,1-1,1Z"/>
        <path d="M22,32c-.55127,0-1,.44824-1,1v3h2v-3c0-.55176-.44873-1-1-1Z"/>
        <circle cx="36" cy="33" r="1"/>
        <circle cx="12" cy="33" r="1"/>
      </g>
    </g>
  </g>
</svg>