<?xml version="1.0" encoding="UTF-8"?>
<svg xmlns="http://www.w3.org/2000/svg" version="1.1" viewBox="0 0 48 48">
  <!-- Generator: Adobe Illustrator 28.7.1, SVG Export Plug-In . SVG Version: 1.2.0 Build 142)  -->
  <g>
    <g id="OUTLINE">
      <g>
        <path d="M41,30.17999v-9.17999h1c.54999,0,1-.45001,1-1,0-8.27002-6.72998-15-15-15h-8c-8.27002,0-15,6.72998-15,15,0,.54999.45001,1,1,1h1v9.17999c-1.15997.41998-2,1.52002-2,2.82001v4c0,1.64996,1.34998,3,3,3h1c0,1.64996,1.34998,3,3,3h5.76001c1.14001,0,2.16998-.64001,2.67999-1.66003l.90002-1.77997c.17999-.35004.51996-.56.89996-.56h3.52002c.38,0,.71997.20996.89996.56l.90002,1.77997c.51001,1.02002,1.53998,1.66003,2.67999,1.66003h5.76001c1.65002,0,3-1.35004,3-3h1c1.65002,0,3-1.35004,3-3v-4c0-1.29999-.84003-2.40002-2-2.82001ZM27,7h1c6.83002,0,12.45001,5.29999,12.96002,12h-2c-.51001-5.60004-5.23004-10-10.96002-10h-1v-2ZM23,7h2v2h-2v-2ZM20,7h1v2h-1c-5.72998,0-10.45001,4.39996-10.96002,10h-2c.51001-6.70001,6.13-12,12.96002-12ZM9,38h-1c-.54999,0-1-.45001-1-1v-4c0-.54999.45001-1,1-1h1v6ZM37,40c0,.54999-.45001,1-1,1h-5.76001c-.38,0-.71997-.21002-.89996-.56l-.90002-1.78003c-.51001-1.01996-1.53998-1.65997-2.67999-1.65997h-3.52002c-1.14001,0-2.16998.64001-2.67999,1.65997l-.90002,1.78003c-.17999.34998-.51996.56-.89996.56h-5.76001c-.54999,0-1-.45001-1-1v-10c0-.54999.45001-1,1-1h8c.54999,0,1-.45001,1-1s-.45001-1-1-1h-7v-1c0-.54999.45001-1,1-1h20c.54999,0,1,.45001,1,1v1h-7c-.54999,0-1,.45001-1,1s.45001,1,1,1h8c.54999,0,1,.45001,1,1v10ZM37,27.17999v-1.17999c0-1.65002-1.34998-3-3-3H14c-1.65002,0-3,1.34998-3,3v1.17999c-1.15997.41998-2,1.52002-2,2.82001v-9h1c.54999,0,1-.45001,1-1,0-4.96002,4.03998-9,9-9h8c4.96002,0,9,4.03998,9,9,0,.54999.45001,1,1,1h1v9c0-1.29999-.84003-2.40002-2-2.82001ZM41,37c0,.54999-.45001,1-1,1h-1v-6h1c.54999,0,1,.45001,1,1v4Z"/>
        <path d="M27,31h-6c-.55225,0-1,.44727-1,1s.44775,1,1,1h6c.55225,0,1-.44727,1-1s-.44775-1-1-1Z"/>
        <path d="M21,13c-1.6543,0-3,1.3457-3,3v4c0,.55273.44775,1,1,1s1-.44727,1-1v-1h2v1c0,.55273.44775,1,1,1s1-.44727,1-1v-4c0-1.6543-1.3457-3-3-3ZM22,17h-2v-1c0-.55176.44873-1,1-1s1,.44824,1,1v1Z"/>
        <path d="M27,16c-.55225,0-1,.44727-1,1v3c0,.55273.44775,1,1,1s1-.44727,1-1v-3c0-.55273-.44775-1-1-1Z"/>
        <circle cx="27" cy="14" r="1"/>
        <circle cx="24" cy="28" r="1"/>
      </g>
    </g>
  </g>
</svg>