<?xml version="1.0" encoding="UTF-8"?><svg id="Dypta" xmlns="http://www.w3.org/2000/svg" viewBox="0 0 64 64"><defs><style>.cls-1{fill:#ff5f00;}.cls-2{fill:#293a4c;}</style></defs><path class="cls-2" d="m46,60.5H8c-2.48,0-4.5-2.02-4.5-4.5V8c0-2.48,2.02-4.5,4.5-4.5h38c2.48,0,4.5,2.02,4.5,4.5v11.56c0,.83-.67,1.5-1.5,1.5s-1.5-.67-1.5-1.5v-11.56c0-.83-.67-1.5-1.5-1.5H8c-.83,0-1.5.67-1.5,1.5v48c0,.83.67,1.5,1.5,1.5h38c.83,0,1.5-.67,1.5-1.5v-5c0-.83.67-1.5,1.5-1.5s1.5.67,1.5,1.5v5c0,2.48-2.02,4.5-4.5,4.5Z"/><path class="cls-2" d="m17,48.3c-.39,0-.78-.15-1.07-.45-2.85-2.92-4.43-6.78-4.43-10.85v-10c0-8.55,6.95-15.5,15.5-15.5,3.63,0,7.17,1.29,9.96,3.63.63.53.72,1.48.19,2.11-.53.63-1.48.72-2.11.19-2.25-1.89-5.11-2.93-8.04-2.93-6.89,0-12.5,5.61-12.5,12.5v10c0,3.28,1.27,6.39,3.57,8.75.58.59.57,1.54-.03,2.12-.29.28-.67.43-1.05.43Z"/><path class="cls-2" d="m27,52.5c-1.91,0-3.77-.34-5.54-1.02-.77-.3-1.16-1.16-.86-1.94.3-.77,1.17-1.16,1.94-.86,1.43.55,2.93.82,4.46.82,4.83,0,9.28-2.83,11.33-7.22.35-.75,1.24-1.08,1.99-.72.75.35,1.07,1.24.72,1.99-2.54,5.43-8.05,8.94-14.05,8.94Z"/><path class="cls-2" d="m19,28.5c-.83,0-1.5-.67-1.5-1.5,0-5.24,4.26-9.5,9.5-9.5,4.85,0,8.91,3.64,9.44,8.46.09.82-.5,1.56-1.33,1.66-.83.08-1.56-.5-1.66-1.33-.36-3.3-3.14-5.78-6.46-5.78-3.58,0-6.5,2.92-6.5,6.5,0,.83-.67,1.5-1.5,1.5Z"/><path class="cls-2" d="m27,46.5c-5.24,0-9.5-4.26-9.5-9.5v-4c0-.83.67-1.5,1.5-1.5s1.5.67,1.5,1.5v4c0,3.58,2.92,6.5,6.5,6.5,1.14,0,2.26-.3,3.25-.87.72-.41,1.63-.17,2.05.55.41.72.17,1.63-.55,2.05-1.44.83-3.09,1.27-4.75,1.27Z"/><path class="cls-2" d="m27,40.5c-1.93,0-3.5-1.57-3.5-3.5v-10c0-1.93,1.57-3.5,3.5-3.5s3.5,1.57,3.5,3.5c0,.83-.67,1.5-1.5,1.5s-1.5-.67-1.5-1.5c0-.28-.22-.5-.5-.5s-.5.22-.5.5v10c0,.28.22.5.5.5s.5-.22.5-.5c0-.83.67-1.5,1.5-1.5s1.5.67,1.5,1.5c0,1.93-1.57,3.5-3.5,3.5Z"/><path class="cls-1" d="m46.25,17.76c-7.85,0-14.24,6.39-14.24,14.24s6.39,14.24,14.24,14.24,14.25-6.39,14.25-14.24-6.39-14.24-14.25-14.24Zm6.79,11.38l-7.73,7.84c-.28.29-.67.45-1.07.45-.03,0-.06,0-.09,0-.43-.03-.83-.24-1.1-.58l-3.72-4.84c-.5-.66-.38-1.6.28-2.1.66-.5,1.6-.38,2.1.27l2.67,3.47,6.52-6.61c.58-.59,1.53-.6,2.12-.02s.6,1.53.02,2.12Z"/></svg>