<?xml version="1.0" encoding="UTF-8"?><svg id="Dypta" xmlns="http://www.w3.org/2000/svg" viewBox="0 0 64 64"><defs><style>.cls-1{fill:#ff5f00;}.cls-2{fill:#293a4c;}</style></defs><path class="cls-2" d="m47,60.5H8c-2.48,0-4.5-2.02-4.5-4.5V8c0-2.48,2.02-4.5,4.5-4.5h38c2.48,0,4.5,2.02,4.5,4.5v15c0,.83-.67,1.5-1.5,1.5s-1.5-.67-1.5-1.5v-15c0-.83-.67-1.5-1.5-1.5H8c-.83,0-1.5.67-1.5,1.5v48c0,.83.67,1.5,1.5,1.5h39c.83,0,1.5.67,1.5,1.5s-.67,1.5-1.5,1.5Z"/><path class="cls-2" d="m16,26.03c-1.69,0-3.23-.99-3.83-2.47-.31-.77.06-1.64.83-1.95.77-.31,1.64.06,1.95.82.14.35.57.6,1.05.6.81,0,1.5-.55,1.5-1.2v-.13c0-.85-1.74-1.22-1.75-1.22-1.57-.26-4.25-1.44-4.25-4.18v-.13c0-2.31,2.02-4.2,4.5-4.2,1.69,0,3.23.99,3.83,2.47.31.77-.06,1.64-.83,1.95-.77.31-1.64-.06-1.95-.82-.14-.35-.57-.6-1.05-.6-.81,0-1.5.55-1.5,1.2v.13c0,.85,1.74,1.22,1.75,1.22,1.57.26,4.25,1.44,4.25,4.18v.13c0,2.31-2.02,4.2-4.5,4.2Z"/><path class="cls-2" d="m16,14.97c-.83,0-1.5-.67-1.5-1.5v-2.47c0-.83.67-1.5,1.5-1.5s1.5.67,1.5,1.5v2.47c0,.83-.67,1.5-1.5,1.5Z"/><path class="cls-2" d="m16,28.5c-.83,0-1.5-.67-1.5-1.5v-2.47c0-.83.67-1.5,1.5-1.5s1.5.67,1.5,1.5v2.47c0,.83-.67,1.5-1.5,1.5Z"/><path class="cls-2" d="m41,17.5h-14c-.83,0-1.5-.67-1.5-1.5s.67-1.5,1.5-1.5h14c.83,0,1.5.67,1.5,1.5s-.67,1.5-1.5,1.5Z"/><path class="cls-2" d="m41,23.5h-14c-.83,0-1.5-.67-1.5-1.5s.67-1.5,1.5-1.5h14c.83,0,1.5.67,1.5,1.5s-.67,1.5-1.5,1.5Z"/><path class="cls-2" d="m29,36.5H13c-.83,0-1.5-.67-1.5-1.5s.67-1.5,1.5-1.5h16c.83,0,1.5.67,1.5,1.5s-.67,1.5-1.5,1.5Z"/><path class="cls-2" d="m29,42.5H13c-.83,0-1.5-.67-1.5-1.5s.67-1.5,1.5-1.5h16c.83,0,1.5.67,1.5,1.5s-.67,1.5-1.5,1.5Z"/><path class="cls-2" d="m18,52.5h-5c-.83,0-1.5-.67-1.5-1.5s.67-1.5,1.5-1.5h5c.83,0,1.5.67,1.5,1.5s-.67,1.5-1.5,1.5Z"/><path class="cls-1" d="m59.65,33.65l-12-5.76c-.41-.2-.89-.2-1.3,0l-12,5.76c-.52.25-.85.78-.85,1.35v8.02c0,7.92,5.24,14.92,13.04,17.41.15.05.3.07.46.07s.31-.02.46-.07c7.8-2.5,13.04-9.49,13.04-17.41v-8.02c0-.58-.33-1.1-.85-1.35Zm-5.86,7.61l-7.73,7.84c-.28.29-.67.45-1.07.45-.03,0-.06,0-.09,0-.43-.03-.83-.24-1.1-.58l-3.72-4.84c-.51-.66-.38-1.6.27-2.1.66-.5,1.6-.38,2.1.27l2.67,3.47,6.52-6.61c.58-.59,1.53-.6,2.12-.02.59.58.6,1.53.02,2.12Z"/></svg>