<?xml version="1.0" encoding="UTF-8"?><svg id="Dypta" xmlns="http://www.w3.org/2000/svg" viewBox="0 0 64 64"><defs><style>.cls-1{fill:#ff5f00;}.cls-2{fill:#293a4c;}</style></defs><path class="cls-2" d="m44,43.5H14c-1.93,0-3.5-1.57-3.5-3.5v-20c0-1.93,1.57-3.5,3.5-3.5h14c.83,0,1.5.67,1.5,1.5s-.67,1.5-1.5,1.5h-14c-.28,0-.5.22-.5.5v20c0,.28.22.5.5.5h30c.28,0,.5-.22.5-.5v-9.52c0-.83.67-1.5,1.5-1.5s1.5.67,1.5,1.5v9.52c0,1.93-1.57,3.5-3.5,3.5Z"/><path class="cls-2" d="m42.75,31.5H12c-.83,0-1.5-.67-1.5-1.5v-6c0-.83.67-1.5,1.5-1.5h23.16c.83,0,1.5.67,1.5,1.5s-.67,1.5-1.5,1.5H13.5v3h29.25c.83,0,1.5.67,1.5,1.5s-.67,1.5-1.5,1.5Z"/><path class="cls-2" d="m50,50.5H8c-2.48,0-4.5-2.02-4.5-4.5V14c0-2.48,2.02-4.5,4.5-4.5h27.44c.83,0,1.5.67,1.5,1.5s-.67,1.5-1.5,1.5H8c-.83,0-1.5.67-1.5,1.5v32c0,.83.67,1.5,1.5,1.5h42c.83,0,1.5-.67,1.5-1.5v-11c0-.83.67-1.5,1.5-1.5s1.5.67,1.5,1.5v11c0,2.48-2.02,4.5-4.5,4.5Z"/><path class="cls-2" d="m37,60.5h-16c-.45,0-.88-.2-1.16-.55-.28-.35-.4-.8-.31-1.25l2-10c.14-.7.76-1.21,1.47-1.21h12c.71,0,1.33.5,1.47,1.21l2,10c.09.44-.03.9-.31,1.25-.29.35-.71.55-1.16.55Zm-14.17-3h12.34l-1.4-7h-9.54l-1.4,7Z"/><path class="cls-2" d="m43,60.5H15c-.83,0-1.5-.67-1.5-1.5s.67-1.5,1.5-1.5h28c.83,0,1.5.67,1.5,1.5s-.67,1.5-1.5,1.5Z"/><path class="cls-2" d="m40,38.5h-3c-.83,0-1.5-.67-1.5-1.5s.67-1.5,1.5-1.5h3c.83,0,1.5.67,1.5,1.5s-.67,1.5-1.5,1.5Z"/><path class="cls-1" d="m46.26,3.5c-7.85,0-14.24,6.39-14.24,14.24s6.39,14.24,14.24,14.24,14.24-6.39,14.24-14.24-6.39-14.24-14.24-14.24Zm0,20.86c-.83,0-1.5-.67-1.5-1.5s.67-1.5,1.5-1.5,1.5.67,1.5,1.5-.67,1.5-1.5,1.5Zm5-4.45c-.28.25-.63.37-.98.37-.42,0-.84-.18-1.13-.52-1.58-1.82-4.15-1.89-5.79-.12-.56.61-1.51.64-2.12.08-.61-.56-.64-1.51-.08-2.12,1.37-1.48,3.16-2.29,5.04-2.29,1.98,0,3.83.88,5.22,2.49.54.63.47,1.57-.15,2.12Zm3.28-4.1c-.28.25-.63.37-.98.37-.42,0-.84-.18-1.13-.52-1.7-1.96-3.92-3.04-6.23-3.04s-4.43,1.03-6.11,2.91c-.55.62-1.5.67-2.12.12-.62-.55-.67-1.5-.12-2.12,2.26-2.52,5.22-3.91,8.35-3.91s6.22,1.45,8.5,4.08c.54.63.48,1.57-.15,2.12Z"/></svg>