<?xml version="1.0" encoding="UTF-8"?><svg id="Dypta" xmlns="http://www.w3.org/2000/svg" viewBox="0 0 64 64"><defs><style>.cls-1{fill:#ff5f00;}.cls-2{fill:#293a4c;}</style></defs><path class="cls-2" d="m36,39.5H8c-2.48,0-4.5-2.02-4.5-4.5v-13c0-2.48,2.02-4.5,4.5-4.5h18c.83,0,1.5.67,1.5,1.5s-.67,1.5-1.5,1.5H8c-.83,0-1.5.67-1.5,1.5v13c0,.83.67,1.5,1.5,1.5h28c.83,0,1.5-.67,1.5-1.5v-6.18c0-.83.67-1.5,1.5-1.5s1.5.67,1.5,1.5v6.18c0,2.48-2.02,4.5-4.5,4.5Z"/><path class="cls-2" d="m15.78,33.09c-2.53,0-4.59-2.06-4.59-4.59s2.06-4.59,4.59-4.59,4.59,2.06,4.59,4.59-2.06,4.59-4.59,4.59Zm0-6.19c-.88,0-1.59.72-1.59,1.59s.72,1.59,1.59,1.59,1.59-.72,1.59-1.59-.72-1.59-1.59-1.59Z"/><path class="cls-2" d="m28.22,33.09c-2.53,0-4.59-2.06-4.59-4.59s2.06-4.59,4.59-4.59,4.59,2.06,4.59,4.59-2.06,4.59-4.59,4.59Zm0-6.19c-.88,0-1.59.72-1.59,1.59s.72,1.59,1.59,1.59,1.59-.72,1.59-1.59-.72-1.59-1.59-1.59Z"/><path class="cls-2" d="m28,45.5h-12c-.83,0-1.5-.67-1.5-1.5v-6c0-.83.67-1.5,1.5-1.5h12c.83,0,1.5.67,1.5,1.5v6c0,.83-.67,1.5-1.5,1.5Zm-10.5-3h9v-3h-9v3Z"/><path class="cls-2" d="m39,60.5H5c-.83,0-1.5-.67-1.5-1.5v-11.81c0-2.59,2.11-4.69,4.69-4.69h27.61c2.59,0,4.69,2.11,4.69,4.69v11.81c0,.83-.67,1.5-1.5,1.5Zm-32.5-3h31v-10.31c0-.93-.76-1.69-1.69-1.69H8.19c-.93,0-1.69.76-1.69,1.69v10.31Z"/><path class="cls-2" d="m5,23.5c-.83,0-1.5-.67-1.5-1.5v-11c0-.83.67-1.5,1.5-1.5s1.5.67,1.5,1.5v11c0,.83-.67,1.5-1.5,1.5Z"/><path class="cls-2" d="m42.71,52.38c-1.49,0-2.99-.35-4.39-1.04-.74-.37-1.04-1.27-.67-2.01.37-.74,1.27-1.04,2.01-.67,2.12,1.06,4.59.95,6.61-.3,2.02-1.25,3.22-3.41,3.22-5.78v-.58c0-.83.67-1.5,1.5-1.5s1.5.67,1.5,1.5v.58c0,3.42-1.74,6.53-4.64,8.33-1.58.98-3.36,1.47-5.14,1.47Z"/><path class="cls-2" d="m51,42.24c-1.37,0-2.65-.53-3.62-1.5-.97-.97-1.5-2.25-1.5-3.62s.53-2.65,1.5-3.62c.59-.59,1.54-.59,2.12,0s.59,1.54,0,2.12c-.83.83-.83,2.17,0,3s2.2.8,3,0,.83-2.17,0-3c-.59-.59-.59-1.54,0-2.12s1.54-.59,2.12,0c.97.97,1.5,2.25,1.5,3.62s-.53,2.65-1.5,3.62c-.97.97-2.25,1.5-3.62,1.5Z"/><path class="cls-2" d="m31,60.5H13c-.83,0-1.5-.67-1.5-1.5v-6c0-2.48,2.02-4.5,4.5-4.5h12c2.48,0,4.5,2.02,4.5,4.5v6c0,.83-.67,1.5-1.5,1.5Zm-16.5-3h15v-4.5c0-.83-.67-1.5-1.5-1.5h-12c-.83,0-1.5.67-1.5,1.5v4.5Z"/><path class="cls-1" d="m56,3.5h-16c-2.48,0-4.5,2.02-4.5,4.5v5.38l-4.56,4.56c-.43.43-.56,1.07-.33,1.63s.78.93,1.39.93h3.5v5.5c0,2.48,2.02,4.5,4.5,4.5h16c2.48,0,4.5-2.02,4.5-4.5V8c0-2.48-2.02-4.5-4.5-4.5Zm-3.5,16.33c0,1.82-1.26,3.36-3,3.94v1.23c0,.83-.67,1.5-1.5,1.5s-1.5-.67-1.5-1.5v-1.25c-1.05-.39-1.91-1.17-2.33-2.19-.31-.77.06-1.64.83-1.95.77-.31,1.64.06,1.95.83.14.35.57.6,1.05.6.81,0,1.5-.55,1.5-1.2v-.13c0-.85-1.74-1.22-1.75-1.22-1.57-.26-4.25-1.44-4.25-4.18v-.13c0-1.82,1.26-3.36,3-3.94v-1.23c0-.83.67-1.5,1.5-1.5s1.5.67,1.5,1.5v1.25c1.05.39,1.91,1.17,2.33,2.19.31.77-.06,1.64-.83,1.95-.77.31-1.64-.06-1.95-.83-.14-.35-.57-.6-1.05-.6-.81,0-1.5.55-1.5,1.2v.13c0,.85,1.74,1.22,1.75,1.22,1.57.26,4.25,1.44,4.25,4.18v.13Z"/></svg>