<?xml version="1.0" encoding="UTF-8"?><svg id="Dypta" xmlns="http://www.w3.org/2000/svg" viewBox="0 0 64 64"><defs><style>.cls-1{fill:#ff5f00;}.cls-2{fill:#293a4c;}</style></defs><path class="cls-2" d="m34.5,60.5h-11.44c-1.38,0-2.5-1.12-2.5-2.5v-.82c0-1.61-.9-3.07-2.34-3.79-1.39-.7-3.79-.62-5.13.16l-.11.06c-1.19.69-2.72.28-3.42-.91l-5.72-9.91c-.68-1.2-.27-2.73.91-3.42l.42-.24c1.48-.85,2.4-2.44,2.4-4.15s-.92-3.3-2.4-4.15l-.41-.23c-1.19-.69-1.6-2.22-.93-3.41l5.73-9.91c.7-1.2,2.24-1.61,3.42-.92,0,0,.09.05.09.05,1.35.79,3.78.86,5.18.16,1.43-.71,2.31-2.15,2.31-3.74v-.85c0-1.38,1.12-2.5,2.5-2.5h11.44c.43,0,.85.11,1.21.32.72.41.97,1.33.56,2.05-.38.67-1.2.93-1.89.64h-10.82v.35c0,2.74-1.52,5.2-3.97,6.42-2.17,1.09-5.46,1.04-7.68-.06l-5.23,9.05c2.39,1.39,3.88,3.96,3.88,6.73s-1.49,5.35-3.88,6.73l5.23,9.05c2.21-1.11,5.49-1.16,7.65-.07,2.47,1.23,4,3.71,4,6.47v.32h10.44c.01-2.96,1.67-5.62,4.32-6.95,2.09-1.04,5.3-.95,7.33.22l5.22-9.04-.17-.1c-1.97-1.13-3.29-3.11-3.63-5.42-.12-.82.45-1.58,1.27-1.7.81-.11,1.58.45,1.7,1.27.2,1.39.98,2.57,2.15,3.24l.61.35c.59.34,1,.88,1.17,1.53.17.65.08,1.32-.26,1.9l-5.72,9.89c-.32.57-.86.99-1.51,1.17-.65.18-1.32.09-1.9-.25l-.42-.25c-1.16-.67-3.3-.74-4.5-.14-1.64.82-2.66,2.47-2.66,4.31v.46c0,1.38-1.12,2.5-2.5,2.5Zm10.9-9.3s0,0,0,0h0Zm5.91-9.23h0,0Zm-.18-.68s0,0,0,0h0Z"/><path class="cls-2" d="m28.28,49.5c-8,0-14.5-6.5-14.5-14.5s6.5-14.5,14.5-14.5c2.28,0,4.56.54,6.58,1.57.74.38,1.03,1.28.66,2.02-.38.74-1.28,1.03-2.02.66-1.6-.82-3.41-1.25-5.22-1.25-6.34,0-11.5,5.16-11.5,11.5s5.16,11.5,11.5,11.5c5.62,0,10.51-4.18,11.36-9.73.04-.29.08-.59.1-.88.06-.83.79-1.45,1.61-1.38.83.06,1.45.78,1.38,1.61-.03.38-.07.75-.13,1.12-1.1,7.11-7.12,12.27-14.33,12.27Z"/><path class="cls-2" d="m16.41,41.8c-.57,0-1.12-.33-1.37-.89-.34-.76,0-1.64.76-1.98l10.98-4.91v-12.03c0-.83.67-1.5,1.5-1.5s1.5.67,1.5,1.5v13c0,.59-.35,1.13-.89,1.37l-11.87,5.3c-.2.09-.41.13-.61.13Z"/><path class="cls-1" d="m46,3.5c-8,0-14.5,6.5-14.5,14.5s6.5,14.5,14.5,14.5,14.5-6.5,14.5-14.5-6.5-14.5-14.5-14.5Zm4.5,17.33c0,1.82-1.26,3.36-3,3.94v1.23c0,.83-.67,1.5-1.5,1.5s-1.5-.67-1.5-1.5v-1.25c-1.05-.39-1.91-1.17-2.33-2.19-.31-.77.06-1.64.83-1.95.77-.31,1.64.06,1.95.83.14.35.57.6,1.05.6.81,0,1.5-.55,1.5-1.2v-.13c0-.85-1.74-1.22-1.75-1.22-1.57-.26-4.25-1.44-4.25-4.18v-.13c0-1.82,1.26-3.36,3-3.94v-1.23c0-.83.67-1.5,1.5-1.5s1.5.67,1.5,1.5v1.25c1.05.39,1.91,1.17,2.33,2.19.31.77-.06,1.64-.83,1.95-.77.31-1.64-.06-1.95-.83-.14-.35-.57-.6-1.05-.6-.81,0-1.5.55-1.5,1.2v.13c0,.85,1.74,1.22,1.75,1.22,1.57.26,4.25,1.44,4.25,4.18v.13Z"/></svg>