<?xml version="1.0" encoding="UTF-8"?>
<svg xmlns="http://www.w3.org/2000/svg" version="1.1" viewBox="0 0 48 48">
  <!-- Generator: Adobe Illustrator 28.7.1, SVG Export Plug-In . SVG Version: 1.2.0 Build 142)  -->
  <g>
    <g id="OUTLINE">
      <g>
        <path d="M26.80859,31v-1.38379c.13281-.06348.26367-.13086.39258-.20312l1.21973.80176c.45215.29785,1.05762.17969,1.36816-.26172l2.03027-2.89648c.1543-.22168.21387-.49707.16309-.7627s-.20703-.49902-.43359-.64746l-1.18945-.78125c.04395-.29004.06543-.5791.06543-.86523s-.02148-.5752-.06543-.86523l1.18945-.78125c.22656-.14844.38281-.38184.43359-.64746s-.00879-.54102-.16309-.7627l-2.03027-2.89648c-.31055-.44238-.91602-.55957-1.36816-.26172l-1.21973.80176c-.12891-.07227-.25977-.13965-.39258-.20312v-1.38379c0-.55273-.44727-1-1-1h-3.61719c-.55273,0-1,.44727-1,1v1.38379c-.13281.06348-.26367.13086-.39258.20312l-1.21973-.80176c-.45215-.29785-1.05762-.18066-1.36816.26172l-2.03027,2.89648c-.1543.22168-.21387.49707-.16309.7627s.20703.49902.43359.64746l1.18945.78125c-.04395.29004-.06543.5791-.06543.86523s.02148.5752.06543.86523l-1.18945.78125c-.22656.14844-.38281.38184-.43359.64746s.00879.54102.16309.7627l2.03027,2.89648c.31055.44141.91602.55957,1.36816.26172l1.21973-.80176c.12891.07227.25977.13965.39258.20312v1.38379c0,.55273.44727,1,1,1h3.61719c.55273,0,1-.44727,1-1ZM24.80859,28.94531v1.05469h-1.61719v-1.05469c0-.42773-.27148-.80762-.67578-.94629-.40918-.13965-.79492-.33887-1.14648-.58984-.33691-.23828-.78516-.24707-1.12988-.02148l-.94727.62207-.88184-1.25684.89648-.58887c.36133-.2373.5293-.68066.41602-1.09766-.09766-.36133-.14746-.7207-.14746-1.06641s.0498-.70508.14746-1.06641c.11328-.41699-.05469-.86035-.41602-1.09766l-.89648-.58887.88184-1.25684.94727.62207c.34473.22656.79297.21777,1.12988-.02148.35156-.25098.7373-.4502,1.14648-.58984.4043-.13867.67578-.51855.67578-.94629v-1.05469h1.61719v1.05469c0,.42773.27148.80762.67578.94629.40918.13965.79492.33887,1.14648.58984.33691.23926.78516.24805,1.12988.02148l.94727-.62207.88184,1.25684-.89648.58887c-.36133.2373-.5293.68066-.41602,1.09766.09766.36133.14746.7207.14746,1.06641s-.0498.70508-.14746,1.06641c-.11328.41699.05469.86035.41602,1.09766l.89648.58887-.88184,1.25684-.94727-.62207c-.34473-.22559-.79297-.2168-1.12988.02148-.35156.25098-.7373.4502-1.14648.58984-.4043.13867-.67578.51855-.67578.94629Z"/>
        <path d="M24,21c-1.6543,0-3,1.3457-3,3s1.3457,3,3,3,3-1.3457,3-3-1.3457-3-3-3ZM24,25c-.55176,0-1-.44824-1-1s.44824-1,1-1,1,.44824,1,1-.44824,1-1,1Z"/>
        <path d="M19.67999,34.13c-2.83997-1.21002-5.04999-3.59003-6.06-6.52002-.19-.52002-.75-.78998-1.27997-.60999-.52002.17999-.80005.75-.62006,1.26996.54004,1.55005,1.37006,2.95001,2.42004,4.18005l-4.85004,4.84998c-.09998-.03998-.19-.08002-.28998-.12v-2.35999c1.15997-.42004,2-1.52002,2-2.82001,0-1.65002-1.34998-3-3-3s-3,1.34998-3,3c0,1.29999.84003,2.39996,2,2.82001v2.35999c-1.15997.41998-2,1.52002-2,2.82001,0,1.64996,1.34998,3,3,3s3-1.35004,3-3c0-.46002-.10999-.89001-.29999-1.29004l4.83997-4.83997c1,.85999,2.13,1.56995,3.35999,2.09991.48633.20953,1.09668-.02319,1.31006-.52991.21997-.51001-.02002-1.09003-.53003-1.31ZM8,31c.54999,0,1,.45001,1,1s-.45001,1-1,1-1-.45001-1-1,.45001-1,1-1ZM8,41c-.54999,0-1-.45001-1-1s.45001-1,1-1c.27002,0,.52002.10999.70001.28998v.01001h.01001c.17999.17999.28998.42999.28998.70001,0,.54999-.45001,1-1,1Z"/>
        <path d="M5,16c0,1.6543,1.3457,3,3,3s3-1.3457,3-3c0-1.30194-.8385-2.40161-2-2.81573v-2.36853c.0976-.03479.19269-.07196.28534-.11633l4.85321,4.85321c-1.04456,1.22314-1.87775,2.63062-2.41394,4.17981-.18066.52246.09668,1.0918.61829,1.27246.51508.17633,1.09393-.10236,1.27234-.61816,1.0127-2.92773,3.22363-5.30273,6.0625-6.51465.51282-.216,1.03967-.3786,1.57245-.51465-.33545.39294-.3288.97803.04279,1.34961.37769.37762,1.0238.3902,1.41406,0l2-2c.39062-.39062.39062-1.02344,0-1.41406l-2-2c-.39062-.39062-1.02344-.39062-1.41406,0s-.39062,1.02344,0,1.41406l.49316.49316c-.98608.16827-1.95349.43634-2.88867.83008-1.23083.52563-2.35852,1.23877-3.35614,2.09698l-4.84192-4.84192c.04437-.09265.08154-.18774.11633-.28534h2.36859c.41412,1.1615,1.51373,2,2.81567,2,1.6543,0,3-1.3457,3-3s-1.3457-3-3-3c-1.30194,0-2.40161.8385-2.81573,2h-2.36853c-.41412-1.1615-1.51379-2-2.81573-2-1.6543,0-3,1.3457-3,3,0,1.30194.8385,2.40155,2,2.81567v2.36859c-1.1615.41412-2,1.51379-2,2.81573ZM16,7c.55176,0,1,.44824,1,1s-.44824,1-1,1-1-.44824-1-1,.44824-1,1-1ZM8,7c.55176,0,1,.44824,1,1,0,.27094-.11005.51532-.2854.6955-.00342.00336-.00806.00421-.01147.00763s-.00427.00806-.00763.01147c-.18018.17535-.42456.2854-.6955.2854-.55176,0-1-.44824-1-1s.44824-1,1-1ZM8,15c.55176,0,1,.44824,1,1s-.44824,1-1,1-1-.44824-1-1,.44824-1,1-1Z"/>
        <path d="M37,16c0,1.64996,1.34998,3,3,3s3-1.35004,3-3c0-1.29999-.84003-2.40002-2-2.82001v-2.35999c1.15997-.42004,2-1.52002,2-2.82001,0-1.65002-1.34998-3-3-3-1.29999,0-2.40002.83997-2.82001,2h-2.35999c-.41998-1.16003-1.52002-2-2.82001-2-1.65002,0-3,1.34998-3,3s1.34998,3,3,3c1.29999,0,2.40002-.84003,2.82001-2h2.35999c.03998.09998.08002.19.12.28998l-4.83997,4.83002c-.99005-.85004-2.11005-1.56-3.36005-2.09003-.50995-.21997-1.08997.02002-1.31.53003-.21997.5.02002,1.08997.53003,1.31,4.06,1.73999,6.67999,5.70996,6.67999,10.13s-2.62,8.39001-6.67999,10.13c-.51001.20996-1.03998.38-1.57001.51001.34003-.39001.33002-.98004-.03998-1.35004-.39001-.39001-1.03003-.39001-1.42004,0l-2,2c-.38995.39001-.38995,1.03003,0,1.41998l2,2c.38263.38257,1.03674.3833,1.42004,0,.38995-.38995.38995-1.02997,0-1.41998l-.5-.48999c.98999-.16998,1.95996-.44,2.88995-.83002,1.25-.52997,2.37-1.23999,3.36005-2.08997l4.83997,4.82996c-.03998.10004-.08002.19-.12.29004h-2.35999c-.41998-1.16003-1.52002-2-2.82001-2-1.65002,0-3,1.34998-3,3s1.34998,3,3,3c1.29999,0,2.40002-.84003,2.82001-2h2.35999c.41998,1.15997,1.52002,2,2.82001,2,1.65002,0,3-1.35004,3-3,0-1.29999-.84003-2.40002-2-2.82001v-2.35999c1.15997-.42004,2-1.52002,2-2.82001,0-1.65002-1.34998-3-3-3s-3,1.34998-3,3c0,1.29999.84003,2.39996,2,2.82001v2.35999c-.09998.03998-.19.08002-.28998.12l-4.84003-4.84003c1.97998-2.31,3.13-5.28998,3.13-8.45996s-1.15002-6.15002-3.13-8.46002l4.84003-4.83997c.09998.03998.19.07996.28998.12v2.35999c-1.15997.41998-2,1.52002-2,2.82001ZM32,9c-.54999,0-1-.45001-1-1s.45001-1,1-1,1,.45001,1,1-.45001,1-1,1ZM32,41c-.54999,0-1-.45001-1-1s.45001-1,1-1,1,.45001,1,1-.45001,1-1,1ZM40,31c.54999,0,1,.45001,1,1s-.45001,1-1,1-1-.45001-1-1,.45001-1,1-1ZM39.28998,39.29999h.01001v-.01001c.17999-.17999.42999-.28998.70001-.28998.54999,0,1,.45001,1,1s-.45001,1-1,1-1-.45001-1-1c0-.27002.10999-.52002.28998-.70001ZM40,7c.54999,0,1,.45001,1,1s-.45001,1-1,1c-.27002,0-.52002-.10999-.70001-.29004v-.00995h-.01001c-.17999-.18005-.28998-.43005-.28998-.70001,0-.54999.45001-1,1-1ZM40,15c.54999,0,1,.45001,1,1s-.45001,1-1,1-1-.45001-1-1,.45001-1,1-1Z"/>
        <path d="M16,37c-1.65002,0-3,1.34998-3,3s1.34998,3,3,3,3-1.35004,3-3-1.34998-3-3-3ZM16,41c-.54999,0-1-.45001-1-1s.45001-1,1-1,1,.45001,1,1-.45001,1-1,1Z"/>
        <circle cx="12" cy="24" r="1"/>
      </g>
    </g>
  </g>
</svg>