<?xml version="1.0" encoding="UTF-8"?>
<svg xmlns="http://www.w3.org/2000/svg" version="1.1" viewBox="0 0 48 48">
  <!-- Generator: Adobe Illustrator 28.7.1, SVG Export Plug-In . SVG Version: 1.2.0 Build 142)  -->
  <g>
    <g id="OUTLINE">
      <g>
        <path d="M12,21c-1.68262,0-3,1.75684-3,4s1.31738,4,3,4,3-1.75684,3-4-1.31738-4-3-4ZM12,27c-.4082,0-1-.7793-1-2s.5918-2,1-2,1,.7793,1,2-.5918,2-1,2Z"/>
        <path d="M23,25c0-2.24316-1.31738-4-3-4s-3,1.75684-3,4,1.31738,4,3,4,3-1.75684,3-4ZM19,25c0-1.2207.5918-2,1-2s1,.7793,1,2-.5918,2-1,2-1-.7793-1-2Z"/>
        <path d="M11.30176,30.42871c-.31543-.4541-.93652-.56543-1.39258-.25-.45312.31543-.56543.93848-.25,1.39258,1.51562,2.17871,3.82617,3.42871,6.34082,3.42871s4.8252-1.25,6.34082-3.42871c.31543-.4541.20312-1.07715-.25-1.39258-.45605-.31543-1.07715-.2041-1.39258.25-1.13575,1.63379-2.84766,2.57129-4.69824,2.57129s-3.5625-.9375-4.69824-2.57129Z"/>
        <path d="M40,5h-16c-1.65002,0-3,1.34998-3,3v1h-5c-.54999,0-1,.45001-1,1s.45001,1,1,1h5v2h-8c-.54999,0-1,.45001-1,1s.45001,1,1,1h8v2h-13c-1.65002,0-3,1.34998-3,3v4c0,.54999.45001,1,1,1s1-.45001,1-1v-4c0-.54999.45001-1,1-1h16c.54999,0,1,.45001,1,1v16c0,.54999-.45001,1-1,1h-8c-.27002,0-.52002.10999-.71002.28998l-2.28998,2.29999v-1.58997c0-.54999-.45001-1-1-1h-4c-.54999,0-1-.45001-1-1v-4c0-.54999-.45001-1-1-1s-1,.45001-1,1v4c0,1.64996,1.34998,3,3,3h3v3c0,.39996.23999.76996.62006.91998.35449.17719.81763.06232,1.08997-.21002l3.69995-3.70996h7.59003c1.65002,0,3-1.35004,3-3h9c.54999,0,1-.45001,1-1s-.45001-1-1-1h-9v-2h5c.54999,0,1-.45001,1-1s-.45001-1-1-1h-5v-3h5.59003s3.698,3.70801,3.69995,3.70996c.29028.29102.71637.35754,1.09003.21002.38-.15002.62-.52002.62-.91998v-3h2c1.65002,0,3-1.35004,3-3V8c0-1.65002-1.34998-3-3-3ZM41,24c0,.54999-.45001,1-1,1h-3c-.54999,0-1,.45001-1,1v1.58997l-2.28998-2.29999c-.19-.17999-.44-.28998-.71002-.28998h-6v-5c0-1.65002-1.34998-3-3-3h-1v-2h2c.54999,0,1-.45001,1-1s-.45001-1-1-1h-2v-5c0-.54999.45001-1,1-1h16c.54999,0,1,.45001,1,1v16Z"/>
        <path d="M32,10c-1.6543,0-3,1.3457-3,3v6c0,.55273.44727,1,1,1s1-.44727,1-1v-1h2v1c0,.55273.44727,1,1,1s1-.44727,1-1v-6c0-1.6543-1.3457-3-3-3ZM33,16h-2v-3c0-.55176.44824-1,1-1s1,.44824,1,1v3Z"/>
        <circle cx="6" cy="28" r="1"/>
      </g>
    </g>
  </g>
</svg>