<?xml version="1.0" encoding="UTF-8"?>
<svg xmlns="http://www.w3.org/2000/svg" version="1.1" viewBox="0 0 48 48">
  <!-- Generator: Adobe Illustrator 28.7.1, SVG Export Plug-In . SVG Version: 1.2.0 Build 142)  -->
  <g>
    <g id="GLYPH">
      <g>
        <path d="M19,24.18182c-.4082,0-1,.7793-1,2s.5918,2,1,2,1-.7793,1-2-.5918-2-1-2Z"/>
        <path d="M11,28.18182c.4082,0,1-.7793,1-2s-.5918-2-1-2-1,.7793-1,2,.5918,2,1,2Z"/>
        <path d="M32,12c-.55176,0-1,.44824-1,1v3h2v-3c0-.55176-.44824-1-1-1Z"/>
        <path d="M40,5h-16c-1.65002,0-3,1.34998-3,3v1h-5c-.54999,0-1,.45001-1,1s.45001,1,1,1h5v2h-8c-.54999,0-1,.45001-1,1s.45001,1,1,1h8v2.35999h1.27002c2.60999,0,4.72998,2.12,4.72998,4.72998v4.91003h5.59003l3.69995,3.70996c.27026.27026.73804.38599,1.09003.21002.38-.15002.62-.52002.62-.91998v-3h2c1.65002,0,3-1.35004,3-3V8c0-1.65002-1.34998-3-3-3ZM35,19c0,.54999-.45001,1-1,1s-1-.45001-1-1v-1h-2v1c0,.54999-.45001,1-1,1s-1-.45001-1-1v-6c0-1.65002,1.34998-3,3-3s3,1.34998,3,3v6Z"/>
        <path d="M36,34h-11v-2h7c.54999,0,1-.45001,1-1s-.45001-1-1-1h-7v-7.91003c0-1.5-1.21997-2.72998-2.72998-2.72998H7.72998c-1.51001,0-2.72998,1.22998-2.72998,2.72998v14.55005c0,1.5,1.21997,2.71997,2.72998,2.71997h2.72003v2.72998c0,.37.22998.70001.57013.84009.33453.15198.73511.05469.98987-.20007,0-.00006,3.37-3.37,3.37-3.37h6.89001c1.51001,0,2.72998-1.21997,2.72998-2.71997v-.64001h11c.54999,0,1-.45001,1-1s-.45001-1-1-1ZM11,22.17999c1.67999,0,3,1.76001,3,4s-1.32001,4-3,4-3-1.76001-3-4,1.32001-4,3-4ZM21.34003,32.75c-1.51001,2.17999-3.83002,3.42999-6.34003,3.42999s-4.83002-1.25-6.34003-3.42999c-.31995-.45001-.19995-1.07001.25-1.39001.46002-.31,1.08002-.20001,1.39001.25,1.14001,1.63,2.85004,2.57001,4.70001,2.57001s3.56-.94,4.70001-2.57001c.31-.45001.92999-.56,1.39001-.25.44995.32001.56995.94.25,1.39001ZM19,30.17999c-1.67999,0-3-1.76001-3-4s1.32001-4,3-4,3,1.76001,3,4-1.32001,4-3,4Z"/>
      </g>
    </g>
  </g>
</svg>