<?xml version="1.0" encoding="UTF-8"?>
<svg xmlns="http://www.w3.org/2000/svg" version="1.1" viewBox="0 0 48 48">
  <!-- Generator: Adobe Illustrator 28.7.1, SVG Export Plug-In . SVG Version: 1.2.0 Build 142)  -->
  <g>
    <g id="GLYPH">
      <path d="M37,30c3.31,0,6-2.69,6-6,0-2.58002-1.64001-4.83002-4.01001-5.65002.01001-.12.01001-.22998.01001-.34998,0-3.12-2.40002-5.70001-5.45001-5.98004-1.29999-4.16998-5.12-7.01996-9.54999-7.01996s-8.25,2.84998-9.54999,7.01996c-3.04999.28003-5.45001,2.86005-5.45001,5.98004,0,.12,0,.22998.01001.34998-2.37.82001-4.01001,3.07001-4.01001,5.65002,0,3.31,2.69,6,6,6h4v2.17999c-.84998.31-1.51001.96997-1.82001,1.82001h-2.17999c-.54999,0-1,.45001-1,1s.45001,1,1,1h2.17999c.41998,1.15997,1.52002,2,2.82001,2,1.65002,0,3-1.35004,3-3,0-1.29999-.84003-2.40002-2-2.82001v-2.17999h6v7.17999c-.84998.31-1.51001.96997-1.82001,1.82001h-2.17999c-.54999,0-1,.45001-1,1s.45001,1,1,1h2.17999c.41998,1.15997,1.52002,2,2.82001,2s2.40002-.84003,2.82001-2h2.17999c.54999,0,1-.45001,1-1s-.45001-1-1-1h-2.17999c-.31-.85004-.97003-1.51001-1.82001-1.82001v-7.17999h6v2.17999c-1.15997.41998-2,1.52002-2,2.82001,0,1.64996,1.34998,3,3,3,1.29999,0,2.40002-.84003,2.82001-2h2.17999c.54999,0,1-.45001,1-1s-.45001-1-1-1h-2.17999c-.31-.85004-.97003-1.51001-1.82001-1.82001v-2.17999h4ZM23,24c0,.54999-.45001,1-1,1s-1-.45001-1-1v-6.59003l-.28998.29999c-.39001.39001-1.03003.39001-1.42004,0-.38995-.38995-.38995-1.02997,0-1.41998l2-2c.29004-.27997.72003-.37,1.09003-.21002.38.15002.62.52002.62.92004v9ZM28.71002,22.70996s-1.99908,1.99902-2,2c-.25891.25891-.73236.38885-1.09003.21002-.38-.15002-.62-.52002-.62-.91998v-9c0-.54999.45001-1,1-1s1,.45001,1,1v6.58997l.28998-.29999c.39001-.39001,1.03003-.39001,1.42004,0,.38995.39001.38995,1.03003,0,1.41998Z"/>
    </g>
  </g>
</svg>