<?xml version="1.0" encoding="UTF-8"?>
<svg xmlns="http://www.w3.org/2000/svg" version="1.1" viewBox="0 0 48 48">
  <!-- Generator: Adobe Illustrator 28.7.1, SVG Export Plug-In . SVG Version: 1.2.0 Build 142)  -->
  <g>
    <g id="OUTLINE">
      <g>
        <path d="M37,30c3.31,0,6-2.69,6-6,0-2.58002-1.64001-4.83002-4.01001-5.65002.01001-.12.01001-.22998.01001-.34998,0-3.12-2.40002-5.70001-5.45001-5.98004-1.29999-4.16998-5.12-7.01996-9.54999-7.01996s-8.25,2.84998-9.54999,7.01996c-3.04999.28003-5.45001,2.86005-5.45001,5.98004,0,.12,0,.22998.01001.34998-.77002.27002-1.47998.71002-2.09003,1.27002-.39996.38-.41998,1.01001-.03998,1.41998.38.40002,1.02002.41998,1.41998.03998.54999-.51996,1.23999-.87,2-1.00995.27002-.04004.51001-.20001.66003-.42999.15997-.23004.20996-.51001.13995-.77002-.06-.31-.09998-.60004-.09998-.87,0-2.21002,1.78998-4,3.97998-4,.51758.0863,1.1001-.2298,1.22003-.76001.83002-3.66998,4.03998-6.23999,7.79999-6.23999s6.96991,2.56995,7.79999,6.23987c.12366.54675.66724.849,1.20001.76013,2.21002,0,4,1.78998,4,4,0,.26996-.03998.56-.09998.87-.07001.26001-.01001.53998.13995.77002.15002.22998.39001.38995.66003.42999,1.90997.33997,3.29999,1.98999,3.29999,3.92999,0,2.20996-1.78998,4-4,4H11c-1.02002,0-1.98999-.38-2.72998-1.07001-.40002-.38-1.03003-.35999-1.41003.04999-.38.40002-.35999,1.03998.04999,1.41003,1.11005,1.03998,2.56,1.60999,4.09003,1.60999h4v2.17999c-.84998.31-1.51001.96997-1.82001,1.82001h-2.17999c-.54999,0-1,.45001-1,1s.45001,1,1,1h2.17999c.41998,1.15997,1.52002,2,2.82001,2,1.65002,0,3-1.35004,3-3,0-1.29999-.84003-2.40002-2-2.82001v-2.17999h6v7.17999c-.84998.31-1.51001.96997-1.82001,1.82001h-2.17999c-.54999,0-1,.45001-1,1s.45001,1,1,1h2.17999c.41998,1.15997,1.52002,2,2.82001,2s2.40002-.84003,2.82001-2h2.17999c.54999,0,1-.45001,1-1s-.45001-1-1-1h-2.17999c-.31-.85004-.97003-1.51001-1.82001-1.82001v-7.17999h6v2.17999c-1.15997.41998-2,1.52002-2,2.82001,0,1.64996,1.34998,3,3,3,1.29999,0,2.40002-.84003,2.82001-2h2.17999c.54999,0,1-.45001,1-1s-.45001-1-1-1h-2.17999c-.31-.85004-.97003-1.51001-1.82001-1.82001v-2.17999h4ZM16,36c-.54999,0-1-.45001-1-1s.45001-1,1-1,1,.45001,1,1-.45001,1-1,1ZM24,41c-.54999,0-1-.45001-1-1s.45001-1,1-1,1,.45001,1,1-.45001,1-1,1ZM32,36c-.54999,0-1-.45001-1-1s.45001-1,1-1,1,.45001,1,1-.45001,1-1,1Z"/>
        <path d="M22,25c.55273,0,1-.44775,1-1v-9c0-.4043-.24316-.76904-.61719-.92383-.375-.15479-.80371-.06934-1.08984.2168l-2,2c-.39062.39062-.39062,1.02344,0,1.41406s1.02344.39062,1.41406,0l.29297-.29297v6.58594c0,.55225.44727,1,1,1Z"/>
        <path d="M26,14c-.55273,0-1,.44775-1,1v9c0,.4043.24316.76904.61725.92383.37238.15393.80396.06641,1.08978-.2168l2-2c.39062-.39062.39062-1.02344,0-1.41406s-1.02344-.39062-1.41406,0l-.29297.29297v-6.58594c0-.55225-.44727-1-1-1Z"/>
        <circle cx="6" cy="24" r="1"/>
      </g>
    </g>
  </g>
</svg>