<?xml version="1.0" encoding="UTF-8"?>
<svg xmlns="http://www.w3.org/2000/svg" version="1.1" viewBox="0 0 48 48">
  <!-- Generator: Adobe Illustrator 28.7.1, SVG Export Plug-In . SVG Version: 1.2.0 Build 142)  -->
  <g>
    <g id="OUTLINE">
      <g>
        <path d="M40,37c-1.03998,0-1.96002.53998-2.5,1.34998l-4.5-1.13v-2.20996c2.29999-.62,4-1.57001,4-3.01001v-16c0-1.51001-1.81-2.44-4-3.02002v-2.20001l4.5-1.13c.53998.81,1.46002,1.35004,2.5,1.35004,1.65002,0,3-1.35004,3-3s-1.34998-3-3-3c-1.54999,0-2.82001,1.19-2.96997,2.70996l-5.27002,1.32001c-.45001.11005-.76001.51001-.76001.97003v2.54999c-1.54999-.26001-3.07001-.39001-4.15997-.46002-.28003-.88995-.96002-1.58997-1.84003-1.90997v-3.17999h3c.54999,0,1-.45001,1-1s-.45001-1-1-1h-8c-.54999,0-1,.45001-1,1s.45001,1,1,1h3v3.17999c-.88.32001-1.56,1.02002-1.83997,1.90997-1.09003.07001-2.61005.20001-4.16003.46002v-2.54999c0-.46002-.31-.85999-.76001-.97003l-5.26996-1.32001c-.15002-1.51996-1.42004-2.70996-2.97003-2.70996-1.64996,0-3,1.34998-3,3s1.35004,3,3,3c1.04004,0,1.96002-.54004,2.5-1.35004l4.5,1.13v2.20001c-2.19.58002-4,1.51001-4,3.02002v16c0,1.44,1.70001,2.39001,4,3.01001v2.20996l-4.5,1.13c-.53998-.81-1.45996-1.34998-2.5-1.34998-1.64996,0-3,1.34998-3,3s1.35004,3,3,3c1.54999,0,2.82001-1.19,2.97003-2.71002l5.26996-1.32001c.45001-.10999.76001-.51001.76001-.96997v-2.56c1.98004.33997,4.15002.51001,6,.54999v5.01001h-2c-.54999,0-1,.45001-1,1s.45001,1,1,1h6c.54999,0,1-.45001,1-1s-.45001-1-1-1h-2v-5.01001c1.85004-.03998,4.02002-.21002,6-.54999v2.56c0,.45996.31.85999.76001.96997l5.27002,1.32001c.14996,1.52002,1.41998,2.71002,2.96997,2.71002,1.65002,0,3-1.35004,3-3s-1.34998-3-3-3ZM40,7c.54999,0,1,.45001,1,1s-.45001,1-1,1-1-.45001-1-1,.45001-1,1-1ZM8,9c-.54999,0-1-.45001-1-1s.45001-1,1-1,1,.45001,1,1-.45001,1-1,1ZM8,41c-.54999,0-1-.45001-1-1s.45001-1,1-1,1,.45001,1,1-.45001,1-1,1ZM24,12c.54999,0,1,.45001,1,1s-.45001,1-1,1-1-.45001-1-1,.45001-1,1-1ZM13,18.32001c1.92999.91998,4.85999,1.32001,6.92004,1.5.54443,0,1.03485-.33643,1.08997-.91003.03998-.54999-.35999-1.03998-.90997-1.08997-4.60004-.39001-6.70001-1.36005-7.07001-1.82001.45001-.58002,3.12-1.60999,8.17999-1.91003.44,1.12,1.52002,1.91003,2.78998,1.91003s2.35004-.79004,2.79004-1.91003c5.06.30005,7.72998,1.33002,8.17993,1.91003-.37.45996-2.46997,1.42999-7.06995,1.82001-.54999.04999-.95001.53998-.91003,1.0899.0415.57117.55695.9101,1.09003.9101,2.06-.17999,4.98999-.58002,6.91998-1.5v2.69c-2.75.62-6.76996.98999-11,.98999-4.21997,0-8.25-.37-11-.98999v-2.69ZM13,23.06c2.88.59998,6.79999.94,11,.94s8.12-.34003,11.01001-.94v5.75c-2.52002.73999-6.62,1.19-11.01001,1.19-4.38,0-8.47998-.45001-11-1.19v-5.75ZM24,34c-6.67999,0-10.65997-1.33002-11-2v-1.10999c2.73004.69995,6.69,1.10999,11,1.10999s8.28003-.41003,11.01001-1.12v1.04999c-.35004.73999-4.33002,2.07001-11.01001,2.07001ZM40,41c-.54999,0-1-.45001-1-1s.45001-1,1-1,1,.45001,1,1-.45001,1-1,1Z"/>
        <circle cx="24" cy="19" r="1"/>
      </g>
    </g>
  </g>
</svg>