<?xml version="1.0" encoding="UTF-8"?>
<svg xmlns="http://www.w3.org/2000/svg" version="1.1" viewBox="0 0 48 48">
  <!-- Generator: Adobe Illustrator 28.7.1, SVG Export Plug-In . SVG Version: 1.2.0 Build 142)  -->
  <g>
    <g id="GLYPH">
      <g>
        <circle cx="24" cy="13" r="2"/>
        <path d="M20,7h3v2.13c.32001-.09003.65002-.13,1-.13.35004,0,.67999.03998,1,.13v-2.13h3c.55225,0,1-.44727,1-1s-.44775-1-1-1h-8c-.55225,0-1,.44727-1,1s.44775,1,1,1Z"/>
        <path d="M8,11c1.04004,0,1.96002-.54004,2.5-1.35004l4.5,1.13v2.96002c-2.29999.46002-4,1.17999-4,2.26001,0,2.37,8.17004,3,13,3s13-.63,13-3c0-1.08002-1.70001-1.79999-4-2.26001v-2.96002l4.5-1.13c.53998.81,1.46002,1.35004,2.5,1.35004,1.65002,0,3-1.35004,3-3s-1.34998-3-3-3c-1.54999,0-2.82001,1.19-2.96997,2.70996l-5.27002,1.32001c-.45001.11005-.76001.51001-.76001.97003v3.41998c-.97998-.13-2-.21997-3.01001-.27997-.06995,2.14996-1.82996,3.85999-3.98999,3.85999s-3.91998-1.71002-3.98999-3.85999c-1.01001.06-2.02997.14996-3.01001.27997v-3.41998c0-.46002-.31-.85999-.76001-.97003l-5.26996-1.32001c-.15002-1.51996-1.42004-2.70996-2.97003-2.70996-1.64996,0-3,1.34998-3,3s1.35004,3,3,3Z"/>
        <path d="M40,37c-1.04388,0-1.96271.53723-2.50031,1.34827l-4.49969-1.12854v-1.19873c2.30139-.61725,4-1.5733,4-3.0127v-.80029c-3.77582,1.71515-11.68671,1.79919-12.95758,1.80054-.01489-.00067-.0274-.00854-.04242-.00854s-.02753.00787-.04242.00854c-1.27081-.00134-9.18176-.08539-12.95758-1.80054v.80029c0,1.43939,1.69861,2.39545,4,3.0127v1.19873l-4.49969,1.12854c-.5376-.81104-1.45642-1.34827-2.50031-1.34827-1.6543,0-3,1.3457-3,3s1.3457,3,3,3c1.55438,0,2.82129-1.19244,2.97052-2.70819l5.27264-1.32208c.44482-.11133.75684-.51074.75684-.96973v-1.54431c1.9826.34235,4.15149.50262,6,.54431v4h-2c-.55225,0-1,.44727-1,1s.44775,1,1,1h6c.55225,0,1-.44727,1-1s-.44775-1-1-1h-2v-4c1.84851-.04169,4.0174-.20197,6-.54431v1.54431c0,.45898.31201.8584.75684.96973l5.27264,1.32208c.14923,1.51575,1.41614,2.70819,2.97052,2.70819,1.6543,0,3-1.3457,3-3s-1.3457-3-3-3Z"/>
        <path d="M11,24.20941v5.70709c.59015.77039,5.3089,2.09143,13,2.09143s12.40985-1.32104,13-2.09143v-5.70709c-3.80853,1.72961-11.83533,1.79602-13,1.79602s-9.19147-.06641-13-1.79602Z"/>
        <path d="M37,19.03247c-1.90997,1.07043-5.65997,1.97083-13,1.97083s-11.09003-.90039-13-1.97083v2.88074c.59015.77032,5.3089,2.09137,13,2.09137s12.40985-1.32104,13-2.09137v-2.88074Z"/>
      </g>
    </g>
  </g>
</svg>