<?xml version="1.0" encoding="UTF-8"?>
<svg xmlns="http://www.w3.org/2000/svg" version="1.1" viewBox="0 0 48 48">
  <!-- Generator: Adobe Illustrator 28.7.1, SVG Export Plug-In . SVG Version: 1.2.0 Build 142)  -->
  <g>
    <g id="OUTLINE">
      <g>
        <path d="M24,19c1.6543,0,3-1.3457,3-3s-1.3457-3-3-3-3,1.3457-3,3,1.3457,3,3,3ZM24,15c.55127,0,1,.44873,1,1s-.44873,1-1,1-1-.44873-1-1,.44873-1,1-1Z"/>
        <path d="M40,27c1.65002,0,3-1.35004,3-3s-1.34998-3-3-3c-.46002,0-.89001.10999-1.28998.29999l-4.01001-4.01001c.19-.39996.29999-.83002.29999-1.28998,0-.46002-.10999-.89001-.29999-1.29004l4.01001-4.00995c.09998.03998.19.07996.28998.12v2.17999c0,.54999.45001,1,1,1s1-.45001,1-1v-2.17999c1.15997-.42004,2-1.52002,2-2.82001,0-1.65002-1.34998-3-3-3-1.29999,0-2.40002.83997-2.82001,2h-2.17999c-.54999,0-1,.45001-1,1s.45001,1,1,1h2.17999c.03998.09998.08002.19.12.28998l-4.00995,4.01001c-.40002-.19-.83002-.29999-1.29004-.29999-.45996,0-.89001.10999-1.28998.29999l-4.01001-4.01001c.19-.39996.29999-.83002.29999-1.28998,0-1.65002-1.34998-3-3-3s-3,1.34998-3,3,1.35004,3,3,3c.46002,0,.89001-.10999,1.29004-.29999l4.00995,4.00995c-.19.40002-.29999.83002-.29999,1.29004,0,.45996.10999.89001.29999,1.28998l-4.00995,4.01001c-.40002-.19-.83002-.29999-1.29004-.29999-.45996,0-.89001.10999-1.28998.29999l-4.01001-4.01001c.19-.39996.29999-.83002.29999-1.28998,0-1.65002-1.34998-3-3-3-.45996,0-.89001.10999-1.28998.29999l-4.01001-4.01001c.03998-.09998.08002-.19.12-.28998h2.17999c.54999,0,1-.45001,1-1s-.45001-1-1-1h-2.17999c-.41998-1.16003-1.52002-2-2.82001-2-1.64996,0-3,1.34998-3,3,0,1.29999.84003,2.39996,2,2.82001v2.17999c0,.54999.45001,1,1,1s1-.45001,1-1v-2.17999c.10004-.04004.19-.08002.29004-.12l4.00995,4.00995c-.19.40002-.29999.83002-.29999,1.29004,0,.45996.10999.89001.29999,1.28998l-4.00995,4.01001c-.40002-.19-.83002-.29999-1.29004-.29999-1.64996,0-3,1.34998-3,3s1.35004,3,3,3c.46002,0,.89001-.10999,1.29004-.29999l4.00995,4.00995c-.19.40002-.29999.83002-.29999,1.29004,0,.45996.10999.89001.29999,1.28998l-4.00995,4.01001c-.10004-.03998-.19-.08002-.29004-.12v-2.17999c0-.54999-.45001-1-1-1s-1,.45001-1,1v2.17999c-1.15997.41998-2,1.52002-2,2.82001,0,1.64996,1.35004,3,3,3,1.29999,0,2.40002-.84003,2.82001-2h2.17999c.54999,0,1-.45001,1-1s-.45001-1-1-1h-2.17999c-.03998-.10004-.08002-.19-.12-.29004l4.01001-4.00995c.39996.19.83002.29999,1.28998.29999.46002,0,.89001-.10999,1.29004-.29999l4.00995,4.00995c-.19.40002-.29999.83002-.29999,1.29004,0,1.64996,1.35004,3,3,3s3-1.35004,3-3c0-.46002-.10999-.89001-.29999-1.29004l4.01001-4.00995c.39996.19.83002.29999,1.28998.29999.46002,0,.89001-.10999,1.29004-.29999l4.00995,4.00995c-.03998.10004-.08002.19-.12.29004h-2.17999c-.54999,0-1,.45001-1,1s.45001,1,1,1h2.17999c.41998,1.15997,1.52002,2,2.82001,2,1.65002,0,3-1.35004,3-3,0-1.29999-.84003-2.40002-2-2.82001v-2.17999c0-.54999-.45001-1-1-1s-1,.45001-1,1v2.17999c-.09998.03998-.19.08002-.28998.12l-4.01001-4.01001c.19-.39996.29999-.83002.29999-1.28998,0-.46002-.10999-.89001-.29999-1.29004l4.01001-4.00995c.39996.19.82996.29999,1.28998.29999ZM39.28998,23.29999h.01001v-.01001c.17999-.17999.42999-.28998.70001-.28998.54999,0,1,.45001,1,1s-.45001,1-1,1c-.27002,0-.52002-.10999-.70001-.29004v-.00995h-.01001c-.17999-.18005-.28998-.43005-.28998-.70001,0-.27002.10999-.52002.28998-.70001ZM40,7c.54999,0,1,.45001,1,1s-.45001,1-1,1c-.27002,0-.52002-.10999-.70001-.29004v-.00995h-.01001c-.17999-.18005-.28998-.43005-.28998-.70001,0-.54999.45001-1,1-1ZM24.71002,8.70001h-.01001v.00995c-.17999.18005-.42999.29004-.70001.29004-.54999,0-1-.45001-1-1s.45001-1,1-1,1,.45001,1,1c0,.26996-.10999.51996-.28998.70001ZM8.71002,8.70001h-.01001v.00995c-.17999.18005-.42999.29004-.70001.29004-.54999,0-1-.45001-1-1s.45001-1,1-1,1,.45001,1,1c0,.26996-.10999.51996-.28998.70001ZM8.71002,24.70001h-.01001v.00995c-.17999.18005-.42999.29004-.70001.29004-.54999,0-1-.45001-1-1s.45001-1,1-1c.27002,0,.52002.10999.70001.28998v.01001h.01001c.17999.17999.28998.42999.28998.70001,0,.26996-.10999.51996-.28998.70001ZM8,41c-.54999,0-1-.45001-1-1s.45001-1,1-1c.27002,0,.52002.10999.70001.28998v.01001h.01001c.17999.17999.28998.42999.28998.70001,0,.54999-.45001,1-1,1ZM39.28998,39.29999h.01001v-.01001c.17999-.17999.42999-.28998.70001-.28998.54999,0,1,.45001,1,1s-.45001,1-1,1-1-.45001-1-1c0-.27002.10999-.52002.28998-.70001ZM31.29004,15.29999h.00995v-.01001c.18005-.17999.43005-.28998.70001-.28998.27002,0,.52002.10999.70001.28998v.01001h.01001c.17999.17999.28998.42999.28998.70001,0,.26996-.10999.51996-.28998.70001h-.01001v.00995c-.17999.18005-.42999.29004-.70001.29004-.26996,0-.51996-.10999-.70001-.29004v-.00995h-.00995c-.18005-.18005-.29004-.43005-.29004-.70001,0-.27002.10999-.52002.29004-.70001ZM23.29004,23.29999h.00995v-.01001c.18005-.17999.43005-.28998.70001-.28998.27002,0,.52002.10999.70001.28998v.01001h.01001c.17999.17999.28998.42999.28998.70001,0,.26996-.10999.51996-.28998.70001h-.01001v.00995c-.17999.18005-.42999.29004-.70001.29004-.26996,0-.51996-.10999-.70001-.29004v-.00995h-.00995c-.18005-.18005-.29004-.43005-.29004-.70001,0-.27002.10999-.52002.29004-.70001ZM15.29004,15.29999h.00995v-.01001c.18005-.17999.43005-.28998.70001-.28998.54999,0,1,.45001,1,1,0,.26996-.10999.51996-.28998.70001h-.01001v.00995c-.17999.18005-.42999.29004-.70001.29004-.26996,0-.51996-.10999-.70001-.29004v-.00995h-.00995c-.18005-.18005-.29004-.43005-.29004-.70001,0-.27002.10999-.52002.29004-.70001ZM14.71002,18.70001c.39996.19.83002.29999,1.28998.29999.46002,0,.89001-.10999,1.29004-.29999l4.00995,4.00995c-.03998.10004-.07996.19-.12.29004h-2.35999c-.41998-1.16003-1.52002-2-2.82001-2s-2.39996.83997-2.82001,2h-2.35999c-.03998-.10004-.08002-.19-.12-.29004l4.01001-4.00995ZM17,24c0,.54999-.45001,1-1,1s-1-.45001-1-1,.45001-1,1-1,1,.45001,1,1ZM16.71002,32.70001h-.01001v.00995c-.17999.18005-.42999.29004-.70001.29004-.26996,0-.51996-.10999-.70001-.29004v-.00995h-.00995c-.18005-.18005-.29004-.43005-.29004-.70001,0-.27002.10999-.52002.29004-.70001h.00995v-.01001c.18005-.17999.43005-.28998.70001-.28998.27002,0,.52002.10999.70001.28998v.01001h.01001c.17999.17999.28998.42999.28998.70001,0,.26996-.10999.51996-.28998.70001ZM16,29c-.45996,0-.89001.10999-1.28998.29999l-4.01001-4.01001c.03998-.09998.08002-.19.12-.28998h2.35999c.42004,1.15997,1.52002,2,2.82001,2s2.40002-.84003,2.82001-2h2.35999c.04004.09998.08002.19.12.28998l-4.00995,4.01001c-.40002-.19-.83002-.29999-1.29004-.29999ZM24,41c-.54999,0-1-.45001-1-1,0-.27002.10999-.52002.29004-.70001h.00995v-.01001c.18005-.17999.43005-.28998.70001-.28998.27002,0,.52002.10999.70001.28998v.01001h.01001c.17999.17999.28998.42999.28998.70001,0,.54999-.45001,1-1,1ZM29.29999,33.28998l-4.00995,4.01001c-.40002-.19-.83002-.29999-1.29004-.29999-.45996,0-.89001.10999-1.28998.29999l-4.01001-4.01001c.19-.39996.29999-.83002.29999-1.28998,0-.46002-.10999-.89001-.29999-1.29004l4.01001-4.00995c.39996.19.83002.29999,1.28998.29999.46002,0,.89001-.10999,1.29004-.29999l4.00995,4.00995c-.19.40002-.29999.83002-.29999,1.29004,0,.45996.10999.89001.29999,1.28998ZM32.71002,32.70001h-.01001v.00995c-.17999.18005-.42999.29004-.70001.29004-.26996,0-.51996-.10999-.70001-.29004v-.00995h-.00995c-.18005-.18005-.29004-.43005-.29004-.70001,0-.27002.10999-.52002.29004-.70001h.00995v-.01001c.18005-.17999.43005-.28998.70001-.28998.27002,0,.52002.10999.70001.28998v.01001h.01001c.17999.17999.28998.42999.28998.70001,0,.26996-.10999.51996-.28998.70001ZM33.29004,29.29999c-.40002-.19-.83002-.29999-1.29004-.29999-.45996,0-.89001.10999-1.28998.29999l-4.01001-4.01001c.03998-.09998.08002-.19.12-.28998h2.35999c.42004,1.15997,1.52002,2,2.82001,2s2.40002-.84003,2.82001-2h2.35999c.03998.09998.08002.19.12.28998l-4.00995,4.01001ZM31,24c0-.54999.45001-1,1-1s1,.45001,1,1-.45001,1-1,1-1-.45001-1-1ZM37.17999,23h-2.35999c-.41998-1.16003-1.52002-2-2.82001-2s-2.39996.83997-2.82001,2h-2.35999c-.03998-.10004-.08002-.19-.12-.29004l4.01001-4.00995c.39996.19.83002.29999,1.28998.29999.46002,0,.89001-.10999,1.29004-.29999l4.00995,4.00995c-.03998.10004-.08002.19-.12.29004Z"/>
        <path d="M24,29c-1.6543,0-3,1.3457-3,3s1.3457,3,3,3,3-1.3457,3-3-1.3457-3-3-3ZM24,33c-.55127,0-1-.44873-1-1s.44873-1,1-1,1,.44873,1,1-.44873,1-1,1Z"/>
        <circle cx="20" cy="12" r="1"/>
      </g>
    </g>
  </g>
</svg>