<?xml version="1.0" encoding="UTF-8"?>
<svg xmlns="http://www.w3.org/2000/svg" version="1.1" viewBox="0 0 48 48">
  <!-- Generator: Adobe Illustrator 28.7.1, SVG Export Plug-In . SVG Version: 1.2.0 Build 142)  -->
  <g>
    <g id="OUTLINE">
      <g>
        <path d="M41.99994,37H10.99994V6c0-.54999-.45001-1-1-1h-4c-.54999,0-1,.45001-1,1v11c0,.54999.45001,1,1,1s1-.45001,1-1V7h2v34h-2v-16c0-.54999-.45001-1-1-1s-1,.45001-1,1v17c0,.54999.45001,1,1,1h36c.54999,0,1-.45001,1-1v-4c0-.54999-.45001-1-1-1ZM40.99994,41H10.99994v-2h30v2Z"/>
        <path d="M28.99994,24c0,3.85938,3.14014,7,7,7,1.21545,0,2.35883-.31244,3.35596-.85962,0,0,1.84283,2.4574,1.84424,2.45923.32727.4364.96417.52612,1.3999.2002.44189-.33105.53125-.95801.19971-1.39941l-1.8454-2.46075c1.26324-1.26697,2.04559-3.01367,2.04559-4.93964,0-3.85938-3.14014-7-7-7s-7,3.14062-7,7ZM35.99994,19c2.75684,0,5,2.24316,5,5s-2.24316,5-5,5-5-2.24316-5-5,2.24316-5,5-5Z"/>
        <path d="M33.99994,25c.55225,0,1-.44727,1-1,0-.55176.44873-1,1-1,.55225,0,1-.44727,1-1s-.44775-1-1-1c-1.6543,0-3,1.3457-3,3,0,.55273.44775,1,1,1Z"/>
        <path d="M13.99994,35h4c.55225,0,1-.44727,1-1v-12c0-.55273-.44775-1-1-1h-4c-.55225,0-1,.44727-1,1v12c0,.55273.44775,1,1,1ZM14.99994,23h2v10h-2v-10Z"/>
        <path d="M25.99994,25h-4c-.55225,0-1,.44727-1,1v8c0,.55273.44775,1,1,1h4c.55225,0,1-.44727,1-1v-8c0-.55273-.44775-1-1-1ZM24.99994,33h-2v-6h2v6Z"/>
        <path d="M13.99994,19h7v3c0,.55273.44775,1,1,1h4c.55225,0,1-.44727,1-1s-.44775-1-1-1h-3v-3c0-.55273-.44775-1-1-1h-8c-.55225,0-1,.44727-1,1s.44775,1,1,1Z"/>
        <path d="M15.99994,11c1.30194,0,2.40161-.8385,2.81573-2h2.36859c.41412,1.1615,1.51373,2,2.81567,2,.36609,0,.71289-.07538,1.03754-.19598l1.39093,1.67535c-.26575.44757-.42847.96344-.42847,1.52063,0,1.6543,1.3457,3,3,3s3-1.3457,3-3-1.3457-3-3-3c-.36615,0-.71289.07532-1.03754.19592l-1.39093-1.67529c.26575-.44757.42847-.96338.42847-1.52063,0-1.6543-1.3457-3-3-3-1.30194,0-2.40161.8385-2.81573,2h-2.36853c-.41412-1.1615-1.51379-2-2.81573-2-1.6543,0-3,1.3457-3,3s1.3457,3,3,3ZM28.99994,13c.55127,0,1,.44824,1,1s-.44873,1-1,1-1-.44824-1-1,.44873-1,1-1ZM23.99994,7c.55127,0,1,.44824,1,1s-.44873,1-1,1-1-.44824-1-1,.44873-1,1-1ZM15.99994,7c.55127,0,1,.44824,1,1s-.44873,1-1,1-1-.44824-1-1,.44873-1,1-1Z"/>
        <circle cx="5.99994" cy="21" r="1"/>
      </g>
    </g>
  </g>
</svg>