<?xml version="1.0" encoding="UTF-8"?>
<svg xmlns="http://www.w3.org/2000/svg" version="1.1" viewBox="0 0 48 48">
  <!-- Generator: Adobe Illustrator 28.7.1, SVG Export Plug-In . SVG Version: 1.2.0 Build 142)  -->
  <g>
    <g id="GLYPH">
      <g>
        <path d="M8,5h-2c-.54999,0-1,.45001-1,1v36c0,.54999.45001,1,1,1h3V6c0-.55231-.44769-1-1-1Z"/>
        <path d="M42,39H11v4h31c.54999,0,1-.45001,1-1v-2c0-.54999-.45001-1-1-1Z"/>
        <path d="M30,24c0,3.31,2.69,6,6,6s6-2.69,6-6-2.69-6-6-6-6,2.69-6,6ZM36,21c.54999,0,1,.45001,1,1s-.45001,1-1,1-1,.45001-1,1-.45001,1-1,1-1-.45001-1-1c0-1.65002,1.34998-3,3-3Z"/>
        <path d="M39.96002,30.94s1.23877,1.65826,1.23999,1.65997c.32104.42975.95398.52209,1.39996.20001.44-.33002.53003-.96002.20001-1.40002l-1.23999-1.65997c-.47998.46002-1.02002.87-1.59998,1.20001Z"/>
        <rect x="11" y="21" width="6" height="16" rx="1" ry="1"/>
        <rect x="19" y="25" width="6" height="12" rx="1" ry="1"/>
        <path d="M14,19h7v3c0,.55273.44775,1,1,1h4c.55225,0,1-.44727,1-1s-.44775-1-1-1h-3v-3c0-.55273-.44775-1-1-1h-8c-.55225,0-1,.44727-1,1s.44775,1,1,1Z"/>
        <path d="M16,11c1.30194,0,2.40161-.8385,2.81573-2h2.36859c.41412,1.1615,1.51373,2,2.81567,2,.36609,0,.71289-.07538,1.03754-.19598l1.39093,1.67535c-.26575.44757-.42847.96344-.42847,1.52063,0,1.6543,1.3457,3,3,3s3-1.3457,3-3-1.3457-3-3-3c-.36615,0-.71289.07532-1.03754.19592l-1.39093-1.67529c.26575-.44757.42847-.96338.42847-1.52063,0-1.6543-1.3457-3-3-3-1.30194,0-2.40161.8385-2.81573,2h-2.36853c-.41412-1.1615-1.51379-2-2.81573-2-1.6543,0-3,1.3457-3,3s1.3457,3,3,3Z"/>
      </g>
    </g>
  </g>
</svg>