<?xml version="1.0" encoding="UTF-8"?>
<svg xmlns="http://www.w3.org/2000/svg" version="1.1" viewBox="0 0 48 48">
  <!-- Generator: Adobe Illustrator 28.7.1, SVG Export Plug-In . SVG Version: 1.2.0 Build 142)  -->
  <g>
    <g id="OUTLINE">
      <g>
        <path d="M41.10999,24.57001l-3.35999-1.35004-2.01001-4.60999c-.60999-2.13-2.57001-3.60999-4.79999-3.60999h-5.94v-4.17999c1.15997-.42004,2-1.52002,2-2.82001,0-1.65002-1.34998-3-3-3s-3,1.34998-3,3c0,1.29999.84003,2.39996,2,2.82001v4.17999h-5.94c-2.22998,0-4.19,1.47998-4.79999,3.60999l-2.01001,4.60999-3.35999,1.35004c-1.13.44995-1.89001,1.56-1.89001,2.77997v8.65002c0,1.64996,1.34998,3,3,3v1c0,1.64996,1.34998,3,3,3h4c1.65002,0,3-1.35004,3-3v-1h2c.54999,0,1-.45001,1-1s-.45001-1-1-1h-12c-.54999,0-1-.45001-1-1v-8.65002c0-.39996.25-.77002.63-.91998l3.73999-1.5c.25-.10004.44-.28998.54999-.53003.7522-1.72656,1.55255-3.4411,2.25-5.19.35004-1.29999,1.54004-2.20996,2.89001-2.20996h13.88c1.34998,0,2.53998.90997,2.89001,2.20996.69727,1.74878,1.46619,3.47833,2.25,5.19.10999.24005.29999.42999.54999.53003l3.73999,1.5c.38.14996.63.52002.63.91998v8.65002c0,.54999-.45001,1-1,1h-12c-.54999,0-1,.45001-1,1s.45001,1,1,1h2v1c0,1.64996,1.34998,3,3,3h4c1.65002,0,3-1.35004,3-3v-1c1.65002,0,3-1.35004,3-3v-8.65002c0-1.21997-.76001-2.33002-1.89001-2.77997ZM10,39h6v1c0,.54999-.45001,1-1,1h-4c-.54999,0-1-.45001-1-1v-1ZM24,9c-.54999,0-1-.45001-1-1s.45001-1,1-1,1,.45001,1,1-.45001,1-1,1ZM38,40c0,.54999-.45001,1-1,1h-4c-.54999,0-1-.45001-1-1v-1h6v1Z"/>
        <path d="M10,29c-.55273,0-1,.44727-1,1v4c0,.55273.44727,1,1,1h7c.55273,0,1-.44727,1-1v-2c0-1.6543-1.3457-3-3-3h-5ZM16,32v1h-5v-2h4c.55176,0,1,.44824,1,1Z"/>
        <path d="M38,35c.55273,0,1-.44727,1-1v-4c0-.55273-.44727-1-1-1h-5c-1.6543,0-3,1.3457-3,3v2c0,.55273.44727,1,1,1h7ZM32,32c0-.55176.44824-1,1-1h4v2h-5v-1Z"/>
        <path d="M21,35h6c.55273,0,1-.44727,1-1s-.44727-1-1-1h-6c-.55273,0-1,.44727-1,1s.44727,1,1,1Z"/>
        <path d="M13.75781,6.96973l4,1c.52924.13385,1.08057-.19989,1.21191-.72754.13477-.53516-.19141-1.07812-.72754-1.21191l-4-1c-.53711-.13574-1.0791.19043-1.21191.72754-.13477.53516.19141,1.07812.72754,1.21191Z"/>
        <path d="M14,12h3c.55273,0,1-.44727,1-1s-.44727-1-1-1h-3c-.55273,0-1,.44727-1,1s.44727,1,1,1Z"/>
        <path d="M29.99908,7.99872c.08063.00079.16223-.00854.2431-.02899l4-1c.53613-.13379.8623-.67676.72754-1.21191-.13379-.53711-.67871-.8623-1.21191-.72754,0,0-3.99036.99756-4,1-1.11157.27789-.90118,1.95734.24127,1.96844Z"/>
        <path d="M34,10h-3c-.55273,0-1,.44727-1,1s.44727,1,1,1h3c.55273,0,1-.44727,1-1s-.44727-1-1-1Z"/>
        <path d="M23,28c.55273,0,1-.44727,1-1v-4c0-1.6543-1.3457-3-3-3s-3,1.3457-3,3v4c0,.55273.44727,1,1,1s1-.44727,1-1v-1h2v1c0,.55273.44727,1,1,1ZM20,24v-1c0-.55176.44824-1,1-1s1,.44824,1,1v1h-2Z"/>
        <path d="M26,27c0,.55273.44727,1,1,1s1-.44727,1-1v-3c0-.55273-.44727-1-1-1s-1,.44727-1,1v3Z"/>
        <circle cx="27" cy="21" r="1"/>
        <circle cx="24" cy="38" r="1"/>
      </g>
    </g>
  </g>
</svg>