<?xml version="1.0" encoding="UTF-8"?>
<svg xmlns="http://www.w3.org/2000/svg" version="1.1" viewBox="0 0 48 48">
  <!-- Generator: Adobe Illustrator 28.7.1, SVG Export Plug-In . SVG Version: 1.2.0 Build 142)  -->
  <g>
    <g id="GLYPH">
      <g>
        <path d="M41,30v-11.01001c.26001-.01001.52002-.12.70001-.31.17999-.20001.27997-.47998.26001-.76001-.55005-7.23999-6.69-12.91998-13.96002-12.91998h-1v4h1c5.12,0,9.5,3.98999,9.96002,9.08997.04999.52002.47998.91003,1,.91003h.03998v21h2c1.09998,0,2-.90002,2-2v-6c0-1.10004-.90002-2-2-2Z"/>
        <path d="M35,23H13c-1.09998,0-2,.89996-2,2v1.53998c1.06-.96002,2.46002-1.53998,4-1.53998h18c1.53998,0,2.94.57996,4,1.53998v-1.53998c0-1.10004-.90002-2-2-2Z"/>
        <path d="M33,27H15c-2.21002,0-4,1.78998-4,4v8c0,2.20996,1.78998,4,4,4h2.76001c1.14001,0,2.19-.65002,2.69-1.67004l.88-1.76996c.17999-.34003.52997-.56.90997-.56h3.52002c.38,0,.72998.21997.90997.56l.88,1.76996c.5,1.02002,1.54999,1.67004,2.69,1.67004h2.76001c2.21002,0,4-1.79004,4-4v-8c0-2.21002-1.78998-4-4-4ZM27,32h-6c-.54999,0-1-.45001-1-1s.45001-1,1-1h6c.54999,0,1,.45001,1,1s-.45001,1-1,1Z"/>
        <path d="M23,21c.55225,0,1-.44727,1-1v-4c0-1.6543-1.3457-3-3-3s-3,1.3457-3,3v4c0,.55273.44775,1,1,1s1-.44727,1-1v-1h2v1c0,.55273.44775,1,1,1ZM20,17v-1c0-.55176.44873-1,1-1s1,.44824,1,1v1h-2Z"/>
        <path d="M27,21c.55225,0,1-.44727,1-1v-3c0-.55273-.44775-1-1-1s-1,.44727-1,1v3c0,.55273.44775,1,1,1Z"/>
        <circle cx="27" cy="14" r="1"/>
        <rect x="23" y="5" width="2" height="4"/>
        <path d="M20,9h1v-4h-1c-7.27002,0-13.40997,5.67999-13.96002,12.91998-.01996.28003.08002.56.26001.76001.17999.19.44.29999.70001.31v11.01001c-1.09998,0-2,.89996-2,2v6c0,1.09998.90002,2,2,2h2v-21h.03998c.52002,0,.95001-.39001,1-.91003.46002-5.09998,4.84003-9.08997,9.96002-9.08997Z"/>
      </g>
    </g>
  </g>
</svg>