<?xml version="1.0" encoding="UTF-8"?>
<svg xmlns="http://www.w3.org/2000/svg" version="1.1" viewBox="0 0 48 48">
  <!-- Generator: Adobe Illustrator 28.7.1, SVG Export Plug-In . SVG Version: 1.2.0 Build 142)  -->
  <g>
    <g id="OUTLINE">
      <g>
        <path d="M35,16c0-1.6543-1.3457-3-3-3-1.43787,0-2.6402,1.01764-2.93079,2.36987-1.44427.57758-3.22266,1.72125-5.06958,3.2384-3.0929-2.54175-6.81799-4.75842-8.48499-3.09363-1.66632,1.66705.55121,5.39233,3.09351,8.48523-1.5174,1.84717-2.66071,3.62531-3.23828,5.06934-1.35223.29059-2.36987,1.49292-2.36987,2.93079,0,1.6543,1.3457,3,3,3,1.43787,0,2.6402-1.01764,2.93079-2.36987,1.44415-.57751,3.22241-1.72095,5.06909-3.23798,2.34692,1.9292,5.05774,3.67133,6.95764,3.67133.604-.00049,1.12598-.17627,1.52783-.57812,1.66632-1.66705-.55121-5.39233-3.09351-8.48523,1.5174-1.84717,2.66071-3.62531,3.23828-5.06934,1.35223-.29059,2.36987-1.49292,2.36987-2.93079ZM16.89453,16.95459c.05371-.02344.12451-.03564.21094-.03564.7663,0,2.77881.94446,5.36133,3.01642-.43298.39734-.86517.80731-1.29297,1.23651-.43079.42944-.84216.86316-1.24084,1.29773-2.31183-2.87408-3.22528-5.02881-3.03845-5.51501ZM16,33c-.55127,0-1-.44873-1-1s.44873-1,1-1,1,.44873,1,1-.44873,1-1,1ZM18.63007,30.58704c-.27887-.51678-.70032-.93823-1.2171-1.2171.51349-1.10309,1.3938-2.43713,2.52209-3.8382.4259.46692.84369.90332,1.23682,1.29639.39246.39252.83173.81061,1.29779,1.23578-1.40125,1.12866-2.73596,2.0094-3.8396,2.52313ZM23.99725,26.75476c-.45984-.41602-.93011-.85944-1.41132-1.3407-.48126-.4812-.92468-.95148-1.34076-1.41107.42969-.47461.87317-.94897,1.34271-1.41705.46759-.46906.94153-.91217,1.41571-1.34149.45923.41559.92981.86078,1.41046,1.34149.48126.4812.92468.95148,1.34076,1.41107-.42969.47461-.87317.94897-1.34271,1.41705-.46735.46881-.94098.91162-1.41486,1.3407ZM31.10547,31.04541c-.52765.23425-2.6958-.66943-5.57391-2.97925.43353-.39783.86627-.80829,1.29462-1.23804.43079-.42944.84222-.86322,1.24091-1.29779,2.31177,2.87408,3.22522,5.02887,3.03839,5.51508ZM28.06494,22.46826c-.4259-.46692-.84369-.90332-1.23682-1.29639-.39307-.39313-.82947-.81097-1.29645-1.23682,1.40082-1.12811,2.73505-2.00861,3.83826-2.52216.27887.51678.70044.93829,1.21716,1.21716-.51349,1.10309-1.3938,2.43713-2.52216,3.8382ZM31,16c0-.55127.44873-1,1-1s1,.44873,1,1-.44873,1-1,1-1-.44873-1-1Z"/>
        <path d="M40,8h-1c0-1.65002-1.34998-3-3-3H8c-1.64996,0-3,1.34998-3,3v8c0,.54999.45001,1,1,1s1-.45001,1-1v-8c0-.54999.45001-1,1-1h28c.54999,0,1,.45001,1,1v28c0,.54999-.45001,1-1,1H8c-.54999,0-1-.45001-1-1v-12c0-.54999-.45001-1-1-1s-1,.45001-1,1v12c0,1.64996,1.35004,3,3,3h5v1c0,1.64996,1.35004,3,3,3h24c1.65002,0,3-1.35004,3-3V11c0-1.65002-1.34998-3-3-3ZM41,40c0,.54999-.45001,1-1,1h-24c-.54999,0-1-.45001-1-1v-1h21c1.65002,0,3-1.35004,3-3V10h1c.54999,0,1,.45001,1,1v29Z"/>
        <path d="M10,11h4c.55225,0,1-.44775,1-1s-.44775-1-1-1h-4c-.55225,0-1,.44775-1,1s.44775,1,1,1Z"/>
        <path d="M10,15h4c.55225,0,1-.44775,1-1s-.44775-1-1-1h-4c-.55225,0-1,.44775-1,1s.44775,1,1,1Z"/>
        <circle cx="6" cy="20" r="1"/>
      </g>
    </g>
  </g>
</svg>