<?xml version="1.0" encoding="UTF-8"?>
<svg xmlns="http://www.w3.org/2000/svg" version="1.1" viewBox="0 0 48 48">
  <!-- Generator: Adobe Illustrator 28.7.1, SVG Export Plug-In . SVG Version: 1.2.0 Build 142)  -->
  <g>
    <g id="OUTLINE">
      <g>
        <path d="M35.4209,20.78564l-1.21973.80127c-.12891-.07227-.25977-.13965-.39258-.20264v-1.38428c0-.55225-.44727-1-1-1h-3.61719c-.55273,0-1,.44775-1,1v1.38428c-.13281.06299-.26367.13037-.39258.20264l-1.21973-.80127c-.45215-.29639-1.05859-.18018-1.36719.26172l-2.03027,2.896c-.15527.22168-.21484.49658-.16406.76221s.20703.49951.43359.64795l1.18945.78076c-.04395.29053-.06543.58008-.06543.86572s.02148.5752.06543.86572l-1.18945.78076c-.22656.14844-.38281.38232-.43359.64795s.00879.54053.16406.76221l2.03027,2.896c.30859.44238.91504.55811,1.36719.26172l1.21973-.80127c.12891.07227.25977.13965.39258.20264v1.38428c0,.55225.44727,1,1,1h3.61719c.55273,0,1-.44775,1-1v-1.38428c.13281-.06299.26367-.13037.39258-.20264l1.21973.80127c.45117.29639,1.05762.18066,1.36719-.26172l2.03027-2.896c.15527-.22168.21484-.49658.16406-.76221s-.20703-.49951-.43359-.64795l-1.18945-.78076c.04395-.29053.06543-.58008.06543-.86572s-.02148-.5752-.06543-.86572l1.18945-.78076c.22656-.14844.38281-.38232.43359-.64795s-.00879-.54053-.16406-.76221l-2.03027-2.896c-.30957-.44189-.91602-.55811-1.36719-.26172ZM35.27734,25.93359c.09766.36133.14746.72021.14746,1.06641s-.0498.70508-.14746,1.06641c-.11328.41748.05469.86035.41602,1.09766l.89648.58838-.88184,1.25781-.94727-.62207c-.34473-.22559-.79395-.21826-1.12891.02148-.35156.25049-.73828.44873-1.14746.58936-.4043.13867-.67578.51855-.67578.9458v1.05518h-1.61719v-1.05518c0-.42725-.27148-.80713-.67578-.9458-.40918-.14062-.7959-.33887-1.14746-.58936-.33691-.23877-.78418-.24609-1.12891-.02148l-.94727.62207-.88184-1.25781.89648-.58838c.36133-.2373.5293-.68018.41602-1.09766-.09766-.36133-.14746-.72021-.14746-1.06641s.0498-.70508.14746-1.06641c.11328-.41748-.05469-.86035-.41602-1.09766l-.89648-.58838.88184-1.25781.94727.62207c.34375.2251.79297.21777,1.12891-.02148.35156-.25049.73828-.44873,1.14746-.58936.4043-.13867.67578-.51855.67578-.9458v-1.05518h1.61719v1.05518c0,.42725.27148.80713.67578.9458.40918.14062.7959.33887,1.14746.58936.33789.24023.78516.24756,1.12891.02148l.94727-.62207.88184,1.25781-.89648.58838c-.36133.2373-.5293.68018-.41602,1.09766Z"/>
        <path d="M31,24c-1.6543,0-3,1.3457-3,3s1.3457,3,3,3,3-1.3457,3-3-1.3457-3-3-3ZM31,28c-.55176,0-1-.44873-1-1s.44824-1,1-1,1,.44873,1,1-.44824,1-1,1Z"/>
        <path d="M41,20.38v-9.38c0-1.65002-1.34998-3-3-3h-1c0-1.65002-1.34998-3-3-3H8c-1.65002,0-3,1.34998-3,3v6c0,.54999.45001,1,1,1s1-.45001,1-1v-6c0-.54999.45001-1,1-1h26c.54999,0,1,.45001,1,1v7.70001c-1.25-.45001-2.59998-.70001-4-.70001-3.98999,0-7.53003,1.96997-9.71002,4.97998l-3.32001-1.72998c.01001-.08002.03003-.16003.03003-.25,0-1.65002-1.34998-3-3-3s-3,1.34998-3,3,1.34998,3,3,3c.84998,0,1.60999-.35004,2.15002-.92004l3.09998,1.62006c-.35999.72998-.65002,1.5-.85999,2.29999h-4.57001c-.41998-1.16003-1.52002-2-2.82001-2-1.65002,0-3,1.34998-3,3s1.34998,3,3,3c1.29999,0,2.40002-.84003,2.82001-2h4.22998c-.02997.32996-.04999.65997-.04999,1,0,.71997.08002,1.41998.20001,2.10999l-2,.85999c-.54999-.58997-1.33002-.96997-2.20001-.96997-1.65002,0-3,1.34998-3,3s1.34998,3,3,3,3-1.35004,3-3c0-.07001-.02002-.13-.02002-.19l1.73999-.75c.89001,2.45001,2.53003,4.51996,4.66003,5.94H8c-.54999,0-1-.45001-1-1v-14c0-.54999-.45001-1-1-1s-1,.45001-1,1v14c0,1.64996,1.34998,3,3,3h3v1c0,1.64996,1.34998,3,3,3h24c1.65002,0,3-1.35004,3-3v-6.38c1.26001-1.90002,2-4.16998,2-6.62s-.73999-4.72003-2-6.62ZM15,19c-.54999,0-1-.45001-1-1s.45001-1,1-1,1,.45001,1,1-.45001,1-1,1ZM12,26c-.54999,0-1-.45001-1-1s.45001-1,1-1,1,.45001,1,1-.45001,1-1,1ZM15,33c-.54999,0-1-.45001-1-1s.45001-1,1-1,1,.45001,1,1-.45001,1-1,1ZM37,10h1c.54999,0,1,.45001,1,1v7.07996c-.60999-.54999-1.28003-1.03998-2-1.45996v-6.62ZM39,40c0,.54999-.45001,1-1,1H14c-.54999,0-1-.45001-1-1v-1h18c3.08002,0,5.87-1.17004,8-3.08002v4.08002ZM31,37c-5.51001,0-10-4.48999-10-10s4.48999-10,10-10,10,4.48999,10,10-4.48999,10-10,10Z"/>
        <path d="M21,11h5c.55273,0,1-.44775,1-1s-.44727-1-1-1h-5c-.55273,0-1,.44775-1,1s.44727,1,1,1Z"/>
        <path d="M21,15h5c.55273,0,1-.44775,1-1s-.44727-1-1-1h-5c-.55273,0-1,.44775-1,1s.44727,1,1,1Z"/>
        <circle cx="6" cy="18" r="1"/>
      </g>
    </g>
  </g>
</svg>