<?xml version="1.0" encoding="UTF-8"?>
<svg xmlns="http://www.w3.org/2000/svg" version="1.1" viewBox="0 0 48 48">
  <!-- Generator: Adobe Illustrator 28.7.1, SVG Export Plug-In . SVG Version: 1.2.0 Build 142)  -->
  <g>
    <g id="OUTLINE">
      <g>
        <path d="M13,32c0,1.64996,1.34998,3,3,3,1.44,0,2.64001-1.02002,2.92999-2.37,1.44-.58002,3.22003-1.72003,5.07001-3.23999,1.84998,1.51996,3.63,2.65997,5.07001,3.23999.28998,1.34998,1.48999,2.37,2.92999,2.37,1.65002,0,3-1.35004,3-3,0-1.44-1.02002-2.64001-2.37-2.92999-.58002-1.44-1.72003-3.22003-3.23999-5.07001,1.51996-1.85004,2.65997-3.63,3.23999-5.07001,1.34998-.28998,2.37-1.48999,2.37-2.92999,0-1.65002-1.34998-3-3-3-1.44,0-2.64001,1.01996-2.92999,2.37-1.44.58002-3.22003,1.71997-5.07001,3.23999-1.84998-1.52002-3.63-2.65997-5.07001-3.23999-.28998-1.35004-1.48999-2.37-2.92999-2.37-1.65002,0-3,1.34998-3,3,0,1.44,1.02002,2.64001,2.37,2.92999.58002,1.44,1.72003,3.21997,3.23999,5.07001-1.51996,1.84998-2.65997,3.63-3.23999,5.07001-1.34998.28998-2.37,1.48999-2.37,2.92999ZM32,31c.54999,0,1,.45001,1,1s-.45001,1-1,1-1-.45001-1-1,.45001-1,1-1ZM30.59003,29.37c-.52002.27997-.94.70001-1.22003,1.21997-1.09998-.51996-2.44-1.39996-3.83997-2.51996.43994-.40002.87-.81,1.29999-1.24005.42999-.42999.83997-.85999,1.23999-1.29999,1.12,1.40002,2,2.73999,2.52002,3.84003ZM32,15c.54999,0,1,.45001,1,1s-.45001,1-1,1-1-.45001-1-1,.45001-1,1-1ZM29.37,17.40997c.28003.52002.70001.94,1.22003,1.22003-.52002,1.09998-1.40002,2.44-2.52002,3.83997-.40002-.44-.81-.87-1.23999-1.29999s-.86005-.84003-1.29999-1.23999c1.39996-1.12,2.73999-2,3.83997-2.52002ZM24,21.25c.46997.42999.95001.87,1.40997,1.33997.47003.46002.91003.94,1.34003,1.41003-.42999.46997-.87.95001-1.34003,1.40997-.45996.47003-.94.91003-1.40997,1.34003-.46997-.42999-.95001-.87-1.40997-1.34003-.47003-.45996-.91003-.94-1.34003-1.40997.42999-.47003.87-.95001,1.34003-1.41003.45996-.46997.94-.90997,1.40997-1.33997ZM16,17c-.54999,0-1-.45001-1-1s.45001-1,1-1,1,.45001,1,1-.45001,1-1,1ZM17.40997,18.63c.52002-.28003.94-.70001,1.22003-1.22003,1.09998.52002,2.44,1.40002,3.83997,2.52002-.43994.39996-.87.81-1.29999,1.23999s-.83997.85999-1.23999,1.29999c-1.12-1.39996-2-2.73999-2.52002-3.83997ZM19.92999,25.52997c.40002.44.81.87,1.23999,1.29999.42999.43005.86005.84003,1.29999,1.24005-1.39996,1.12-2.73999,2-3.83997,2.51996-.28003-.51996-.70001-.94-1.22003-1.21997.52002-1.10004,1.40002-2.44,2.52002-3.84003ZM17,32c0,.54999-.45001,1-1,1s-1-.45001-1-1,.45001-1,1-1,1,.45001,1,1Z"/>
        <path d="M42,21c.54999,0,1-.45001,1-1s-.45001-1-1-1h-3v-2h3c.54999,0,1-.45001,1-1s-.45001-1-1-1h-3v-3c0-1.65002-1.34998-3-3-3h-3v-3c0-.54999-.45001-1-1-1s-1,.45001-1,1v3h-2v-3c0-.54999-.45001-1-1-1s-1,.45001-1,1v3h-2v-3c0-.54999-.45001-1-1-1s-1,.45001-1,1v3h-2v-3c0-.54999-.45001-1-1-1s-1,.45001-1,1v3h-2v-3c0-.54999-.45001-1-1-1s-1,.45001-1,1v3h-.56c-.54999,0-1,.45001-1,1s.45001,1,1,1h21.56c.54999,0,1,.45001,1,1v24c0,.54999-.45001,1-1,1H12c-.54999,0-1-.45001-1-1V14.64001c0-.55005-.45001-1-1-1s-1,.44995-1,1v.35999h-3c-.54999,0-1,.45001-1,1s.45001,1,1,1h3v2h-3c-.54999,0-1,.45001-1,1s.45001,1,1,1h3v2h-3c-.54999,0-1,.45001-1,1s.45001,1,1,1h3v2h-3c-.54999,0-1,.45001-1,1s.45001,1,1,1h3v2h-3c-.54999,0-1,.45001-1,1s.45001,1,1,1h3v3c0,1.64996,1.34998,3,3,3h3v3c0,.54999.45001,1,1,1s1-.45001,1-1v-3h2v3c0,.54999.45001,1,1,1s1-.45001,1-1v-3h2v3c0,.54999.45001,1,1,1s1-.45001,1-1v-3h2v3c0,.54999.45001,1,1,1s1-.45001,1-1v-3h2v3c0,.54999.45001,1,1,1s1-.45001,1-1v-3h3c1.65002,0,3-1.35004,3-3v-3h3c.54999,0,1-.45001,1-1s-.45001-1-1-1h-3v-2h3c.54999,0,1-.45001,1-1s-.45001-1-1-1h-3v-2h3c.54999,0,1-.45001,1-1s-.45001-1-1-1h-3v-2h3Z"/>
        <circle cx="10.50458" cy="10.66687" r="1"/>
      </g>
    </g>
  </g>
</svg>