<?xml version="1.0" encoding="UTF-8"?>
<svg xmlns="http://www.w3.org/2000/svg" version="1.1" viewBox="0 0 48 48">
  <!-- Generator: Adobe Illustrator 28.7.1, SVG Export Plug-In . SVG Version: 1.2.0 Build 142)  -->
  <g>
    <g id="OUTLINE">
      <g>
        <path d="M20.69,21c1.12,2.35999,3.52997,4,6.31,4s5.19-1.64001,6.31-4h2.69v1.17999c-1.15997.41998-2,1.52002-2,2.82001,0,.10999.02002.20996.03003.31l-2.61005,1.88c-.26001.19-.41998.48999-.41998.81v2c0,.26996.10999.51996.28998.70996l2,2c.37994.37994,1.02167.37842,1.42004,0,.38995-.38995.38995-1.02997,0-1.41998l-1.71002-1.70001v-1.07996l1.90997-1.37c.54004.52997,1.28003.85999,2.09003.85999s1.54999-.33002,2.09003-.85999l1.90997,1.37v1.07996l-1.71002,1.70001c-.38995.39001-.38995,1.02997,0,1.41998.38275.38269,1.0368.38318,1.42004,0l2-2c.17999-.19.28998-.44.28998-.70996v-2c0-.32001-.15997-.62-.41998-.81l-2.61005-1.88c.01001-.10004.03003-.20001.03003-.31,0-1.29999-.84003-2.40002-2-2.82001v-1.17999h4c.54999,0,1-.45001,1-1v-4c0-.54999-.45001-1-1-1h-4v-2c0-.54999-.45001-1-1-1s-1,.45001-1,1v2h-2.69c-1.12-2.35999-3.52997-4-6.31-4s-5.19,1.64001-6.31,4h-2.69v-6c0-2.21002-1.78998-4-4-4s-4,1.78998-4,4v6h-4c-.54999,0-1,.45001-1,1v4c0,.54999.45001,1,1,1h4v4h-1c-.54999,0-1,.45001-1,1s.45001,1,1,1h1v2h-1c-.54999,0-1,.45001-1,1s.45001,1,1,1h1v2h-2c-.54999,0-1,.45001-1,1v3h-1c-.54999,0-1,.45001-1,1v4c0,.54999.45001,1,1,1h4c.54999,0,1-.45001,1-1s-.45001-1-1-1h-3v-2h14v2h-3c-.54999,0-1,.45001-1,1s.45001,1,1,1h4c.54999,0,1-.45001,1-1v-4c0-.54999-.45001-1-1-1h-1v-3c0-.54999-.45001-1-1-1h-2v-2h1c.54999,0,1-.45001,1-1s-.45001-1-1-1h-1v-2h1c.54999,0,1-.45001,1-1s-.45001-1-1-1h-1v-4h2.69ZM37,26c-.54999,0-1-.45001-1-1s.45001-1,1-1,1,.45001,1,1-.45001,1-1,1ZM33.91998,17h7.08002v2h-7.08002c.04999-.33002.08002-.66003.08002-1,0-.34003-.03003-.67004-.08002-1ZM27,13c2.76001,0,5,2.23999,5,5s-2.23999,5-5,5-5-2.23999-5-5,2.23999-5,5-5ZM12,9c0-1.10004.90002-2,2-2s2,.89996,2,2v6h-4v-6ZM19,35v2h-10v-2h10ZM16,27v2h-4v-2h4ZM12,25v-4h4v4h-4ZM16,31v2h-4v-2h4ZM7,19v-2h13.08002c-.04999.32996-.08002.65997-.08002,1,0,.33997.03003.66998.08002,1H7Z"/>
        <path d="M27,21c1.6543,0,3-1.3457,3-3s-1.3457-3-3-3-3,1.3457-3,3,1.3457,3,3,3ZM27,17c.55176,0,1,.44873,1,1s-.44824,1-1,1-1-.44873-1-1,.44824-1,1-1Z"/>
        <path d="M43,35h-12c-.55273,0-1,.44775-1,1v6c0,.55225.44727,1,1,1h12c.55273,0,1-.44775,1-1v-6c0-.55225-.44727-1-1-1ZM34,41h-2v-4h2v4ZM38,41h-2v-4h2v4ZM42,41h-2v-4h2v4Z"/>
        <circle cx="14" cy="42" r="1"/>
      </g>
    </g>
  </g>
</svg>