<?xml version="1.0" encoding="UTF-8"?>
<svg xmlns="http://www.w3.org/2000/svg" version="1.1" viewBox="0 0 48 48">
  <!-- Generator: Adobe Illustrator 28.7.1, SVG Export Plug-In . SVG Version: 1.2.0 Build 142)  -->
  <g>
    <g id="OUTLINE">
      <g>
        <path d="M20,17c1.68213,0,3-1.75684,3-4s-1.31787-4-3-4-3,1.75684-3,4,1.31787,4,3,4ZM20,11c.40771,0,1,.7793,1,2s-.59229,2-1,2-1-.7793-1-2,.59229-2,1-2Z"/>
        <path d="M28,9c-1.68213,0-3,1.75684-3,4s1.31787,4,3,4,3-1.75684,3-4-1.31787-4-3-4ZM28,15c-.40771,0-1-.7793-1-2s.59229-2,1-2,1,.7793,1,2-.59229,2-1,2Z"/>
        <path d="M28.69922,18.42871c-1.13623,1.63379-2.84912,2.57129-4.69922,2.57129s-3.56299-.9375-4.69922-2.57129c-.31494-.45215-.93701-.56543-1.3916-.25-.45361.31543-.56543.93848-.25,1.39258,1.51514,2.17871,3.82666,3.42871,6.34082,3.42871s4.82568-1.25,6.34082-3.42871c.31543-.4541.20361-1.07715-.25-1.39258-.45264-.31543-1.07666-.20215-1.3916.25Z"/>
        <path d="M40,23h-5v-3h1c1.65002,0,3-1.35004,3-3v-4c0-1.65002-1.34998-3-3-3h-1v-2c0-1.65002-1.34998-3-3-3h-16c-1.65002,0-3,1.34998-3,3v2h-1c-1.65002,0-3,1.34998-3,3v4c0,1.64996,1.34998,3,3,3h1v3h-5c-1.65002,0-3,1.34998-3,3v14c0,1.64996,1.34998,3,3,3h12c.54999,0,1-.45001,1-1s-.45001-1-1-1h-12c-.54999,0-1-.45001-1-1v-14c0-.54999.45001-1,1-1h5.17999c.41998,1.15997,1.52002,2,2.82001,2h.94l-.77002,2.32996-2.27997,1.36005c-.51001-.42004-1.17004-.69-1.89001-.69-1.65002,0-3,1.34998-3,3s1.34998,3,3,3,3-1.35004,3-3c0-.21002-.02002-.41003-.06-.60004l2.57001-1.53998c.20996-.12.35999-.32001.44-.53998l1.09998-3.32001h9.90002l1.09998,3.32001c.08002.21997.23004.41998.44.53998l2.57001,1.53998c-.03998.19-.06.39001-.06.60004,0,1.64996,1.34998,3,3,3s3-1.35004,3-3-1.34998-3-3-3c-.71997,0-1.38.26996-1.89001.69l-2.27997-1.36005-.77002-2.32996h.94c1.29999,0,2.40002-.84003,2.82001-2h5.17999c.54999,0,1,.45001,1,1v14c0,.54999-.45001,1-1,1h-12c-.54999,0-1,.45001-1,1s.45001,1,1,1h12c1.65002,0,3-1.35004,3-3v-14c0-1.65002-1.34998-3-3-3ZM35,12h1c.54999,0,1,.45001,1,1v4c0,.54999-.45001,1-1,1h-1v-6ZM13,18h-1c-.54999,0-1-.45001-1-1v-4c0-.54999.45001-1,1-1h1v6ZM12,34c-.54999,0-1-.45001-1-1s.45001-1,1-1,1,.45001,1,1-.45001,1-1,1ZM36,32c.54999,0,1,.45001,1,1s-.45001,1-1,1-1-.45001-1-1,.45001-1,1-1ZM33,24c0,.54999-.45001,1-1,1h-16c-.54999,0-1-.45001-1-1V8c0-.54999.45001-1,1-1h16c.54999,0,1,.45001,1,1v16Z"/>
        <path d="M22,29c-1.6543,0-3,1.3457-3,3v6c0,.55273.44775,1,1,1s1-.44727,1-1v-1h2v1c0,.55273.44775,1,1,1s1-.44727,1-1v-6c0-1.6543-1.3457-3-3-3ZM23,35h-2v-3c0-.55176.44873-1,1-1s1,.44824,1,1v3Z"/>
        <path d="M28,38v-4c0-.55273-.44775-1-1-1s-1,.44727-1,1v4c0,.55273.44775,1,1,1s1-.44727,1-1Z"/>
        <circle cx="27" cy="30" r="1"/>
        <circle cx="24" cy="42" r="1"/>
      </g>
    </g>
  </g>
</svg>