<?xml version="1.0" encoding="UTF-8"?><svg id="Dypta" xmlns="http://www.w3.org/2000/svg" viewBox="0 0 64 64"><defs><style>.cls-1{fill:#ff5f00;}.cls-2{fill:#293a4c;}</style></defs><path class="cls-2" d="m26,20.5c-7.78,0-22.5-1.46-22.5-7s14.72-7,22.5-7c4.02,0,7.96.3,11.37.86.82.13,1.37.91,1.24,1.72-.13.82-.91,1.37-1.72,1.24-3.26-.54-7.02-.82-10.89-.82-12.51,0-19.34,2.81-19.5,4,.16,1.19,6.99,4,19.5,4,2.57,0,5.06-.12,7.4-.36.81-.09,1.56.51,1.65,1.34.08.82-.51,1.56-1.34,1.65-2.44.25-5.03.38-7.7.38Z"/><path class="cls-2" d="m26,60.5c-7.78,0-22.5-1.46-22.5-7V13.5c0-.83.67-1.5,1.5-1.5s1.5.67,1.5,1.5v40c.17,1.19,7,4,19.5,4s19.33-2.81,19.5-4v-17.5c0-.83.67-1.5,1.5-1.5s1.5.67,1.5,1.5v17.5c0,5.54-14.72,7-22.5,7Z"/><path class="cls-2" d="m26,47.17c-7.78,0-22.5-1.46-22.5-7,0-.83.67-1.5,1.5-1.5s1.5.67,1.5,1.5c.17,1.19,7,4,19.5,4s19.33-2.81,19.5-4c0-.83.67-1.5,1.5-1.5s1.5.67,1.5,1.5c0,5.54-14.72,7-22.5,7Z"/><path class="cls-2" d="m26,54.3c-1.26,0-2.59-.03-4.07-.1-.83-.04-1.47-.74-1.43-1.57s.76-1.47,1.57-1.43c2.86.13,5.01.13,7.86,0,.83-.04,1.53.6,1.57,1.43s-.6,1.53-1.43,1.57c-1.47.07-2.81.1-4.07.1Z"/><path class="cls-2" d="m26,40.8c-1.26,0-2.59-.03-4.07-.1-.83-.04-1.47-.74-1.43-1.57.04-.83.76-1.47,1.57-1.43,2.86.13,5.01.13,7.86,0,.83-.04,1.53.6,1.57,1.43.04.83-.6,1.53-1.43,1.57-1.47.07-2.81.1-4.07.1Z"/><path class="cls-2" d="m26,27.47c-1.27,0-2.6-.03-4.07-.1-.83-.04-1.47-.74-1.43-1.57.04-.83.76-1.47,1.57-1.43,2.85.13,5.01.13,7.86,0,.83-.04,1.53.6,1.57,1.43.04.83-.6,1.53-1.43,1.57-1.47.07-2.8.1-4.07.1Z"/><path class="cls-2" d="m26,33.83c-7.78,0-22.5-1.46-22.5-7,0-.83.67-1.5,1.5-1.5s1.5.67,1.5,1.5c.16,1.2,6.99,4,19.5,4,6.54,0,12.7-.81,16.47-2.18.78-.28,1.64.12,1.92.9.28.78-.12,1.64-.9,1.92-4.14,1.5-10.52,2.36-17.49,2.36Zm-19.5-7h0,0Z"/><path class="cls-1" d="m45.26,12.99c-2.07,0-3.75,1.68-3.75,3.76s1.68,3.76,3.75,3.76,3.76-1.68,3.76-3.76-1.68-3.76-3.76-3.76Z"/><path class="cls-1" d="m46.25,3.5c-7.85,0-14.24,6.39-14.24,14.24s6.39,14.24,14.24,14.24,14.25-6.39,14.25-14.24-6.39-14.24-14.25-14.24Zm7.31,21.56c-.29.29-.68.44-1.06.44s-.77-.15-1.06-.44l-2.6-2.6c-1.04.66-2.27,1.04-3.59,1.04-3.72,0-6.75-3.03-6.75-6.76s3.03-6.76,6.75-6.76,6.76,3.03,6.76,6.76c0,1.32-.39,2.55-1.04,3.59l2.6,2.6c.59.59.59,1.54,0,2.12Z"/></svg>