<?xml version="1.0" encoding="UTF-8"?><svg id="Dypta" xmlns="http://www.w3.org/2000/svg" viewBox="0 0 64 64"><defs><style>.cls-1{fill:#ff5f00;}.cls-2{fill:#293a4c;}</style></defs><path class="cls-2" d="m45,31.46c-.83,0-1.5-.67-1.5-1.5V12c0-.83-.67-1.5-1.5-1.5h-9.5c-.83,0-1.5-.67-1.5-1.5s.67-1.5,1.5-1.5h9.5c2.48,0,4.5,2.02,4.5,4.5v17.96c0,.83-.67,1.5-1.5,1.5Z"/><path class="cls-2" d="m32.5,16.5h-15c-.83,0-1.5-.67-1.5-1.5v-6c0-.83.67-1.5,1.5-1.5h3.03c.25-2.25,2.16-4,4.47-4s4.22,1.75,4.47,4h3.03c.83,0,1.5.67,1.5,1.5v6c0,.83-.67,1.5-1.5,1.5Zm-13.5-3h12v-3h-3c-.83,0-1.5-.67-1.5-1.5v-1c0-.83-.67-1.5-1.5-1.5s-1.5.67-1.5,1.5v1c0,.83-.67,1.5-1.5,1.5h-3v3Z"/><path class="cls-2" d="m37,60.5H8c-2.48,0-4.5-2.02-4.5-4.5V12c0-2.48,2.02-4.5,4.5-4.5h9.5c.83,0,1.5.67,1.5,1.5s-.67,1.5-1.5,1.5h-9.5c-.83,0-1.5.67-1.5,1.5v44c0,.83.67,1.5,1.5,1.5h29c.83,0,1.5.67,1.5,1.5s-.67,1.5-1.5,1.5Z"/><path class="cls-2" d="m30,23.5h-11c-.83,0-1.5-.67-1.5-1.5s.67-1.5,1.5-1.5h11c.83,0,1.5.67,1.5,1.5s-.67,1.5-1.5,1.5Z"/><path class="cls-2" d="m37,29.5H12c-.83,0-1.5-.67-1.5-1.5s.67-1.5,1.5-1.5h25c.83,0,1.5.67,1.5,1.5s-.67,1.5-1.5,1.5Z"/><path class="cls-2" d="m29,35.5H12c-.83,0-1.5-.67-1.5-1.5s.67-1.5,1.5-1.5h17c.83,0,1.5.67,1.5,1.5s-.67,1.5-1.5,1.5Z"/><path class="cls-2" d="m21,50.5h-9c-.83,0-1.5-.67-1.5-1.5s.67-1.5,1.5-1.5h9c.83,0,1.5.67,1.5,1.5s-.67,1.5-1.5,1.5Z"/><path class="cls-1" d="m59.65,33.41l-12-5.76c-.41-.2-.89-.2-1.3,0l-12,5.76c-.52.25-.85.78-.85,1.35v8.02c0,7.92,5.24,14.92,13.04,17.41.15.05.3.07.46.07s.31-.02.46-.07c7.8-2.5,13.04-9.49,13.04-17.41v-8.02c0-.58-.33-1.1-.85-1.35Zm-5.86,7.61l-7.73,7.84c-.28.29-.67.45-1.07.45-.03,0-.06,0-.09,0-.43-.03-.83-.24-1.1-.58l-3.72-4.84c-.51-.66-.38-1.6.27-2.1.66-.51,1.6-.38,2.1.27l2.67,3.47,6.52-6.61c.58-.59,1.53-.6,2.12-.02s.6,1.53.02,2.12Z"/></svg>