<?xml version="1.0" encoding="UTF-8"?><svg id="Dypta" xmlns="http://www.w3.org/2000/svg" viewBox="0 0 64 64"><defs><style>.cls-1{fill:#ff5f00;}.cls-2{fill:#293a4c;}</style></defs><path class="cls-2" d="m39,60.5H11c-2.48,0-4.5-2.02-4.5-4.5V8c0-2.48,2.02-4.5,4.5-4.5h28c2.48,0,4.5,2.02,4.5,4.5v8.5c0,.83-.67,1.5-1.5,1.5s-1.5-.67-1.5-1.5v-8.5c0-.83-.67-1.5-1.5-1.5H11c-.83,0-1.5.67-1.5,1.5v48c0,.83.67,1.5,1.5,1.5h28c.83,0,1.5-.67,1.5-1.5v-2.5c0-.83.67-1.5,1.5-1.5s1.5.67,1.5,1.5v2.5c0,2.48-2.02,4.5-4.5,4.5Z"/><path class="cls-2" d="m31,54.5h-12c-.83,0-1.5-.67-1.5-1.5s.67-1.5,1.5-1.5h12c.83,0,1.5.67,1.5,1.5s-.67,1.5-1.5,1.5Z"/><path class="cls-2" d="m29.32,12.5h-8.63c-2.08,0-3.93-1.22-4.61-3.02l-1.48-3.95c-.29-.78.1-1.64.88-1.93.77-.29,1.64.1,1.93.88l1.48,3.95c.24.63.98,1.08,1.8,1.08h8.63c.82,0,1.56-.44,1.8-1.08l1.48-3.95c.29-.78,1.16-1.17,1.93-.88.78.29,1.17,1.16.88,1.93l-1.48,3.95c-.68,1.81-2.53,3.02-4.61,3.02Z"/><path class="cls-2" d="m18.5,39.03c-1.69,0-3.23-.99-3.83-2.47-.31-.77.06-1.64.82-1.95.77-.31,1.64.06,1.95.82.14.35.57.6,1.05.6.81,0,1.5-.55,1.5-1.2v-.13c0-.85-1.74-1.22-1.75-1.22-1.57-.26-4.25-1.44-4.25-4.18v-.13c0-2.31,2.02-4.2,4.5-4.2,1.69,0,3.23.99,3.83,2.47.31.77-.06,1.64-.82,1.95-.77.31-1.64-.06-1.95-.82-.14-.35-.57-.6-1.05-.6-.81,0-1.5.55-1.5,1.2v.13c0,.85,1.74,1.22,1.75,1.22,1.57.26,4.25,1.44,4.25,4.18v.13c0,2.31-2.02,4.2-4.5,4.2Z"/><path class="cls-2" d="m18.5,27.97c-.83,0-1.5-.67-1.5-1.5v-2.47c0-.83.67-1.5,1.5-1.5s1.5.67,1.5,1.5v2.47c0,.83-.67,1.5-1.5,1.5Z"/><path class="cls-2" d="m18.5,41.5c-.83,0-1.5-.67-1.5-1.5v-2.47c0-.83.67-1.5,1.5-1.5s1.5.67,1.5,1.5v2.47c0,.83-.67,1.5-1.5,1.5Z"/><path class="cls-1" d="m56,28.5c.83,0,1.5-.67,1.5-1.5v-3.27c0-.56-.31-1.08-.81-1.33l-14-7.23c-.43-.22-.94-.22-1.38,0l-14,7.23c-.5.26-.81.77-.81,1.33v3.27c0,.83.67,1.5,1.5,1.5h1.5v12h-1.5c-.83,0-1.5.67-1.5,1.5v5.5c0,.83.67,1.5,1.5,1.5h28c.83,0,1.5-.67,1.5-1.5v-5.5c0-.83-.67-1.5-1.5-1.5h-1.5v-12h1.5Zm-18.5,9.5c0,.83-.67,1.5-1.5,1.5s-1.5-.67-1.5-1.5v-7c0-.83.67-1.5,1.5-1.5s1.5.67,1.5,1.5v7Zm6,0c0,.83-.67,1.5-1.5,1.5s-1.5-.67-1.5-1.5v-7c0-.83.67-1.5,1.5-1.5s1.5.67,1.5,1.5v7Zm6,0c0,.83-.67,1.5-1.5,1.5s-1.5-.67-1.5-1.5v-7c0-.83.67-1.5,1.5-1.5s1.5.67,1.5,1.5v7Z"/></svg>