<?xml version="1.0" encoding="UTF-8"?><svg id="Dypta" xmlns="http://www.w3.org/2000/svg" viewBox="0 0 64 64"><defs><style>.cls-1{fill:#ff5f00;}.cls-2{fill:#293a4c;}</style></defs><path class="cls-2" d="m5,36c-.83,0-1.5-.67-1.5-1.5,0-10.97,6.94-20.81,17.28-24.49.78-.28,1.64.13,1.92.91.28.78-.13,1.64-.91,1.92-9.14,3.26-15.28,11.96-15.28,21.67,0,.83-.67,1.5-1.5,1.5Z"/><path class="cls-2" d="m13.65,40.6c-.65,0-1.25-.43-1.44-1.09-.47-1.63-.71-3.32-.71-5.01,0-8.82,6.57-16.47,15.29-17.79,2.2-.35,4.8-.25,7.12.34.8.2,1.29,1.02,1.08,1.82-.2.8-1.02,1.29-1.82,1.08-1.93-.49-4.09-.58-5.92-.28-7.27,1.1-12.75,7.48-12.75,14.83,0,1.41.2,2.82.59,4.19.23.8-.23,1.63-1.03,1.86-.14.04-.28.06-.42.06Z"/><path class="cls-2" d="m29.5,52.5c-1.69,0-3.38-.24-5.01-.71-.8-.23-1.26-1.06-1.03-1.86.23-.8,1.06-1.26,1.86-1.03,1.36.39,2.77.59,4.19.59,7.35,0,13.73-5.47,14.83-12.73.12-.82.89-1.39,1.71-1.26.82.12,1.38.89,1.26,1.71-1.32,8.71-8.97,15.29-17.79,15.29Z"/><path class="cls-2" d="m15,60.5c-6.34,0-11.5-5.16-11.5-11.5s5.16-11.5,11.5-11.5,11.5,5.16,11.5,11.5-5.16,11.5-11.5,11.5Zm0-20c-4.69,0-8.5,3.81-8.5,8.5s3.81,8.5,8.5,8.5,8.5-3.81,8.5-8.5-3.81-8.5-8.5-8.5Z"/><path class="cls-2" d="m15,52.84c-2.76,0-5-2.24-5-5s2.24-5,5-5,5,2.24,5,5-2.24,5-5,5Zm0-7c-1.1,0-2,.9-2,2s.9,2,2,2,2-.9,2-2-.9-2-2-2Z"/><path class="cls-2" d="m21.88,57.76c-.62,0-1.21-.39-1.42-1.02-.79-2.33-2.99-3.9-5.46-3.9s-4.66,1.57-5.46,3.9c-.27.78-1.12,1.2-1.91.93-.78-.27-1.2-1.12-.93-1.91,1.22-3.54,4.55-5.93,8.3-5.93s7.1,2.39,8.3,5.94c.27.78-.15,1.64-.94,1.9-.16.05-.32.08-.48.08Z"/><path class="cls-2" d="m29.5,41.53c-1.69,0-3.23-.99-3.83-2.47-.31-.77.06-1.64.82-1.95.77-.31,1.64.06,1.95.82.14.35.57.6,1.05.6.81,0,1.5-.55,1.5-1.2v-.13c0-.85-1.74-1.22-1.75-1.22-1.57-.26-4.25-1.44-4.25-4.18v-.13c0-2.31,2.02-4.2,4.5-4.2,1.69,0,3.23.99,3.83,2.47.31.77-.06,1.64-.82,1.95-.77.31-1.64-.06-1.95-.82-.14-.35-.57-.6-1.05-.6-.81,0-1.5.55-1.5,1.2v.13c0,.85,1.74,1.22,1.75,1.22,1.57.26,4.25,1.44,4.25,4.18v.13c0,2.31-2.02,4.2-4.5,4.2Z"/><path class="cls-2" d="m29.5,30.47c-.83,0-1.5-.67-1.5-1.5v-1.47c0-.83.67-1.5,1.5-1.5s1.5.67,1.5,1.5v1.47c0,.83-.67,1.5-1.5,1.5Z"/><path class="cls-2" d="m29.5,43c-.83,0-1.5-.67-1.5-1.5v-1.47c0-.83.67-1.5,1.5-1.5s1.5.67,1.5,1.5v1.47c0,.83-.67,1.5-1.5,1.5Z"/><path class="cls-2" d="m18.79,17.78c-.23,0-.46-.05-.68-.17-.74-.38-1.03-1.28-.65-2.02l1.59-3.1-3.43-.71c-.81-.17-1.33-.96-1.17-1.77.17-.81.96-1.33,1.77-1.17l5.36,1.11c.46.1.85.4,1.05.82s.2.92-.02,1.33l-2.49,4.86c-.27.52-.79.82-1.34.82Z"/><path class="cls-2" d="m37.72,59.08c-.62,0-1.19-.38-1.41-1-.28-.78.13-1.64.91-1.92,8.94-3.19,14.93-11.37,15.26-20.84.03-.83.74-1.46,1.55-1.45.83.03,1.48.72,1.45,1.55-.38,10.71-7.15,19.96-17.26,23.56-.17.06-.34.09-.5.09Z"/><path class="cls-2" d="m43.09,60.19c-.1,0-.2-.01-.3-.03l-5.36-1.11c-.46-.1-.85-.4-1.05-.82s-.2-.92.02-1.33l2.49-4.86c.38-.74,1.28-1.03,2.02-.65.74.38,1.03,1.28.65,2.02l-1.59,3.1,3.43.71c.81.17,1.33.96,1.17,1.77-.15.71-.77,1.2-1.47,1.2Z"/><path class="cls-1" d="m41.55,20.33c-1.29-1.24-2.09-2.97-2.09-4.89,0-3.75,3.05-6.8,6.8-6.8s6.8,3.05,6.8,6.8c0,1.92-.81,3.66-2.09,4.89,2.83,1.38,4.96,3.96,5.74,7.07,2.35-2.54,3.8-5.93,3.8-9.65,0-7.85-6.39-14.24-14.24-14.24s-14.24,6.39-14.24,14.24c0,3.73,1.45,7.11,3.8,9.65.78-3.11,2.91-5.69,5.74-7.07Z"/><path class="cls-1" d="m46.26,22.23c-4.18,0-7.58,3.31-7.75,7.45,2.23,1.46,4.89,2.31,7.75,2.31s5.52-.85,7.75-2.31c-.17-4.13-3.58-7.45-7.75-7.45Z"/><circle class="cls-1" cx="46.26" cy="15.43" r="3.8"/></svg>