<?xml version="1.0" encoding="UTF-8"?><svg id="Dypta" xmlns="http://www.w3.org/2000/svg" viewBox="0 0 64 64"><defs><style>.cls-1{fill:#ff5f00;}.cls-2{fill:#293a4c;}</style></defs><path class="cls-2" d="m21,34.5c-.83,0-1.5-.67-1.5-1.5,0-13.18,5.05-23.5,11.5-23.5,1.63,0,3.19.63,4.62,1.88.63.54.69,1.49.15,2.12-.54.63-1.49.69-2.12.15-.88-.76-1.77-1.14-2.66-1.14-4.02,0-8.5,8.42-8.5,20.5,0,.83-.67,1.5-1.5,1.5Z"/><path class="cls-2" d="m31,56.5c-.83,0-1.5-.67-1.5-1.5s.67-1.5,1.5-1.5c4.02,0,8.5-8.42,8.5-20.5,0-1.23-.05-2.44-.15-3.58-.07-.83.54-1.55,1.37-1.62.82-.07,1.55.54,1.62,1.37.1,1.23.16,2.52.16,3.84,0,13.18-5.05,23.5-11.5,23.5Z"/><path class="cls-2" d="m35.06,25.33H11.01c-.83,0-1.5-.67-1.5-1.5s.67-1.5,1.5-1.5h24.05c.83,0,1.5.67,1.5,1.5s-.67,1.5-1.5,1.5Z"/><path class="cls-2" d="m50.99,43.67h-27.02c-.83,0-1.5-.67-1.5-1.5s.67-1.5,1.5-1.5h27.02c.83,0,1.5.67,1.5,1.5s-.67,1.5-1.5,1.5Z"/><path class="cls-2" d="m10.03,41.17c-.64,0-1.23-.41-1.43-1.05-.73-2.3-1.1-4.7-1.1-7.12,0-12.96,10.54-23.5,23.5-23.5,1.51,0,3.03.15,4.49.44.81.16,1.34.95,1.18,1.76-.16.81-.95,1.34-1.76,1.18-1.28-.25-2.59-.38-3.91-.38-11.3,0-20.5,9.2-20.5,20.5,0,2.12.32,4.21.96,6.22.25.79-.19,1.63-.98,1.88-.15.05-.3.07-.45.07Z"/><path class="cls-2" d="m31,56.5c-2.61,0-5.14-.42-7.54-1.24-.78-.27-1.2-1.12-.93-1.91.27-.78,1.12-1.2,1.91-.93,2.08.72,4.29,1.08,6.56,1.08,10.68,0,19.46-8.01,20.42-18.63.07-.83.8-1.43,1.63-1.36.83.07,1.43.8,1.36,1.63-1.1,12.18-11.16,21.37-23.4,21.37Z"/><path class="cls-2" d="m14.78,60.5c-.25,0-.51-.06-.74-.19l-9.78-5.5c-.47-.27-.76-.77-.76-1.31v-11c0-.54.29-1.04.76-1.31l9.78-5.5c.46-.26,1.01-.26,1.47,0l9.78,5.5c.47.27.76.77.76,1.31v11c0,.54-.29,1.04-.76,1.31l-9.78,5.5c-.23.13-.48.19-.74.19Zm-8.28-7.88l8.28,4.66,8.28-4.66v-9.25l-8.28-4.66-8.28,4.66v9.25Z"/><path class="cls-2" d="m14.78,49.5c-.25,0-.51-.06-.74-.19l-9.78-5.5c-.72-.41-.98-1.32-.57-2.04.41-.72,1.32-.98,2.04-.57l9.04,5.09,9.04-5.09c.72-.41,1.64-.15,2.04.57.41.72.15,1.64-.57,2.04l-9.78,5.5c-.23.13-.48.19-.74.19Z"/><path class="cls-2" d="m14.78,60.5c-.83,0-1.5-.67-1.5-1.5v-11c0-.83.67-1.5,1.5-1.5s1.5.67,1.5,1.5v11c0,.83-.67,1.5-1.5,1.5Z"/><path class="cls-1" d="m46.25,3.5c-7.85,0-14.24,6.39-14.24,14.24s6.39,14.24,14.24,14.24,14.25-6.39,14.25-14.24-6.39-14.24-14.25-14.24Zm-2.82,17.07c.75.75,1.76,1.17,2.82,1.17s2.07-.42,2.83-1.17c.59-.59,1.54-.59,2.12,0,.59.59.59,1.54,0,2.12-.96.96-2.15,1.6-3.44,1.88v.91c0,.83-.67,1.5-1.5,1.5s-1.5-.67-1.5-1.5v-.91c-1.3-.28-2.49-.92-3.45-1.88-1.32-1.32-2.05-3.08-2.05-4.95s.73-3.63,2.05-4.95c.96-.96,2.15-1.6,3.45-1.88v-.91c0-.83.67-1.5,1.5-1.5s1.5.67,1.5,1.5v.92c1.29.28,2.48.92,3.44,1.88.59.59.59,1.54,0,2.12-.59.59-1.54.59-2.12,0-.75-.75-1.76-1.17-2.83-1.17s-2.07.42-2.82,1.17c-.75.75-1.17,1.76-1.17,2.83s.42,2.07,1.17,2.82Z"/></svg>