<?xml version="1.0" encoding="UTF-8"?><svg id="Dypta" xmlns="http://www.w3.org/2000/svg" viewBox="0 0 64 64"><defs><style>.cls-1{fill:#ff5f00;}.cls-2{fill:#293a4c;}</style></defs><path class="cls-2" d="m53,50.5H11c-2.48,0-4.5-2.02-4.5-4.5V14c0-2.48,2.02-4.5,4.5-4.5h8.51c.83,0,1.5.67,1.5,1.5s-.67,1.5-1.5,1.5h-8.51c-.83,0-1.5.67-1.5,1.5v32c0,.83.67,1.5,1.5,1.5h42c.83,0,1.5-.67,1.5-1.5V14c0-.83-.67-1.5-1.5-1.5h-2c-.83,0-1.5-.67-1.5-1.5s.67-1.5,1.5-1.5h2c2.48,0,4.5,2.02,4.5,4.5v32c0,2.48-2.02,4.5-4.5,4.5Z"/><path class="cls-2" d="m39,43.5h-14c-.83,0-1.5-.67-1.5-1.5s.67-1.5,1.5-1.5h14c.83,0,1.5.67,1.5,1.5s-.67,1.5-1.5,1.5Z"/><path class="cls-2" d="m46,37.5h-28c-.83,0-1.5-.67-1.5-1.5s.67-1.5,1.5-1.5h28c.83,0,1.5.67,1.5,1.5s-.67,1.5-1.5,1.5Z"/><path class="cls-2" d="m40,60.5h-16c-.45,0-.88-.2-1.16-.55-.28-.35-.4-.8-.31-1.25l2-10c.14-.7.76-1.21,1.47-1.21h12c.71,0,1.33.5,1.47,1.21l2,10c.09.44-.03.9-.31,1.25s-.71.55-1.16.55Zm-14.17-3h12.34l-1.4-7h-9.54l-1.4,7Z"/><path class="cls-2" d="m46,60.5h-28c-.83,0-1.5-.67-1.5-1.5s.67-1.5,1.5-1.5h28c.83,0,1.5.67,1.5,1.5s-.67,1.5-1.5,1.5Z"/><path class="cls-1" d="m34.57,13.95c0-1.41-1.15-2.56-2.56-2.56s-2.56,1.15-2.56,2.56,1.15,2.56,2.56,2.56,2.56-1.15,2.56-2.56Z"/><path class="cls-1" d="m41.1,3.5h-18.18c-2.71,0-4.91,2.2-4.91,4.91v18.18c0,2.71,2.2,4.91,4.91,4.91h18.18c2.71,0,4.91-2.2,4.91-4.91V8.41c0-2.71-2.2-4.91-4.91-4.91Zm-1.99,23.11c-.83,0-1.5-.67-1.5-1.5,0-3.09-2.51-5.6-5.6-5.6s-5.6,2.51-5.6,5.6c0,.83-.67,1.5-1.5,1.5s-1.5-.67-1.5-1.5c0-3.23,1.79-6.04,4.42-7.51-.85-.98-1.38-2.25-1.38-3.65,0-3.06,2.49-5.56,5.56-5.56s5.56,2.49,5.56,5.56c0,1.4-.52,2.67-1.38,3.65,2.63,1.47,4.42,4.28,4.42,7.51,0,.83-.67,1.5-1.5,1.5Z"/></svg>