<?xml version="1.0" encoding="UTF-8"?><svg id="Dypta" xmlns="http://www.w3.org/2000/svg" viewBox="0 0 64 64"><defs><style>.cls-1{fill:#ff5f00;}.cls-2{fill:#293a4c;}</style></defs><path class="cls-2" d="m34,43.5c-7.44,0-13.5-6.06-13.5-13.5,0-6.97,5.44-12.88,12.38-13.46.81-.06,1.55.54,1.62,1.37.07.83-.55,1.55-1.37,1.62-5.4.45-9.62,5.04-9.62,10.46,0,5.79,4.71,10.5,10.5,10.5,3.74,0,7.22-2.01,9.1-5.25.42-.72,1.34-.96,2.05-.55.72.42.96,1.33.55,2.05-2.41,4.16-6.89,6.75-11.69,6.75Z"/><path class="cls-2" d="m13,18.5c-4.14,0-7.5-3.36-7.5-7.5s3.36-7.5,7.5-7.5,7.5,3.36,7.5,7.5-3.36,7.5-7.5,7.5Zm0-12c-2.48,0-4.5,2.02-4.5,4.5s2.02,4.5,4.5,4.5,4.5-2.02,4.5-4.5-2.02-4.5-4.5-4.5Z"/><path class="cls-2" d="m13,60.5c-5.24,0-9.5-4.26-9.5-9.5s4.26-9.5,9.5-9.5,9.5,4.26,9.5,9.5-4.26,9.5-9.5,9.5Zm0-16c-3.58,0-6.5,2.92-6.5,6.5s2.92,6.5,6.5,6.5,6.5-2.92,6.5-6.5-2.92-6.5-6.5-6.5Z"/><path class="cls-2" d="m50.5,60.5c-5.51,0-10-4.49-10-10s4.49-10,10-10,10,4.49,10,10-4.49,10-10,10Zm0-17c-3.86,0-7,3.14-7,7s3.14,7,7,7,7-3.14,7-7-3.14-7-7-7Z"/><path class="cls-2" d="m25.1,23.44c-.36,0-.72-.13-1.01-.39l-7.65-6.92c-.61-.56-.66-1.5-.11-2.12.56-.62,1.51-.66,2.12-.11l7.65,6.92c.61.56.66,1.5.11,2.12-.3.33-.7.49-1.11.49Z"/><path class="cls-2" d="m18.66,46.84c-.38,0-.77-.15-1.06-.44-.59-.59-.59-1.54,0-2.12l6.85-6.85c.59-.59,1.54-.59,2.12,0s.59,1.54,0,2.12l-6.85,6.85c-.29.29-.68.44-1.06.44Z"/><path class="cls-2" d="m45.21,45.35c-.44,0-.87-.19-1.17-.56l-3.66-4.52c-.52-.64-.42-1.59.22-2.11.65-.52,1.59-.42,2.11.22l3.66,4.52c.52.64.42,1.59-.22,2.11-.28.22-.61.33-.94.33Z"/><path class="cls-2" d="m22,31.5h-8c-.83,0-1.5-.67-1.5-1.5s.67-1.5,1.5-1.5h8c.83,0,1.5.67,1.5,1.5s-.67,1.5-1.5,1.5Z"/><path class="cls-2" d="m10,35.5c-3.03,0-5.5-2.47-5.5-5.5s2.47-5.5,5.5-5.5,5.5,2.47,5.5,5.5-2.47,5.5-5.5,5.5Zm0-8c-1.38,0-2.5,1.12-2.5,2.5s1.12,2.5,2.5,2.5,2.5-1.12,2.5-2.5-1.12-2.5-2.5-2.5Z"/><path class="cls-2" d="m32.21,56.5c-3.03,0-5.5-2.47-5.5-5.5s2.47-5.5,5.5-5.5,5.5,2.47,5.5,5.5-2.47,5.5-5.5,5.5Zm0-8c-1.38,0-2.5,1.12-2.5,2.5s1.12,2.5,2.5,2.5,2.5-1.12,2.5-2.5-1.12-2.5-2.5-2.5Z"/><path class="cls-2" d="m32.56,48.52s-.09,0-.13,0c-.83-.07-1.44-.8-1.36-1.62l.44-5.06c.07-.83.81-1.44,1.62-1.36.83.07,1.44.8,1.36,1.62l-.44,5.06c-.07.78-.72,1.37-1.49,1.37Z"/><path class="cls-1" d="m46,3.5c-8,0-14.5,6.5-14.5,14.5s6.5,14.5,14.5,14.5,14.5-6.5,14.5-14.5-6.5-14.5-14.5-14.5Zm4.5,17.33c0,1.82-1.26,3.36-3,3.94v1.23c0,.83-.67,1.5-1.5,1.5s-1.5-.67-1.5-1.5v-1.25c-1.05-.39-1.91-1.17-2.33-2.19-.31-.77.06-1.64.83-1.95.77-.31,1.64.06,1.95.83.14.35.57.6,1.05.6.81,0,1.5-.55,1.5-1.2v-.13c0-.85-1.74-1.22-1.75-1.22-1.57-.26-4.25-1.44-4.25-4.18v-.13c0-1.82,1.26-3.36,3-3.94v-1.23c0-.83.67-1.5,1.5-1.5s1.5.67,1.5,1.5v1.25c1.05.39,1.91,1.17,2.33,2.19.31.77-.06,1.64-.83,1.95-.77.31-1.64-.06-1.95-.83-.14-.35-.57-.6-1.05-.6-.81,0-1.5.55-1.5,1.2v.13c0,.85,1.74,1.22,1.75,1.22,1.57.26,4.25,1.44,4.25,4.18v.13Z"/></svg>