<?xml version="1.0" encoding="UTF-8"?><svg id="Dypta" xmlns="http://www.w3.org/2000/svg" viewBox="0 0 64 64"><defs><style>.cls-1{fill:#ff5f00;}.cls-2{fill:#293a4c;}</style></defs><path class="cls-2" d="m5,25.5c-.27,0-.55-.08-.79-.22-.44-.27-.71-.76-.71-1.28v-7c0-.57.32-1.09.83-1.34L28.33,3.66c.42-.21.92-.21,1.34,0l7.99,3.99c.74.37,1.04,1.27.67,2.01-.37.74-1.27,1.04-2.01.67l-7.32-3.66L6.5,17.93v3.65l21.83-10.92c.42-.21.92-.21,1.34,0l4.94,2.47c.74.37,1.04,1.27.67,2.01-.37.74-1.27,1.04-2.01.67l-4.27-2.13L5.67,25.34c-.21.11-.44.16-.67.16Z"/><path class="cls-2" d="m35.16,25.5H5c-.83,0-1.5-.67-1.5-1.5s.67-1.5,1.5-1.5h30.16c.83,0,1.5.67,1.5,1.5s-.67,1.5-1.5,1.5Z"/><path class="cls-2" d="m33,48.5h-8c-.83,0-1.5-.67-1.5-1.5v-23c0-.83.67-1.5,1.5-1.5h8c.83,0,1.5.67,1.5,1.5v23c0,.83-.67,1.5-1.5,1.5Zm-6.5-3h5v-20h-5v20Z"/><path class="cls-2" d="m17,48.5h-8c-.83,0-1.5-.67-1.5-1.5v-23c0-.83.67-1.5,1.5-1.5h8c.83,0,1.5.67,1.5,1.5v23c0,.83-.67,1.5-1.5,1.5Zm-6.5-3h5v-20h-5v20Z"/><path class="cls-2" d="m49,48.5h-8c-.83,0-1.5-.67-1.5-1.5v-17.65c0-.83.67-1.5,1.5-1.5s1.5.67,1.5,1.5v16.15h5v-9.5c0-.83.67-1.5,1.5-1.5s1.5.67,1.5,1.5v11c0,.83-.67,1.5-1.5,1.5Z"/><path class="cls-2" d="m53,60.5H5c-.83,0-1.5-.67-1.5-1.5v-6c0-.83.67-1.5,1.5-1.5h48c.83,0,1.5.67,1.5,1.5v6c0,.83-.67,1.5-1.5,1.5Zm-46.5-3h45v-3H6.5v3Z"/><path class="cls-2" d="m49,54.5H9c-.83,0-1.5-.67-1.5-1.5v-6c0-.83.67-1.5,1.5-1.5h40c.83,0,1.5.67,1.5,1.5v6c0,.83-.67,1.5-1.5,1.5Zm-38.5-3h37v-3H10.5v3Z"/><path class="cls-2" d="m17,42.5h-8c-.83,0-1.5-.67-1.5-1.5s.67-1.5,1.5-1.5h8c.83,0,1.5.67,1.5,1.5s-.67,1.5-1.5,1.5Z"/><path class="cls-2" d="m33,42.5h-8c-.83,0-1.5-.67-1.5-1.5s.67-1.5,1.5-1.5h8c.83,0,1.5.67,1.5,1.5s-.67,1.5-1.5,1.5Z"/><path class="cls-2" d="m49,42.5h-8c-.83,0-1.5-.67-1.5-1.5s.67-1.5,1.5-1.5h8c.83,0,1.5.67,1.5,1.5s-.67,1.5-1.5,1.5Z"/><path class="cls-1" d="m46.26,3.5c-7.85,0-14.24,6.39-14.24,14.25s6.39,14.24,14.24,14.24,14.24-6.39,14.24-14.24-6.39-14.25-14.24-14.25Zm5.74,15.75h-4.24v4.24c0,.83-.67,1.5-1.5,1.5s-1.5-.67-1.5-1.5v-4.24h-4.24c-.83,0-1.5-.67-1.5-1.5s.67-1.5,1.5-1.5h4.24v-4.25c0-.83.67-1.5,1.5-1.5s1.5.67,1.5,1.5v4.25h4.24c.83,0,1.5.67,1.5,1.5s-.67,1.5-1.5,1.5Z"/></svg>