<?xml version="1.0" encoding="UTF-8"?><svg id="Dypta" xmlns="http://www.w3.org/2000/svg" viewBox="0 0 64 64"><defs><style>.cls-1{fill:#ff5f00;}.cls-2{fill:#293a4c;}</style></defs><path class="cls-2" d="m32,60.5c-12.41,0-22.5-10.09-22.5-22.5,0-2.51.41-4.98,1.22-7.34.27-.78,1.12-1.2,1.91-.93.78.27,1.2,1.12.93,1.91-.7,2.04-1.06,4.18-1.06,6.36,0,10.75,8.75,19.5,19.5,19.5s19.5-8.75,19.5-19.5c0-.93-.07-1.87-.2-2.79-.12-.82.45-1.58,1.27-1.7.82-.11,1.58.45,1.7,1.27.15,1.06.23,2.14.23,3.21,0,12.41-10.09,22.5-22.5,22.5Z"/><path class="cls-2" d="m27.6,18.97c-.69,0-1.31-.48-1.46-1.18-.18-.81.34-1.61,1.15-1.79,2.06-.45,4.26-.61,6.37-.44.83.07,1.44.79,1.38,1.61s-.79,1.44-1.61,1.38c-1.82-.14-3.72,0-5.49.38-.11.02-.22.04-.32.04Z"/><path class="cls-2" d="m32,45.5c-4.41,0-8-3.59-8-8s3.59-8,8-8,8,3.59,8,8-3.59,8-8,8Zm0-13c-2.76,0-5,2.24-5,5s2.24,5,5,5,5-2.24,5-5-2.24-5-5-5Z"/><path class="cls-2" d="m45.45,55.63c-.65,0-1.25-.43-1.44-1.09-1.53-5.32-6.47-9.04-12.01-9.04s-10.48,3.72-12.01,9.04c-.23.8-1.06,1.26-1.86,1.03-.8-.23-1.26-1.06-1.03-1.86,1.9-6.6,8.02-11.22,14.89-11.22s13,4.61,14.89,11.22c.23.8-.23,1.63-1.03,1.86-.14.04-.28.06-.41.06Z"/><path class="cls-2" d="m16.5,33.5c-7.17,0-13-5.83-13-13s5.83-13,13-13,13,5.83,13,13-5.83,13-13,13Zm0-23c-5.51,0-10,4.49-10,10s4.49,10,10,10,10-4.49,10-10-4.49-10-10-10Z"/><path class="cls-2" d="m16.5,27.53c-1.69,0-3.23-.99-3.83-2.47-.31-.77.06-1.64.82-1.95.77-.31,1.64.06,1.95.82.14.35.57.6,1.05.6.81,0,1.5-.55,1.5-1.2v-.13c0-.85-1.74-1.22-1.75-1.22-1.57-.26-4.25-1.44-4.25-4.18v-.13c0-2.31,2.02-4.2,4.5-4.2,1.69,0,3.23.99,3.83,2.47.31.77-.06,1.64-.82,1.95-.77.31-1.64-.06-1.95-.82-.14-.35-.57-.6-1.05-.6-.81,0-1.5.55-1.5,1.2v.13c0,.85,1.74,1.22,1.75,1.22,1.57.26,4.25,1.44,4.25,4.18v.13c0,2.31-2.02,4.2-4.5,4.2Z"/><path class="cls-2" d="m16.5,16.47c-.83,0-1.5-.67-1.5-1.5v-1.47c0-.83.67-1.5,1.5-1.5s1.5.67,1.5,1.5v1.47c0,.83-.67,1.5-1.5,1.5Z"/><path class="cls-2" d="m16.5,29c-.83,0-1.5-.67-1.5-1.5v-1.47c0-.83.67-1.5,1.5-1.5s1.5.67,1.5,1.5v1.47c0,.83-.67,1.5-1.5,1.5Z"/><circle class="cls-1" cx="46.26" cy="17.74" r="3.76"/><path class="cls-1" d="m46.26,3.5c-7.85,0-14.24,6.39-14.24,14.24s6.39,14.24,14.24,14.24,14.24-6.39,14.24-14.24-6.39-14.24-14.24-14.24Zm7.88,15.74h-1.29c-.17.75-.47,1.46-.87,2.09l.92.92c.59.59.59,1.54,0,2.12-.29.29-.68.44-1.06.44s-.77-.15-1.06-.44l-.92-.92c-.63.4-1.34.7-2.09.87v1.29c0,.83-.67,1.5-1.5,1.5s-1.5-.67-1.5-1.5v-1.29c-.75-.17-1.46-.47-2.09-.87l-.92.92c-.29.29-.68.44-1.06.44s-.77-.15-1.06-.44c-.59-.59-.59-1.54,0-2.12l.92-.92c-.4-.63-.7-1.34-.87-2.09h-1.29c-.83,0-1.5-.67-1.5-1.5s.67-1.5,1.5-1.5h1.29c.17-.75.47-1.46.87-2.09l-.92-.92c-.59-.59-.59-1.54,0-2.12.59-.58,1.54-.59,2.12,0l.92.92c.63-.4,1.34-.7,2.09-.87v-1.29c0-.83.67-1.5,1.5-1.5s1.5.67,1.5,1.5v1.29c.75.17,1.46.47,2.09.87l.92-.92c.59-.59,1.54-.59,2.12,0,.59.59.59,1.54,0,2.12l-.92.92c.4.63.7,1.34.87,2.09h1.29c.83,0,1.5.67,1.5,1.5s-.67,1.5-1.5,1.5Z"/></svg>